<mxfile host="app.diagrams.net" modified="2021-08-10T01:32:35.457Z" agent="5.0 (Macintosh; Intel Mac OS X 10_15_7) AppleWebKit/537.36 (KHTML, like Gecko) Chrome/92.0.4515.131 Safari/537.36" etag="f_34NzalFYPwGGEcRTt-" version="14.9.5" type="github">
  <diagram id="vrGKllEc7rzqTkMKDcyY" name="Page-1">
    <mxGraphModel dx="1383" dy="948" grid="0" gridSize="10" guides="1" tooltips="1" connect="1" arrows="1" fold="1" page="0" pageScale="1" pageWidth="827" pageHeight="1169" math="0" shadow="0">
      <root>
        <mxCell id="0" />
        <mxCell id="1" parent="0" />
        <mxCell id="vCu3GC9NDoEudtsHAbqV-1" value="" style="shape=image;verticalLabelPosition=bottom;labelBackgroundColor=#ffffff;verticalAlign=top;aspect=fixed;imageAspect=0;image=data:image/png,iVBORw0KGgoAAAANSUhEUgAABlAAAANgCAYAAABTNiXeAAABgGlDQ1BJQ0MgUHJvZmlsZQAAKJFjYGCqSCwoyGFhYGDIzSspCnJ3UoiIjFJgv8PAzcDDIMRgxSCemFxc4BgQ4MOAE3y7xsAIoi/rgsxqOqd2d+pGwehjat+yq+1cc3DrAwPulNTiZAYGRg4gOyWlODkXyAbp0UsuKCoBsucA2brlJQUg9hkgW6QI6EAg+wGInQ5hfwGxk8BsJg6wmpAgZyBbBsgWSIKwdUDsdAjbBsROzkhMAbJB/tKBuAEMuIJdFAzNDXx1HQk4nFSQm1MKswMUWjypeaHBQFoIiGUYghlcGBQYDBnMGQwYfBl0GYCWl6RWlIAUO+cXVBZlpmeUKDgCQzdVwTk/t6C0JLVIR8EzL1lPR8HIwNAApA4UbxDjPweBbWAUO48Qy5rMwGDxhoGBuQohlrKcgWGLPQODeDBCTH020EnvGRh2hBckFiXCHc/4jYUQvzjN2AjC5nFiYGC99///ZzUGBvZJDAx/J/7//3vR//9/FwPtv8PAcCAHALbUa30s2MP4AAAAimVYSWZNTQAqAAAACAAEARoABQAAAAEAAAA+ARsABQAAAAEAAABGASgAAwAAAAEAAgAAh2kABAAAAAEAAABOAAAAAAAAAJAAAAABAAAAkAAAAAEAA5KGAAcAAAASAAAAeKACAAQAAAABAAAGUKADAAQAAAABAAADYAAAAABBU0NJSQAAAFNjcmVlbnNob3Tg/cDoAAAACXBIWXMAABYlAAAWJQFJUiTwAAAB12lUWHRYTUw6Y29tLmFkb2JlLnhtcAAAAAAAPHg6eG1wbWV0YSB4bWxuczp4PSJhZG9iZTpuczptZXRhLyIgeDp4bXB0az0iWE1QIENvcmUgNi4wLjAiPgogICA8cmRmOlJERiB4bWxuczpyZGY9Imh0dHA6Ly93d3cudzMub3JnLzE5OTkvMDIvMjItcmRmLXN5bnRheC1ucyMiPgogICAgICA8cmRmOkRlc2NyaXB0aW9uIHJkZjphYm91dD0iIgogICAgICAgICAgICB4bWxuczpleGlmPSJodHRwOi8vbnMuYWRvYmUuY29tL2V4aWYvMS4wLyI+CiAgICAgICAgIDxleGlmOlBpeGVsWURpbWVuc2lvbj44NjQ8L2V4aWY6UGl4ZWxZRGltZW5zaW9uPgogICAgICAgICA8ZXhpZjpQaXhlbFhEaW1lbnNpb24+MTYxNjwvZXhpZjpQaXhlbFhEaW1lbnNpb24+CiAgICAgICAgIDxleGlmOlVzZXJDb21tZW50PlNjcmVlbnNob3Q8L2V4aWY6VXNlckNvbW1lbnQ+CiAgICAgIDwvcmRmOkRlc2NyaXB0aW9uPgogICA8L3JkZjpSREY+CjwveDp4bXBtZXRhPgr90e6nAAAAHGlET1QAAAACAAAAAAAAAbAAAAAoAAABsAAAAbAAAOIYVDgYsQAAQABJREFUeAHsnQm4HUWZvytREEQEUeAZVOLAhDEOwyYwJHJZ7kC4EUZ4JNGIIoNI9D8gDMgmKiEKM3ADGR4QFTQoCsgWB9myGAMS4F5NSNgCAhM2JQYIS5Adwvn31/o13+nT55w+53Sf08tbz3Nvd1fX+lZ1VXX9TnWNqHjGYSAAAQhAAAIQgAAEIAABCEAAAhCAAAQgAAEIQAACEIAABAICIxBQAhacQAACEIAABCAAAQhAAAIQgAAEIAABCEAAAhCAAAQgAAGfAAIKFQECEIAABCAAAQhAAAIQgAAEIAABCEAAAhCAAAQgAAEIhAggoISAcAkBCEAAAhCAAAQgAAEIQAACEIAABCAAAQhAAAIQgAAEEFCoAxCAAAQgAAEIQAACEIAABCAAAQhAAAIQgAAEIAABCEAgRAABJQSESwhAAAIQgAAEIAABCEAAAhCAAAQgAAEIQAACEIAABCCAgEIdgAAEIAABCEAAAhCAAAQgAAEIQAACEIAABCAAAQhAAAIhAggoISBcQgACEIAABCAAAQhAAAIQgAAEIAABCEAAAhCAAAQgAAEEFOoABCAAAQhAAAIQgAAEIAABCEAAAhCAAAQgAAEIQAACEAgRQEAJAeESAhCAAAQgAAEIQAACEIAABCAAAQhAAAIQgAAEIAABCCCgUAcgAAEIQAACEIAABCAAAQhAAAIQgAAEIAABCEAAAhCAQIgAAkoICJcQgAAEIAABCEAAAhCAAAQgAAEIQAACEIAABCAAAQhAAAGFOgABCEAAAhCAAAQgAAEIQAACEIAABCAAAQhAAAIQgAAEQgQQUEJAuIQABCAAAQhAAAIQgAAEIAABCEAAAhCAQB4IzJkzx0/mtGnT/OPw8HAekk0aQwSOP/5436a/v98NDAyE7nIJAQj0kgACSi/pEzcEIAABCEAAAhCAAAQgAAEIQAACEIAABFokIMKJiCYIJi2Cy4lzEVQGBwdzklqSCYFiE0BAKXb5kjsIQAACEIAABCAAAQhAAAIQgAAEIACBAhE44YQT3PTp06tytMsuu/jXfX19VfZc5IPAwoULa8QwRJR8lB2pLD4BBJTilzE5hAAEIAABCEAAAhCAAAQgAAEIQAACECgAgbFjx1ZNtDPJXoBCDWUhLJBRxiFAXEKgywQQULoMnOggAAEIQAACEIAABCAAAQhAAAIQgAAEINAqATuxLitOpk6dyn4ZrULMiXtb1pLk2bNnU9Y5KTuSWTwCCCjFK1NyBAEIQAACEIAABCAAAQhAAAIQgAAEIFAgAnZCnRUJBSrYJlkZMWKE70IEs6GhoSauuQ0BCKRBAAElDaqECQEIQAACEIAABCAAAQhAAAIQgAAEIACBhAjoRDriSUJAcxLMnDlz3IQJE/zUUvY5KTSSWTgCCCiFK1IyBAEIQAACEIAABCAAAQhAAAIQgAAEIFAUAnb1SaVSKUq2yEdMAnbfGz7lFRMaziCQIAEElARhEhQEIAABCEAAAhCAAAQgAAEIQAACEIAABJIkwOqTJGnmMyzqQD7LjVQXgwACSjHKkVxAAAIQgAAEIAABCEAAAhCAAAQgAAEIFIyA/YQTqw8KVrgtZEdXobAXSgvQcAqBhAggoCQEkmAgAAEIQAACEIAABCAAAQhAAAIQgAAEIJAkAT7flSTN/Ial9QABJb9lSMrzSwABJb9lR8ohAAEIQAACEIAABCAAAQhAAAIQgAAECkyAifMCF24LWbMrkdgHpwVwOIVAAgQQUBKASBAQgAAEIAABCEAAAhCAAAQgAAEIQAACEEiagH666fjjj3eDg4NJB094OSFgBRQ+5ZaTQiOZhSGAgFKYoiQjEIAABCAAAQhAAAIQgAAEIAABCEAAAkUigIBSpNJsPy8IKO2zwycEOiWAgNIpQfxDAAIQgAAEIAABCEAAAhCAAAQgAAEIQCAFAggoKUDNYZAIKDksNJJcGAIIKIUpSjICAQhAAAIQgAAEIAABCEAAAhCAAAQgUCQCCChFKs3284KA0j47fEKgUwIIKJ0SxD8EIAABCEAAAhCAAAQgAAEIQAACEIAABFIggICSAtQcBomAksNCI8mFIYCAUpiiJCMQgAAEIAABCEAAAhCAAAQgAAEIQAACRSKAgFKk0mw/Lwgo7bPDJwQ6JYCA0ilB/EMAAhCAAAQgAAEIQAACEIAABCAAAQhAIAUCCCgpQM1hkAgoOSw0klwYAggohSlKMgIBCEAAAhCAAAQgAAEIQAACEIAABCBQJAIIKEUqzfbzgoDSPjt8QqBTAggonRLEPwQgAAEIQAACEIAABCAAAQhAAAIQgAAEUiCAgJIC1BwGiYCSw0IjyYUhgIBSmKIkIxCAAAQgAAEIQAACEIAABCAAAQhAAAJFIoCAUqTSbD8vCCjts8MnBDolgIDSKUH8QwACEIAABCAAAQhAAAIQgAAEIAABCEAgBQIIKClAzWGQCCg5LDSSXBgCCCiFKUoyAgEIQAACEIAABCAAAQhAAAIQgAAEIFAkAggoRSrN9vOCgNI+O3xCoFMCCCidEsQ/BCAAAQhAAAIQgAAEIAABCEAAAhCAAARSIICAkgLUHAaJgJLDQiPJhSGAgFKYoiQjEIAABCAAAQhAAAIQgAAEIAABCEAAAkUigIBSpNJsPy8IKO2zwycEOiWAgNIpQfxDAAIQgAAEIAABCEAAAhCAAAQgAAEIQOBvBEaMGOGOP/54Nzg42DETBJSOERYiAASUQhQjmcgpAQSUnBYcyYYABCAAAQhAAAIQgAAEIAABCEAAAhDIHgEVPXbZZRc3depUNzAw0HYiNaykBJm2E4LHnhJAQOkpfiIvOQEElJJXALIPAQhAAAIQgAAEIAABCEAAAhCAAAQgkBwBO9ktoXYifiCgJFcueQ7J1qnZs2d3JMrlmQNph0AvCCCg9II6cUIAAhCAAAQgAAEIQAACEIAABCAAAQgUloAKHzaD7QgpGk47fm3ceT2vVCpu9erVfvLXXXdd9653vavnWVm1apVbsmSJW7p0qXvllVfchz/8YbfVVlu5j370o27jjTdOJX0IKKlgJVAIxCKAgBILE44gAAEIQAACEIAABCAAAQhAAAIQgAAEIBCPgAofYdetCiEaTqv+wvHKfiwnnnhiYP3d737Xfetb3wqu653I58fmzp3r3775ppvd7nvsXs9pKvaLFi1yO++8sx/2scce684+++xU4mkWqAg5Z555pjvvvPPcihUr6jo/+OCD3fTp092mm25a1007NxBQ2qGGHwgkQwABJRmOhAIBCEAAAhCAAAQgAAEIQAACEIAABCAAAZ+AnfCOQhJXEElKQDn99NNrBJPly5e7LbbYIip5gd2//uu/ugULFvjX8+fPd3LdTTM8POyEgZhjjjnGzZgxo5vR+3E999xzToSRG264IVbcG2ywgfvhD3/oJk+eHMt9HEe2PvEJrzjEcAOB5AggoCTHkpAgAAEIQAACEIAABCAAAQhAAAIQgAAEIOATUPGjHo44IoqGEcdtvXjEPkpAGb/3eDd33l9Xl9TzW3YB5cEHH3Tjx493jz32WIBozJgxvpC0ww47+CtNHn/8cXfzzTe7K664InAjJ3fccYcTN0kYBJQkKBIGBNojgIDSHjd8QQACEIAABCAAAQhAAAIQgAAEIAABCLRIQCaCw0ZXOITt273u7++P7VU+UZWWsZPejeJoJI6kKaBImi679DL3uYM+Vzd5ZRdQ7CfMBJKsghk8c9C9c6131jC75+573MCEgeATX7K65+677nbrvWe9GretWti6xAqUVunhHgKdEUBA6YwfviEAAQhAAAIQgAAEIAABCEAAAhCAQOEJWOEjSvBYuHBhDQP5/FLezC677BIkua+vLziXEyvMxBVeRowYURVGvQuJd+rUqS4cbtoCyiabbOIeeOABt+GGG0YmrcwCyk0LbnL9//q2GHfBBRe4KVOmRHJSS1l1suOOO+qlmzVrlvv0pz8dXLd7goDSLjn8QaBzAggonTMkBAhAAAIQgAAEIAABCEAAAhCAAAQgkGsCKpCoOKKCSDdFECtehGF2Mx3huJtd23SHRRfh2Eraw6tR0hBQZD+Pa6+91q1evdrPmogCIg5EmTgCyuuvv+5mXT3LLVm6xC1ZssS9+uqrbsstt3TbbLONvw/Ihz70oaigA7uXXnzJDf9u2A0NDbmHH37YffSjH3V77rmn22H7HdyixYti7YFy7z33utuHbvc/m/XUU0+5rbfe2u2+++5u3Lhx7t3vfncQV9wT2TReNq9fvHix72Xbbbd1S5cudXEEsc985jPuqquu8v196UtfcjNnzowbbV13CCh10XADAqkTQEBJHTERQAACEIAABCAAAQhAAAIQgAAEIACB3hJISyCx4oHmMCwi2JUb6kaO4dUW9l5a58rBhq+ikdqpeCTXrYgf6j+JowopaQgoJ5xwgi9wfOUrXwmSetttt/liQ2Dxt5NmAooIHhMnTvTFhbBfuZYN1QcHB93hhx8eKT7cf//9bsKECVV7jGg4o0aNctOmTXP//u//7ltFbSL/5htvupO+cZI7++yz1VvVUeK//PLLW65rjz76qPv7v//7IKxrrrnG7b///sF1oxMRkX7xi1/4TkRI+upXv9rIeax7CCixMOEIAqkQQEBJBSuBQgACEIAABCAAAQhAAAIQgAAEIACB7hFQYUDFABUB2hEArCgiYogVQHohenSPYvOYlLO4VNbqS5nLdTvcNRw9ioiiK1hUUNF7rR7tJvIioJxxxhlujz32cLfccosflKzYWLpkac3eHo0EFPlcldzXlSwSkIgea6+9tnvooYeqknjyySf7G9lbS2Ek9cn6t/fD52EB5ZVXXvHrZpi1fJZMVqFY873zvueOOPIIa9XwfN68eW6fffYJ3MiKlF4aBJRe0ifushNAQCl7DSD/EIAABCAAAQhAAAIQgAAEIAABCOSKgE7iywS+TrC3kgEEklZote/WTnq3H8pffSYtoJx55pnuD3/4gxszZkyQNBFVTjzxxOBaThoJKPKJLCvAyGfBdNXGqlWr3Le//W33wx/+MAhPNlnf+p+3Dq632247d9ddd/nXm222mfvRj37kf7pLxIrrrrvOyQoZK66EBZTvfOc7/r4xEoCsNJHPkB346QN9Eeixxx7z71188cVBfLLaRT4PFsec/73z3ZFfO9J3Kozuu+++ON5Sc2PrktQFETXLLmamBpuAIRAigIASAsIlBCAAAQhAAAIQgAAEIAABCEAAAhDICoF2xJJ6AgkTrt0tVf38VjuxShnKpvLyCStZYZGGgCLpOvXUU/04NI2PPPKI+8hHPqKXdQWUX/3qV+6AAw7w3Yn4IULIBz7wgcCfnIgQ8rnPfc5dccUVvv34vce7ufPm+uc33nij23ffff1zET9E3Pi7v/s7/1r/yZ4jO+ywg146K6D8+c9/9sUfFVgWLVpUtXm7eArHLytvRDiKY44++mh37rnn+k5lJYo+h3H8puHGCijh8PV5j/p0Hs98mBbXEGidAAJK68zwAQEIQAACEIAABCAAAQhAAAIQgAAEEiegk7StrCyRyVP7mS0mTBMvlrYClMn66dOnt+RXRRNbhirCpCWgyAbwshJEBAwxYbGg3gqUiQdOdLN+Ocv3IyKMiD1RRvZW2XXXXf1bIpQ8//zz/vl+++3nbrjhBv9c/EoYUcZuyG4FFBFCTjrpJN/LoYce6i666KIo7+7WW2/1nw+5KULPE088EekubPn5z3/eXXbZZb71YYcd5n784x+HnXT1upGAEjchUUKLfp7P1rm44eEOAmUhgIBSlpImnxCAAAQgAAEIQAACEIAABCAAAQhkhgBiSWaKIpWEjBgxIna4UcKJek5bQJF4rMgg17JiRIQLMfUEFPv5reXLl7stttjCdx/+99KLL7n3rP+ewFr2Jtl44439TexlA3oxjfxfeuml7gtf+ILvzgooX/rSl9xPfvIT3/6cc85xX/ziF/3z8L8333zTyZ4oap599ln3vve9Ty/rHo888kh3/vnn+/cnTZrkrrzyyrpuu3HDCigiprUqzsVJY6N6GMc/biBQVAIIKEUtWfIFAQhAAAIQgAAEIAABCEAAAhCAQGYIqGCin2RqljCZzGRlSTNK2bwfZ/VJ3MnqbggoQlH2G7nwwgt9oLJSQ1akvPe9760roGy44YbB/iRr1qxxI0eOrFsYH/vYx4IVLrJnzy7/sotba+21AvdvvP5Gzeb1etOKO1ZA+cQnPuFuv/12dRb7+NCDD7p/GD26qXvZv+W0007z3e20007u97//fVM/aTqwAsrs2bODT7slFWenK5ySSgfhQCCLBBBQslgqpAkCEIAABCAAAQhAAAIQgAAEIACB3BOQSU8RTMTIPhb1DGJJPTL5s28knsQVTWyuuyWgyF4iW221lZMVImL+4z/+w1+BEbUC5bnnnnMbbbSR705Wdzz55JP+eb1/VuyQTedlj5XNN988cC57ldQz995zr/vnbf7Zv20FlA9+8INuxYoV9bzVtQ9vZF/P4cyZM92Xv/xl/3acPNpw5FnXT2K9//3v91fY2PvtnIcFFAm/lVVO9eKUOjk0NFTvNvYQgIBHAAGFagABCEAAAhCAAAQgAAEIQAACEIAABBIgEGeVCWJJAqAzHETUpHY7wolmsVsCisR39dVXO/lclRqZWP/mN7/pZE8eMfPnz/dXpKx5c03VipG33nqr4WT+lltu6fRzXU/86Qm30fs3cuuuu65G4xqtQJk3b56/L4s4tgKKrApZvHixH4bsnyKM45g999zTrb322k2d/t9DD7nRnqCk5te//rXba6+99LLh0X5ebPze493ceXMbuo9zM0pAaSTWNQuzkzrZLGzuQ6BwBDyVFwMBCEAAAhCAAAQgAAEIQAACEIAABCDQBgHvczoVbzLS//MmjeSn9DV/cl/cYYpNwPsMUlD2SZW5hCN1SsLuxHifowrS5k281w3K29w9cLfttttWdtttt+DaE1ACf6NHjw7sH3vsscA+fPL0008H7iQfntjiOxk1alRgf99994W9BdfePiSBO09ACewnT54c2HsbyAf2UScvvPBCxdu8vvLiX16Mul3XzqZROMQxEscGG2wQpM3b7D6Ot6ZupP3QtsW2JVo/9F6cY6d1qWlicQCBghFwBcsP2YEABCAAAQhAAAIQgAAEIAABCEAAAqkRkMlL+Ws0cSn3ZJLSTnSmliACzgQBKW8pd60fSSVK61mnk95xBRQRQ6wAYCfkrYCy7777BhP6U6dOrZtdK4DsuOOOgbv+/v7A/3HHHRfYh0/Ej6bBCigSp9p/6lOfCnsLrpctWxa48za6D+zjnJx11lmBX4nrF7/4RVNvIk5puuT4hz/8oamfOA6kXmm4tl2x9nq/3lHqEgYCEGidAAJK68zwAQEIQAACEIAABCAAAQhAAAIQgECJCMgkpUw+6mR21ASl3LMTmyXCQ1Y9AmmVvda5bgkoUpjnnHNOMFlv67oVUERM0HveHiGV5cuX19QD73NdFbuK4/LLLw/cXHzxxYF/EWxE6AibSy65JHAjcVkBRVataPxy9DabD3uveJ8Gq3if0ArcNRJqajx7Fi+//HJls802C/xLPN7m8sEqGutnzZo1lSlTplS5PeWUU6yTjs6tUBKua1pHLI96553Wo44ygWcI5JQAe6B4LQoGAhCAAAQgAAEIQAACEIAABCAAAQhYAroBfL3N371JS9fX1+e8X9IHG0Zb/5xDIAkC3dwDRdMre5pI/V60aJFa+UfdA0UuvHlQ9y//8i+BG9lo/Zz/Ocd9YtdPuLXWWsvddtttzhMQ3P333+/7HTNmjLv33nvdyJEj/Wvxv/POOwf7mHgiipsxY4YbN26cH/ZVV13lvFUmvlv9Z/dAETtPDHDeKhG97Tzhx98v5X3ve5+76667/P1bdJ8UCf+ee+5xH/7whwP3cU7Ev+y3Ys3WW2/t532HHXbw8yqcPAEnyKu49T5/5hYvWly1V4wNo9XzqD1QbBhRe+/Y+/ZcuA0ODlorziEAgQYEEFAawOEWBCAAAQhAAAIQgAAEIAABCEAAAuUhEEc0kUndgYGB8kAhpz0l0AsBRTIsAsR2221XlXcroMiNO+64w33yk590Tz31VJW78IW3isNde+217uMf/3jVLREnvE+BNfQv92+44QbfX1hAeenFl9wee+4RiDBVgYcurrv2Orffv+0Xso13Kfn+8pe/7LzPm8XycPDBB7vvfe977r3vfW8s93EcNRNQGm0or2Lv9OnTq6JCSKnCwQUE6hPI6coZkg0BCEAAAhCAAAQgAAEIQAACEIAABDomIJ/Dkc/aRH0GR+zkXviTOR1HSgAQiElA66XUw06MbGbuzQ76fyeddFKsoML7edx80801/lauXFnZa6+9grA1Dj3uscceFU9gqfGnFrLnit3nRP3JUT6JJZu/q10UA/lM18knnxy4Ubd6lM3fF/xmgUbX9lE+5/XNb36zbjwSn3yubNasWW3H0chjo094qT+tK5p3PYq9GmGo9nKMYqpuOUIAAn8lwAoUr7XAQAACEIAABCAAAQhAAAIQgAAEIFAuAvVWm3iTjT4IVpqUqz5kNbdJrUBJM3/eFKN7ePnDbumdS/2VK+uvv77/CStZwbLppps2jVo+GSaf1xoaGnKeION/MmvsLmPdRu/fqKlfdbBq1Sp/RczSpUvdq6++6j74wQ/6nwiTT2klaSRsb2N45+3Z4h544AEnnwvbZptt/L+NN944yaiqwmq2AkUcWzfWsyeSVH2yK2q1StiN9c85BMpOAAGl7DWA/EMAAhCAAAQgAAEIQAACEIAABEpCoJ5oItkX4QTRpCQVIUfZzIOAkiOcuU2qFUe81Sh1PyOo9cVmtJ44EhZS6rmzYXEOgTISQEApY6mTZwhAAAIQgAAEIAABCEAAAhCAQEkIyMSjmGnTprnwhvCIJiWpBDnOpk6IM7md40JMIOlxBRSJKryhfKO6ExZRxH8j93IfA4GyEUBAKVuJk18IQAACEIAABCAAAQhAAAIQgEAJCLDapASFXIIsIqCUoJBjZLEVASUsijRasaJRh/0goigZjhDwREnZCgUQEIAABCAAAQhAAAIQgAAEIAABCEAg7wQQTfJegqQ/TAABJUyknNetCChCSOuNnMcRUMRdWEQRO4QUoYApOwEElLLXAPIPAQhAAAIQgAAEIAABCEAAAhDIOYF6wol+okuyNzAwkPNckvwyEtCJcCayy1j6b+e5VQHFum/1t/NhIYW693Y5cFZOAggo5Sx3cg0BCEAAAhCAAAQgAAEIQAACEMg9AZnoW7hwIXub5L4kyUA9Aggo9ciUy94KInFXlGjdaVVAEbJhEUXsEFKEAqaMBBBQyljq5BkCEIAABCAAAQhAAAIQgAAEIJBjAlGTe7rahJUmOS5Ykl5DQCfBmbyuQVMqi3YEFAEkG8q3I6Ao3HBbSz1UMhzLRAABpUylTV4hAAEIQAACEIAABCAAAQhAAAI5JhCezJOsIJzkuEBJelMCCChNEZXCQbsCivjrVFSOancRUkpR7cjk3wggoFAVIAABCEAAAhCAAAQgAAEIQAACEMg0gagJPISTTBcZiUuIAAJKQiBzHky7AkqS2Q63w4goSdIlrCwTQEDJcumQNghAAAIQgAAEIAABCEAAAhCAQEkJyIThtGnT2N+kpOVPtv9KAAGFmiAEsiCgSDoQUYQCpmwEEFDKVuLkFwIQgAAEIAABCEAAAhCAAAQgkGECCCcZLhyS1nUCCChdR57JCLMioCgchBQlwbEMBBBQylDK5BECEIAABCAAAQhAAAIQgAAEIJBxAggnGS8gktcTAggoPcGeuUizJqAIIESUzFUTEpQSAQSUlMASLAQgAAEIQAACEIAABCAAAQhAAALNCSCcNGeEi/ISUAFF9vwZGhoqL4iS5zyLAooUiU2XXFNPhQKmaAQQUIpWouQHAhCAAAQgAAEIQAACEIAABCCQAwIIJzkoJJLYcwIIKD0vgkwkwK72qFQqmUiTTYRNn9izwbylw3neCSCg5L0EST8EIAABCEAAAhCAAAQgAAEIQCBHBOoJJ0y45agQSWrXCNiJ6SxOnHcNRMkjykM9sGmU4qJNL3mlLVD2EVAKVJhkBQIQgAAEIAABCEAAAhCAAAQgkGUC4Qk2SSuTbFkuMdLWawL2E0mzZ892AwMDvU4S8feAgK5Eynp7aeurYJJPek2dOpV624M6Q5TJEUBASY4lIUEAAhCAAAQgAAEIQAACEIAABCAQQSBq1UnWJwIjsoEVBHpCYMSIEX68CCg9wZ+JSLUO5KXdDIvleUl3JgqbRGSOAAJK5oqEBEEAAhCAAAQgAAEIQAACEIAABIpBIEo44RfJxShbctE9Arr6QGLkM17d456VmKwYkSchwqZbWOYp7Vkpe9KRDQIIKNkoB1IBAQhAAAIQgAAEIAABCEAAAhAoFIHw5BnCSaGKl8x0kYD9LJI8R0NDQ12Mnah6ScC2o3kUIMIiOv1AL2sTcbdLAAGlXXL4gwAEIAABCEAAAhCAAAQgAAEIQKCGQHjCTBzkceKvJmNYQKCHBOxEOp/y6mFBdDlq/XSXRJvn1Ue2/kpe6BOEAiYvBBBQ8lJSpBMCEIAABCAAAQhAAAIQgAAEIJBhAlHCCb82znCBkbTcEbCf8mICOnfF11KCw+1pEcobEaWlKoDjDBFAQMlQYZAUCEAAAhCAAAQgAAEIQAACEIBAHgmEJ8YQTvJYiqQ56wRkUn3ChAlVySzCxHpVhrhw4fa0SGUcFoakuFlRRaXPOgEElKyXEOmDAAQgAAEIQAACEIAABCAAAQhklEDUZFiRJvsyip1klZxAeIJdBMu+vj6fSn9/f8np5DP706ZN8xM+PDwcZKDIQnS4DtNvBMXOSQYJIKBksFBIEgQgAAEIQAACEIAABCAAAQhAIMsEooSTIk/2ZbksSFs5CYQnoMtJobi5LoOgEK7DZchzcWtssXOGgFLs8iV3EIAABCAAAQhAAAIQgAAEIACBRAmEJ70QThLFS2AQaImAPI9iFi5c6OzqhZYCwXHPCUg7KkZWEskqooGBgZ6nqVsJYG+fbpEmnnYJIKC0Sw5/EIAABCAAAQhAAAIQgAAEIACBEhGIWnXCL4ZLVAHIam4IyLOKyQ+BMokl9UrFCvOI8vUoYd8rAggovSJPvBCAAAQgAAEIQAACEIAABCAAgZwQsJNbkmQmuHJScCQTAhCAQE4IhPsZBPqcFFwJkomAUoJCJosQgAAEIAABCEAAAhCAAAQgAIF2CEStOpk9e3apPi/TDjf8QAACEIBA6wQQUVpnho/0CSCgpM+YGCAAAQhAAAIQgAAEIAABCEAAArkjEJ7IklUnQ0NDucsHCYYABCAAgfwQEOF+woQJQYJZiRKg4KRHBBBQegSeaCEAAQhAAAIQgAAEIAABCEAAAlkkELXqhAmsLJYUaYIABCBQXAJsLl/css1bzhBQ8lZipBcCEIAABCAAAQhAAAIQgAAEIJASgfAvf9nrJCXQBAsBCEAAAk0J2JWQ9EdNceEgJQIIKCmBJVgIQAACEIAABCAAAQhAAAIQgECeCNhf+0q6WXWSp9IjrRCAAASKScCKKJJD+qZilnOWc4WAkuXSIW0QgAAEIAABCEAAAhCAAAQgAIGUCYQ/2cWvfFMGTvAQgAAEINASAUSUlnDhOGECCCgJAyU4CEAAAhCAAAQgAAEIQAACEIBAXggwKZWXkiKdEIAABMpNIPyJSVailLs+dDP3CCjdpE1cEIAABCAAAQhAAAIQgAAEIACBjBBAPMlIQZAMCEAAAhCITcB+bhIRJTY2HHZAAAGlA3h4hQAEIAABCEAAAhCAAAQgAAEI5I0An+zKW4mRXghAAAIQsATsDwD47KQlw3kaBBBQ0qBKmBCAAAQgAAEIQAACEIAABCAAgQwS4BMoGSwUkgQBCEAAAi0TsCKKeGY1SssI8RCTAAJKTFA4gwAEIAABCEAAAhCAAAQgAAEI5JkAk015Lj3SDgEIQAACYQL0a2EiXKdBAAElDaqECQEIQAACEIAABCAAAQhAAAIQyBAB+814PneSoYIhKRCAAAQg0BEBVlZ2hA/PMQggoMSAhBMIQAACEIAABCAAAQhAAAIQgEAeCUTtdzI0NJTHrJBmCEAAAhCAQCQBRJRILFgmRAABJSGQBAMBCEAAAhCAAAQgAAEIQAACEMgSASaUslQapAUCEIAABNIkQJ+XJt1yh42AUu7yJ/cQgAAEIAABCEAAAhCAAAQgUEACfBe+gIVKliAAAQhAoCkB+8lKNpZvigsHMQggoMSAhBMIQAACEIAABCAAAQhAAAIQgEBeCITFk9mzZ7uBgYG8JJ90QgACEIAABDoigIjSET48hwggoISAcAkBCEAAAhCAAAQgAAEIQAACEMgrAcSTvJYc6YYABCAAgSQJIKIkSbPcYSGglLv8yT0EIAABCEAAAhCAAAQgAAEIFISAFU922WUXx2bxBSlYsgEBCEAAAm0RQERpCxueQgQQUEJAuIQABCAAAQhAAAIQgAAEIAABCOSNgJ0kQjzJW+mRXghAAAIQSIsAPy5Ii2x5wkVAKU9Zk1MIQAACEIAABCAAAQhAAAIQKBiBOXPmuGnTprnh4WE/Z2yYW7ACJjsQgAAEINAxAUSUjhGWOgAElFIXP5mHAAQgAAEIQAACEIAABCAAgbwSEPFkwoQJQfIRTwIUnEAAAhCAAASqCCCiVOHgogUCCCgtwMIpBCAAAQhAAAIQgAAEIAABCEAgCwQQT7JQCqQBAhCAAATyRAARJU+llZ20IqBkpyxICQQgAAEIQAACEIAABCAAAQhAoCkBOwEkjmfPnu0GBgaa+sMBBCAAAQhAoOwE6EPLXgNazz8CSuvM8AEBCEAAAhCAAAQgAAEIQAACEOgJASZ+eoKdSCEAAQhAoEAE6EsLVJhdyAoCShcgEwUEIAABCEAAAhCAAAQgAAEIQKBTAnbCZ5dddnFTp05l5UmnUPEPAQhAAAKlJGD7VAHAas5SVoNYmUZAiYUJRxCAAAQgAAEIQAACEIAABCAAgd4RGDt2rBseHvYTIOLJ0NBQ7xJDzBCAAAQgAIECEEBEKUAhdiELCChdgEwUEIAABCAAAQhAAAIQgAAEIACBdglY8eT44493g4OD7QaFPwhAAAIQgAAEDAErovADBQOG04AAAkqAghMIQAACEIAABCAAAQhAAAIQgEC2CCCeZKs8SA0EIAABCBSPACJK8co0yRwhoCRJk7AgAAEIQAACEIAABCAAAQhAAAIJEUA8SQgkwUAAAhCAAASaEEBEaQKoxLcRUEpc+GQdAhCAAAQgAAEIQAACEIAABLJJwE7k8NmubJYRqWqdwJw5c3xPCxYscAsXLvTPdW+f1kPDR68IyGeO+vr6/Oj7+/vdwMBAr5JCvBBIlIDte/mcV6Jocx0YAkqui4/EQwACEIAABCAAAQhAAAIQgEDRCNgJHMSTopVuefNj63V5KRQz57RTxSzXsubKtlXU7bLWgup8I6BU8+AKAhCAAAQgAAEIQAACEIAABCDQMwJM3PQMPRGnREBWnUybNs3ZlSbyy24xuoohpagJNkUCsoLIlqlExWRzisAJuqsE6Iu7ijvzkSGgZL6ISCAEIAABCEAAAhCAAAQgAAEIlIEAEzZlKOVy5dHWacm5CCdTp07lk08FqgbhMkZEKVDhljwr7ENW8gpgso+AYmBwCgEIQAACEIAABCAAAQhAAAIQ6AUBOwnJBGQvSoA4kyZg67SEPXv2bISTpCFnKDxb3uwdkaGCISkdEUBE6QhfYTwjoBSmKMkIBCAAAQhAAAIQgAAEIAABCOSRABOPeSw10tyMwIgRIwInlUolOOekuARsW4ZgVtxyLlvOEFHKVuK1+UVAqWWCDQQgAAEIQAACEIAABCAAAQhAoCsE7IQjv9ruCnIi6QIBW69ZUdUF4BmKQiebac8yVCgkpSMCso/ThAkTgjAQBwMUpTlBQClNUZNRCEAAAhCAAAQgAAEIQAACEMgSATvJ3KvJRpkYascMDAy04w0/JSBg6zXiSQkKPJRFO9lM+YfgcJlbArZeSyYQUXJblG0lHAGlLWx4ggAEIAABCEAAAhCAAAQgAAEItE/ATjJ3Kp5YEWTBggV+ohYuXBgkbnh4ODhP+0TyEjZ9fX2BVX9/v3+OABMgKdyJrdt8uqtwxRsrQ9SBWJhwlDMCiCg5K7AEk4uAkiBMgoIABCAAAQhAAAIQgAAEIAABCDQjYCcX44gnKpCIONIrYaRZnjq5r6ILQksnFLPjVz/hxOqD7JRJt1NiJ5r5pX636RNfmgRs3ZZ4EInTpJ2dsBFQslMWpAQCEIAABCAAAQhAAAIQgAAECk7AiieS1fDki4ol06ZN80m0s3pEBQkJwIoScq0rQOS8mQmvEtG0WX+64sXaybkVeuS6nXyIPzWaJ82P5COcPnXLsbcEdPN4BJTelkOvY9d6gIDS65Ig/qQJ2H48zo8gko6f8LpPAAGl+8yJEQIQgAAEIAABCEAAAhCAAARKSMBOukj2ZYJZhIBWxBIVEsS/iAlWEMmLoKBCjBVfVHBpR2gRJggrUiOyYZg4z0Y59DoVrETqdQkQf5oEbH+OWJwm6WyEjYCSjXIgFRCAAAQgAAEIQAACEIAABCBQYALhz340y6oKJSqS5EUcaZavuPeTEFmssCLxsmolLv323dl6Hl5d1X6o+MwjARVQ5DkcGhrKYxZIMwQaEkBEaYinUDcRUApVnGQGAhCAAAQgAAEIQAACEIAABLJAQCaS464sUbFk6tSpftLLJpa0U17CN7yCJe7qFSusIKq0Q7++HwSU+mzKdgcBpWwlXs78aj2X3PO5uuLWAQSU4pYtOYMABCAAAQhAAAIQgAAEIACBLhGQiWMxIpo0mshHLEm/QKy4Ip8Ga1QeNjXyGRYxiCqWSmvnCCit8Sqya51YZgVKkUuZvNk2T2iw8q6YdQIBpZjlSq4gAAEIQAACEIAABCAAAQhAIGUCMnESd5WJJIXvpKdcIE2Cb1VYYaVKE6ARt+1kIhOJEYBKZIWAUqLCLnlWbbuHYFjMyoCAUsxyJVcQgAAEIAABCEAAAhCAAAQgkDABmSQR02iViU66yyoG+cTU9OnTfT+IJz6GzP3rRFQZHBzMXH56nSA7kYiA0uvS6G38CCi95U/s3SXAfijd5d3t2BBQuk2c+CAAAQhAAAIQgAAEIAABCEAgNwRkQrjZKhMRTWT/Ert3CZMpuSnimoRaUUUFsBpHxoJPf70NAwHlbRZlP0NAKXsNKF/+tc5LzvnRRLHKHwGlWOVJbiAAAQhAAAIQgAAEIAABCECgQwIqmtTbO8OuMrGiiUZrJ5H5nIdSyfdRRZU4e6o0qx/5JtE49bbuswKlMaui39XJZNrAopc0+bMEtN6LHZvKWzL5PkdAyXf5kXoIQAACEIAABCAAAQhAAAIQSIBAowlymQAUE15lUi/aESNGBLeYRA5QFO5EVhmJaSaqlElQQUApXDVvO0M6kYyA0jZCPOaQgG0Dqfs5LMA6SUZAqQMGawhAAAIQgAAEIAABCEAAAhAoPgGZ7Ija06RV0URJ6aShXPMJD6VSjmMjEc4SKPInv+zkIeKhLfXynWtbyCRy+cq+7Dm2n/Ck/hejNiCgFKMcyQUEIAABCEAAAhCAAAQgAAEIxCRQTzQR7zLZEXelSTg6O2mCeBKmU77rMgoqCCjlq+f1coyAUo8M9mUgwHigWKWMgFKs8iQ3EIAABCAAAQhAAAIQgAAEIFCHQD3hpBPRRKNiskRJcKxHoFVBZXBwsF5QmbVHQMls0XQ9YQgoXUdOhBkjoM+AJIv9UDJWOC0mBwGlRWA4hwAEIAABCEAAAhCAAAQgAIH8EKgnmkgOkhBOJBwrnvC5DiGCiUNA6o2YZnuo6Ce/8iCoIKDEKflyuNHJY9rEcpQ3uYwmYPdEQ0SJZpQHWwSUPJQSaYQABHpGwP5KTBIxPDzcs7QQcXsEZMDe19fne+7v73cDAwPtBYQvCEAAAhCAAARyQ0DHcNOnT69Jc1KiiQ3YTpCw74Mlw3krBOIIKlkXUxBQWinxYrtFQCl2+ZK7eARsm4iYGI9ZFl0hoGSxVEgTBCDQcwK2k+t5YkhAogTSmDRJNIEEBgEIQAACEIBA2wRkDFdvQ3j5QUUaP6bQSUJJNL8ubbvo8BhBQAWVKCFQnOsPhdKo1xHJiWVl36MQE2MhK6wjbRuZNC5sEZOxmATsKlX2R4sJLWPOEFAyViAkBwIQ6D0BHejZlOjLibXjPD8Eoj6LwMAlP+VHSiEAAQhAAALNCDQSTtrdEL5ZnHKfSZE4lHCTBAGp4wsWLGj4ua8srE5BQEmitIsRhr5XI6AUozzJRWcE9HmQUPixRWcse+EbAaUX1IkTAhDIJAE72JcEykAvzRfuTEIoeKLsJAdlXPDCJnsQgAAEIFAKAr0STgSuHVfww4xSVLdMZVLqn5isrU6x71SsQMlUlel6YnTCGAGl6+iJMKME9HOfPBMZLaAGyUJAaQCHWxCAQLkIaGcmueYluNhlbyc8GLwUu6zJHQQgAAEIFJNAL4UTIcpYopj1Kq+5kudBVqfUE1MkX91anYKAktdalHy6EVCSZ0qI+SZg20fmnPJVlggo+SovUgsBCKREwL4Es5wyJcgZC9aWOYOXjBUOyYEABCAAAQjUIVBPOOlmX24nQCSZ/Mq+TmFh3TMCMs4VU09QSVNMsc9HkZ+NN99407340os+5/e+971u5MiR/jn/3iaAgPI2C84goAT0uZBr5p6USvaPCCjZLyNSCAEIpEyAifSUAWc4eAYvGS4ckgYBCEAAAhAwBLIgnGhyGD8oCY55INBMTJHV2H19fW5wcDCR7LQqoHzyk5/0JxE1ctm7cNddd9XLukf79YA1a9Z0XcAQXieeeKKfvuuuvc7t92/71U1rN27cf//97mMf+1gQ1T777OOkLNo1v/rVr9yTTz7ptt56azdu3Li2gtG2khX/beHDU4EJaPvFs5GfQkZAyU9ZkVIIQCAlAnReKYHNSbCUf04KimRCAAIQgEApCWRJOJEC4Ic3payGhcm0PE+NNqJPQkxpVUDZe++93fz58wPGMmG/dMlS98613hnYRZ3oGF7u9UJAOeOMM9w3vvENP2nXXHON23///aOS2TU7EXPCItjKlSvdpptu2nIaVq9e7TbccEPf36GHHuouuuiilsMQDwgobWHDUwkIMJbIXyEjoOSvzEgxBCCQIAHbcbF8MkGwOQrKvuRRB3JUcCQVAhCAAAQKTSBrwonAtuPGbn4yrNAFTeZ6SkDqtKz4GB4erklHu2KKHVvH+YRXWECRhJx22mnum9/8Zk2arAUCyts01ry5xm0+anO3YsWKty29sxkzZrhjjjmmyi7OxVlnnRXsmYOAEocYbiDQOgEVGMUn8xCt8+u2DwSUbhMnPghAIFME9EWYpZOZKpauJ0ZfwBi4dB09EUIAAhCAAARqCNhJBbkp47SpU6e6gYGBGrfdtNDxAuPGblInrm4RSEpMSUJAkTwvX77cbbHFFnWzr8+jOCj7ChR5h5FPoYXN9ttv75YsWRK2rnv9l7/8xf385z93RxxxROAGASVAwQkEEiVg20rGFYmiTSUwBJRUsBIoBCCQFwL6gs6vCPNSYumkk3qQDldChQAEIAABCLRCQH/YYv1k5ccNNm1ZSZPlxDkEkiTQiZhiJwXbXYEieRm/93g3d97cutlCQHkbzaRJk9zVV1/tWxx11FHu3HPPDW7ed999bsyYMcF1+OSpp57yV6k8+OCDbvHixeHbDgGlBgkWEEiMgB1bMCeVGNZUAkJASQUrgUIAAnkhoANvOqu8lFg66VQBhV9+pMOXUCEAAQhAAAKNCMiE67Rp06o+I5SlsRkTHI1Kj3tFJyD1X8z06dNrsipj5/AG9J0IKOHJ/8suvcx97qDP1cQrFvoeJ+f1VqDIJuiyGbqswli2bJk4ddtss43bbrvt3MEHH+zWWWcd367eP/F/2223ud/97nfu+eefdx//+MfdHnvs4bbaaisXZw8UEZBu+e0tbtHiRe6OO+7wo9lxxx3d7rvv7rbfbnv3jne+o17Use2fe+45t9FGGwXuRRDZd9993aJFi3w72RtF0lrPhDefD7tDQAkT4RoCyRLQuQgJlR9oJMs2ydAQUJKkSVgQgEDuCOjAm44qd0WXaILtxEicX8olGjmBQQACEIAABEpMwE4cCAaZkM3C57q0SOxkcJZEHU0fRwh0k0AcMaW/v99NmDDBT1accbXdA+XGG290P/vZz9zll1/u+99kk02crIzYYIMNarKp73FyI0pAmTdvni+SiKAQZUaPHu1+/OMfu9122y3qtr+iQ1Z2RBnJo7Rdp59+un87ahP5p59+2h100EFu/vz5UUH4q0Kuv/76hp8pi/QYsvz+978ffHJLhBMJU/Y++frXv+67HDVqlHvkkUeqBCcbxIonVriDv3iwtXKPPvqoe/jhh307BJQqNFxAIHECdpzBDzoTx5tYgAgoiaEkIAhAII8EdOCNgJLH0ksuzQgoybEkJAhAAAIQgEAcArbvVfdZHI9ZgSfOZLDmhSMEik6gkZiieY/zzIQFFFmhIeLG6tWr/WCmTJniLrjgAg0yOOp7nFiEBZQLL7zQfeUrXwncyol8xkrCDG+0PnfuXDd+/Pgqt1aUqLpR5yIsoMiqjr322qsqLhWBNF8SlAhEs2bNcrvuumudkJtb77TTTsGnt6644gr3mc98xv3pT39yH/7whwPPC36zwO3Zv2dw3ezke+d9z33tqK/5zhBQmtHiPgQ6J2DHRFkcC3WewwKE4HVoGAhAAAKlJeA14xX58zqp0jIg45WK94tSvx5IXcBAAAIQgAAEIJAeARlzeb+wDPpd6XulH86iseODrKYxi9xIU/kIyPNhnxd9x4pDwhMagvbAW4Hie5k5c2ZgJ2HdfvvtNUFpHHL0BJTg/jOrnql4YkXg/7Of/WzFEy2C+97KioonOgT3vY3qKy+//HJwf+XKlcE9CXvcuHGVpUuXVt58482Kt6qk4q2Qq7ovbjwBJfAvJ94KlcCNJ9xUvM9p+fclnXfeeWfF29w9uL/ZZptVpb8qoCYX99x9TxCO5PmVV14JfHiiTHDPE0EC+zgn5517Xtt+bfja1ssRAwEINCagz4u0KZjsEaBUslcmpAgCEOgiAemc5A8BpYvQMxiVfeHLYPJIEgQgAAEIQKAQBOzkgIy/5DqrYzBJl44TEU8KUf3IRJcItDqujhJQJKneXiPBM7j11ltX3nj9jaoc6PMpRyugHHPMMYG/ffbZp+qeBvDss89WRNjQMLxPcemtKiFIRIhwvOLwf/7nfwK/EoYVUORcwxVx5IUXXgjC1hNv35KKt8omcKfCkd6PezzuuOOCMA477LAqb+eff35wLyyuVDmMuEBAiYCCFQRSJmDHHYiOKcNuI3gElDag4QUCECgOAR3cZvXlvTiks52TVl/0sp0bUgcBCEAAAhDIFgHbz+Zl7GXFnmzRJDUQyB4BeZeSP3luWn126gkoDzzwQCAASLtx5plnVmVc2xI5WgHF+yxW4O+3v/1tlR978d3vfjdwd8ABB/i33nrrrarVKzffdLP1Epy/9tprFW9vkcC/FVBEtNG0/fSnPw38hE++853vBO4mT54cvt30WoSdRnn19n4Jwpf0ePvKNA1THSQtoEj8Ui+kL5A/DAQgEE3AjpeYo4pm1CtbBJRekSdeCEAgEwR0cEvnlIni6Fki7EClZ4kgYghAAAIQgEDBCOiEqo635JiHyTM7LshDegtWbchOTgjo820FE/usy3kcU09AEb+nnXZalQjgbYYeBGnjUgHl+eefD9yLwNHIyKoPDUNWo4h5/PHHAztZPdLIHH744YFbK6DIJ8E0XPn0l6x2ifoTfupOVti0aq679rrAv+RVxJ+wsWy9DebDt+tepyGgaF71qIIK7+F1i4EbJSWgbaocMdkhwCbyXuuNgQAEyktANx/0Bm5uYGCgvCBKnnO7aZvXRZecBtmHAAQgAAEIdE7A9q0SmjcR4Ly9AzI/3rLp9sQTNzg42DkMQoBAAQjMmTPHTZs2zc/J8PBwZI7kORej9+OMq8ObyE+YMCEI29t3xG2/w/bu3nvv9e3knid8+Of6HicXnoDiRo4c6W+mLpuqi/E+AeZuuukm/zzqn7dCw2266abBLQlj4S0L3R577uHbeXufuNtuuy24Hz7xVrC4U045xbf2BBS3//77O29liltnnXXCTptee2KNe+KJJ5q6sw4mHjjRzfrlrMDK21clONcTb78XZzetlzxvvPHGervuMelN5CUiqRtaL6IilvZWDG1uFB3sykRA2lptB5mnyk7JI6BkpyxICQQg0AMCOvCmY+oB/AxFaSdL4rzoZSjpJAUCEIAABCCQKQI6yWonyvI0ztKxoUBlTJCpqkViukxAnmUxIprY59kmQwUTK47ayb84z1AjAUXiGhoaciJmqLnyyivdpEmTnH1WVUD55S9/6Q488EDfqbd5vPM+W6Xeao4izqy19lqBvYRxySWXuEMOOcS38z7F5ZRB4MicnHfuue6oo4/2bVRAWf5/y90/jP4H4yreqfcpLvfkk0/Gc+y5WrVqVSwhJBzgOeec447+W5rD9+x10gKK1BMpRzHCdMGCBW7hwoV165W4Q1ARCpiyEhg7dqz/fNhnp6wsspJvBJSslATpgAAEekJAB955erHvCaiCR4qAUvACJnsQgAAEINAVAnbiVCLM24u/HQ+w+qQrVYZIMkRAxYJGgokkV55rEUzERK3gt+1AEgKKxHPkkUc6b1N0OXWyWuP+++933sbo/rX8UwFFJuV322033977fJX79a9/HbgJn3if63Lep698a++zW2758uVu7ty5QZ6arUD5xje+4c444wzfvwooL734knvP+u8JorrhhhvcO97xjuC63sl6663nvA3r692usbfijXD4yEc+UuNGLZ5++mm3YsUK/3LHHXd0ixYt0lt1j2kKKOFIpd0V00hQkTrX19fn+vv7g/IJh8M1BIpEwLajzFVlpGS9Dg0DAQhAoLQEvKa4In9ep1RaBmS84n+PXesCPCAAAQhAAAIQaJ2AJzj4YyrtT+U6T8amP29pzxNn0potAvIO5E1OV238rs+wHuW+uIv7viTu1G+c3Np9OmRfkijzwgsvVGRPEg33iCOOCM7FzhNQfG8rV64M7JvtgTJr1qzA7fi9x/v+vU9eBXayQXvUviKaPm8VTODW7oFi0/noo4+q85qjhC17tsjfK6+8UnO/kYX3ua4g7unTpzdyWrnlllsCt8LKE58aupebSe+BInUorpH217bHWub2qG7ihok7COSRgDw3Uu9beX7ymM+8pDnerl55yQ3phAAEINAiAR2IxX0haDF4nOeEgB2k5yTJJBMCEIAABCCQCQIyhtKXfH3Rz+O4SseEcsRAoKgE5NmUca99Zm3d12dY7rf7HIs/DTMOxzgCioRjBQ8NX48qoIg7b0VGEP/NN90sVpFm4sSJgTthIkbC0TDleP3110f69fYSqXJnBRRv75Xg3owZMyL9i+UPfvCDwN2hhx5a1134xt133R34kzT++c9/Djupuhahxoo63sqZqvtRF70UUGx6tL7adzVbPnou97UMrX/OIZBnArYtbbc9znP+s5Z2RodZKxHSAwEIdJWADrrokLqKPXOR2UF55hJHgiAAAQhAAAIZJWD7TxlT5XUCy+Yjr3nIaBUhWRkgIO858tdMNFF3nSZZwtF3rDhhxRVQJKwDDjggCFvjkKMVUKZMmRK48T6LVXnppZdqkrHgNwsCN+Lf+5xX4CxMzxMAAEAASURBVEbEDA3b++RVxduEPbinJzYOcWsFlB//+MeBfxEuvE9oqbfgKAKMrHDReOoJNYEHc3LMMccE/oRdHOPtexL4kZU5jVbWSHhZEVDCeZO6JW10o7os92nHw+S4zisBretyxPSWAAJKb/kTOwQg0GMCOmiVwRimvARkkK11obwUyDkEIAABCEAgPgF9qdf+M69jKTsGYNItfvnjMvsE5JkMP6f6vIq93E/juZUwNZ44lFoRUJ740xNVK0w0HiugeJuxV7nZaaedKvPmzas8s+oZ//NVF1xwQdV9EUOs8fYLCdIv4W+77bYVb3P6ymOPPVbxNkKveJvTV90XN1ZAEXFC4tS0iWAhq2dEpHnkkUcqF198cZV4ImXhbWhvk1D3/I3X36jyK2HFMbfffnuQHknXb3/724besiqghBMtbbZtw5W5HuVeGnU8nA6uIZAWAdueUpfTohwvXASUeJxwBQEIFJSADq7ojApawDGzZQfeMb3gDAIQgAAEIFBKAvZlXsZROhGbVxg6FpR8YCCQdwLyfEpd1nptj916Vm0bEYdnKwKKhOdtJl+TPyugiJuZM2fWuLEs9FxWqEStELnwwgub+pd9UzQcK6BI/HfeeWeV0KHuwkdZhSLCTFwj8dgwXvzLi7G8iqgjQo76Peywwxr6y4uAYjMh9c6+02le5Sh1X+5hIJBHAtqmyxHTOwIjJGqvQcFAAAIQKCWBESNG+Pn2BlxuYGCglAzItHMnnHCC8zZg9FHQLVIjIAABCEAAAtEEbH8pLrwJKTc4OBjtOAe2Nj+MBXNQYCQxksCcOXPctGnT3PDwcM19b8LNTZ061bfv1ruOpGfChAl+nHHG1ZKuuXPn+u7lOH78+Jp8WAsJc9y4cVX59QQUN3LkSOvMLVq0yE2ePNl5G8NX2evFUUcd5c4+62z3zrXeqVZVx5sW3OQmf26y8z63VWUvFxdddJHb+AMbu3/71L/592644Qb3yU9+ssrdqlWrnPc5MOd9nqvKXi68fVrcf/7nf7rjjzverfee9Wru17P44he/6H7+85/7tw866CB36aWX1nNaYy/t9VlnneXbe8KN81bq1LhRi+9///vuiCOO8C8PP/xw5wlKequl49ixY/1yknrord5pyW8njqVtF6PvdzYsSUtfX1+u+y6bnyTP5dlVs2DBAj0Njv39/f55t9qSIOKSn9g2Ne/jrjwXJQJKnkuPtEMAAh0TQEDpGGEhArATKHFe9AqRaTIBAQhAAAIQiEkgPEGrk7J5nkSxfT8TEjErAs4yQ0CfSUlQWDjRCWKZ7OzFM2on+3o9rvY+jeXuXXavW7p0qXvggQfc5ptv7rxPcrltttnGrb/++k3L89VXX/WFGJ38F0HA+zyXW2eddZr6VQePPvqoW7x4sbv77rt9fx/60Id8seUDH/iAOinssVcCigXaSEyRtl9Mnn8IYPPayrm2IeH2o5UwxG2ZGbbKqhP3+ixJGL1uVzvJR579IqDkufRIOwQg0DEBBJSOERYiADuJwoCkEEVKJiAAAQhAICECto+UILv9S+KEslETjI4Bi5KfmgxiUTgCMuEpvwpfuHBhjWgimc2KsJklAaVwlSBnGdJJ36y0s9Kf1Xt+ii4EyHMppt5qtaiqJeUmJq7IIu5ldU+vxNuoPBTFzrar/OijN6WKgNIb7sQKAQhkhIC+PJf5sw0iGKxevdovkXXXXde9613vykjpdC8ZdnIIAaV73IkJAhCAAATSJyAv3e3+Ct32j5LSory023wVJU/p1yRi6AWBZpOeWRFNLBs70ce42pIp33nWBBRbArYfsPZyLv1CUUQAyWc90UgFEv3Mn3JoNGbQNkk/8VUvbOVYxtU9yjHpoz5PEi5ta9J0m4eHgNKcES4gAIECE0hSQJHv3ooQo0YGE97GhHpZ96hpEAdR3++t6zGhG/J94J133tkP7dhjj3Vnn312QiG3F8yaN9e4zUdt7lasWOEHIN8Ilm/0pins2AE0g5H2yg1fEIAABCCQTQIyzminb7Mv6lmcpO2Eto69EE86oYjfNAnIJGW9X4pn/XlEQEmzZuQrbO1HpM7qZ9CylgOpryIGRO2XImnNaz9Rrw3R9kPy1kgokfutGHmfFhPFMa8MW8l/N9zathWm3SBeHQcCSjUPriAAgZIR0BfoJFag7L333m7+/PkBwa233totXbK07saE6lDTINe9EFBkSa4MbsUcc8wxbsaMGf55r/5JWYQ3YbzqqqvcxIkTU0sSAkpqaAkYAhCAAAR6SED7t1bHOTrpJUnP8sRXO2iVifhtR1hqJ078QCAugWaTnklOeMZNU6vu7CQfz1ir9IrlXvuSvPQjzUSAPKxKiWpDVDTpVvtRjyOT/p0/3/pMSUi0r53zbCkEDzgGAhCAQGkJSL8jf97EQscM9tprLz8sDVOOp512WtNwrXtPQGnqPmkH3q+BgnR7AkrSwbcc3qRJk4L0KJtPfepTLYfTigdvMBfE2Yo/3EIAAhCAAASyTED7UW/yJFYyZTykfuQo/WORjO3vi5a3IpVT2fIiz508o/bZk3Oxk3tJvKd0k6ltR7oZL3Flj4DW67h9UJZyIH2E7TP0+VT7LKVV0hLVjmgb0qu0SprqMexVmvIer21f5RzTPQKsQPFaQQwEIFBeArr6w+t8Ol7CGl6BolSXL1/utthiC72sOWoa5EbZV6A899xzbqONNqphJBbPrHrGbfT+6HuRHlqw5NeoLcDCKQQgAAEI5IKA/RW4JNh7xWyYbtsXikNv0sMV7dvldszVjEdDWNzsmIDUzyjTrV9IR8XdbbuoX4pLGrxJTyd7EuSVhW17eM66XauyFZ/+Wl7qdFY/4RWHWLh/VD9Z6SfD6ctaGyLpE2M/75UVdlqWeToW5bnKE3M/rd3TaogJAhCAQPYIeA2h/2uvJNT7qBUoEv74vcc3zLimQY5lX4Fy/vnnB7++O+CAAyqjRo0KruVeWsb+MiatOAgXAhCAAAQg0E0Ctm+TMUajsU4rbruZhyTjsnmUc0x3CEi9k19B658d9zY7Vz9SXkUqM2USzr/kt9Fz2p0S6zwWyYPmrfPQCCHPBKROS12QYxGM7Ue0jsuxl+1TOE29TEuzMs5TWpvlpZf3bRtbhD6jlyxbiZsVKF5rh4EABMpLQH+J6HU8Hf/Ky65AOeqoo9y5554bgL3s0svc5w76XHBtTzQNYldvBcrrr7/uZl09yy1ZusQtWbLEvfrqq27LLbd022yzjZs8ebL70Ic+ZIOsOX/pxZfc8O+G/V/+PPzww+6jH/2o23PPPd0O2+/gFi1eFGsPlHvvudfdPnS7u+OOO9xTTz3lZI+X3Xff3Y0bN869+93vromzHYuddtrJLV682Pc6a9Ys97vf/S749as38E7tl0v2VzteJ9pO0vEDAQhAAAIQyBQBO76QhHkTF0GfahNq+0CxT2JMZMPPyrnyqMchK+nMezp0ZUm9DdA7zZ+MB/v6+iLrcqdhp+m/0WqTPOanEStWoDSiU657Rf2lfNSKCilZ6V/EdGv1pvKVOKVtzMvKNTvuSPMdX7gU1eiYBn5dLOFW1BbcQgACECgaAa+59X8Vk4Ryb1eg3HjjjRVP2Ah+fbXJJptUnn/++Uh8mgY5Rq1A8T4BVtl+++2DsKx7Od9ggw0qF1xwQeWtt96KDP++++6rWslh/csKj5/+9KdB2FF7oLzx+huVr3/964Eb61/jT4LfsmXLgjgkT6+99lrFE4sCO4nroQcfjMxjp5b21zCdhoV/CEAAAhCAQK8J2H5N+23vJbsmWWLX6H6Nh5xaWB5JjFlyiiHVZAtjW5+0XslR7OVP3MiflIH+2USpnbrTow0rfC5usmwkT1FcxE7uFdFIvrScipg/8hSfgNZ9ORbVSBuk9d0e02ybwu1KmnGlVW5hbkVtD9Pip8+W1DlMdwhAujuciQUCEMgoAR3kJNFhhwUUb5WGL25oHFOmTImkoPflGBZQvNUYVWGIGxE9Ro8eXTNQO/nkk2vClw3iRYywcTQ6DwsoL7/8cuRLnwhC4XC+d973auJvxeK4444LwvzqV78aeLV5/fa3vx3YJ3liB3BJhktYEIAABCAAgV4QsP2a7a81LUWYfNG8NDtKXpVBHieZmuWv1/fr1TUVCJIYY0seJRyJy04aabnKMWtlG37GNK3Kpdfllmb89plLMx7Czj4BfV7lWHRTry1Mum2yz1cW275WyjnMLGlWraQlb25tPZBzTPoEEFDSZ0wMEIBAhgnoy0wSnU5YQJFsz5w5M3hpl7huv/32GhqaBjmGBZTddtst8O99MqvifX4r8P/0009XRGiw/u+5+57gvpxsu+22wf3NNtuscsMNN1REFHnppZcql19+eY24EhZQvM8vBP5FiBE/siJFzKOPPlo55JBDgvuSjvvvv9+/1+q/N994s2JFGcvpW9/6VhDHFlts0WrQsdzbwVssDziCAAQgAAEIZJiAHRvYcxnv2JduuVf0CQv6+HQqargeSV3qpjgg5WrLVut5r+tzVJr0OUvifSOd0kw2VFs3kg2Z0PJGoEwCipZNo7ap0/bJPlvarmi8eT0WMU/dKosyPl/dYhsVDwJKFBXsIACB0hDQl60kXmiiBBQBucceewQCgIggKkAoZE2DHK2Acs011wT+RPwQwSRs5LNdn/3sZwN3dsN6EUs0bBE/VqxYEfZe84ksK6CIe7t6ZdGiRTX+w/F73zOtcRPH4vrrrw/SGhZJ5BNkmg853nrrrXGCbMmNfdltySOOIQABCEAAAhkjYPs0239GnXc6mZOxrNckx7Ioel5rMp+ShYyZddJG61Q3hZOobNly1jR1u7yj0tBrLlGsumFnJ0S7ER9xZJeAthVyLJuR5yCqXRC7dtsnbd/kmMT8RZbKROtKEfOWFmfb1hatPqTFrJNwEVA6oYdfCEAgdwSkY5E/6aCT7qTrCSgPPPBAlQBw5plnVnGzAyEroBz46QMDf6eeemqVH3shgoKGIYKHmn333Tew9zaUU+ua46RJkwJ3VkA544wzAvtDDz20xp9aLFy4MHAnQk87plleRXjSPH7lK19pJ4qGfuzgVupFJwPbhhFxEwIQgAAEIJAyAe0vmx3L8LJtGaSMvRTB27GzsJXrrNQjHbvZMm93krKVwrRjSI07S1xayUtSbqVOKIukwiScfBLQNkOOZTZR7USr7ZOylGerVb95YG/bDckjJh4BbWvL/ozFo9WZK2plZ/zwDQEI5ICAdMbSodhBh3Y0ekzi5a+egCKITjvttOBFQuJ85JFHAnKaBjlaAcV+fks2kq9nXvzLi1Vhy94rYmQlh4bdyP8ll1wSuLMCiogm6v+cc86pPPvss5F/Ep+6k6O4a8U8s+qZKv+WjYZj+YlIJBvMJ2miBrWaJ6k3cj+JOpJkmgkLAhCAAAQgECbQqD/Tfk2O2reF/Rfp2rKQc0z7BHQsrXVI6k9Wx0W23LWut5/z+j7D8WhcWeVSPyfJ3xEGWlfgkTzfPIWo79+0wX8ttah2Iw4b6y+O+zzVEZtW23ZI3cE0J6DPGLyas+rUBQJKpwTxDwEIZI6AdLwysNDORAfw9ij37P0kBveNBBT5bJddRTFhwoSAm02XFVDs57OsfeDRnIwZMyZ4UZEVIRKfDTf82TDjtWJXkFgBZdy4cVVh2PAanT/04IM2+Kbn5517XlU822+/fSX8Z/dHkbhnzZrVNNxWHIQHpY3yJ27lL4k600oacQsBCEAAAhBoRsD2Z436MnuvqH2a5lHyh2mfgJ3QEqZ54Rl+FpIat0k49h1CmMh1UuG3X1LZ8qnPH1yyVS7dTo3Wg7y0G93iE26fGrWt1m0ZOJYtv53WOWlj9Tmjve2UZmP/CCiN+XAXAhDIAQHpKOQv/DKjHYkc5V7Uy426SaKzaSSgCEbZGF3jk+OVV17p07V2KpTIKg61F/GgmbFixy233FJ5/PHHA/8STiMjG89rXFZAkc9xqX0rx/BG9o3ilnsilrQSvrg94IADmgXb0n07ULMexd7ei0qnurH+OIcABCAAAQj0gkBUPxXXTsZJ0qcVwdi+uwj56VUeLEepR3mrH0mmP+pdI+rdoldllbV4hY3UGTliyklAnhntf5J41y4ixXAbFW5n7f28tb+dlFdZ890uM9rbdsm15m+EOPceUgwEIACBXBGYM2eOmzZtmp/m4eHhyLR7HYnz9v7w7w0MDES6GTFihG/vDepcPTeRHiMs9957bzd//nz/zo033ui8VSY1ro488kh3/vnn+/aeQOHuv/9+5600Cdx5AoobOXKkW/PmGvfOtd4Z2HubtTtNa2BpTrbcckv38MMP+zZP/OkJt9H7N3Lrrrtu4MJbgVIVXnDDO5k3b57bZ599fCtPQHEzZszwz3faaSe3ePFi/9zbg8UJzzhmzz33dGuvvXYcp84TW9w2224TuPU+Wxach09efvll99BDDwXWnsjk3ve+9wXXnZyccMIJbvr06X4Q9bpFqXMLFixw3ood16jO9fX1+eEMDg52kiT8QgACEIAABFoiYPuyljxGOPYmL3zbPPZlloPkI495iCiSrltZjhJ5EmPlrmfCizCcj1brhL5z2LGfvmN0+u7QCx7dinPs2LH+eFlYDQ0NdSta4skQAfvs1Xu/ylBye5oUy0oTIm2Vvp+W8TnSNkR45LX/0bJM+2jrD89airQ9uBgIQAACmScgv1rxBhFtrTJplDmvefV/GSPhd2qarUCR8F944YWKXdlxxBFHBL/MkbToChRxO3r06ODeY489JlaR5umnnw7cSRie2OK7GzVqVGB/3333RfoVS0/QCdzZFSiTJ08O7C+66KK6/uWG5Ov555+vyH4srZhjjz02iEM2vW9kPAGlYj9r9oMf/KCR85buSd3SuhDXo/ix/tS/PXqDXd9NEvUrbrpwBwEIQAAC5SQgfY7tgzo5l7Ck78pj/2U5lLMmdJ5rO77RutB5qL0LQeqxrReSv2Ym7EeepyKwaJbvpO4LP22D4vBOKl7CyQ4Byr/1srBtr/KTYx774tZzX+tDGUjbi6lPwLa3Za0r9ekkd6fxd12Si4eQIAABCLREQBp++bMvO9qB6lHudfoio2El0dHEEVAEguzfofGGj1ZAEUFB73sraeryswLIjjvuGLjr7+8P/B933HGBffhE/Gg8VkCRONX+U5/6VNhbcL1s2bLAnWxcH9fIvix2b5MrrriiqVcr6shny5IydrDabpgShg1H2dmjumk3DvxBAAIQgAAE6hGw/U2r50mMqeqlq5v2th+Wc0zrBCxDqRdFMjZv9epH1PtHp+8bRWLYSl6Em7ZFSbxrtRI3bntLwD5rvU1JPmO3/Oq1VfnMWWupthxoQxqz0/a2aP1241x39y4CSnd5ExsEINCEQNRLiw685agvMEl1oBp2EuHFFVAEgezhoXHboxVQfvGLXwRuRGhYvnx5DT3vc10Vu9Lk8ssvD9xcfPHFgX9ZuSFCR9hccsklgRtJhxVQZNWKTdutt94a9u5vVj9+7/GBu0ZCTdjzNddcE/iT9L3yyithJzXX1o+kzftsWY2bdizs4Kwd/2E/Up8kTB3IWI56LvflDwMBCEAAAhDolIDtx7SfaXZMekzVaR6S8K95pn9tj6atR0WdhLFjMzv+l3N7T+qSPiPt0cSXENBnsqj1iVKuJWDbEdriWj5xbCzDOO6L7EbbZdqQxqUsfZi2t7Zva+yLu60QQEBphRZuIQCBVAhEvbBo4y8dpQwg0uoENJ4kwm9FQBHhw36OStNhBRT5FJe3D0nQEYqIctmll1Xkc14rVqyoXHXVVZUxY8YE9+U87N+uLpH4Zs6cWfH2XamIOOLtIRP41fitgCKFLYKI3pPjOeec4/tfuXJlZe7cuZVw+LJ5fVxjRaRDDz00lrdXX321ipu3N0ssf80cpT1IlfDlTweAlqmc6/1m6eQ+BCAAAQhAIIpAuF+JupY+SP6SGPNEpaHXdrYvl3NMawSkXth605rvfLm2+aw3Pivqc9LtkrL1qsjtT7e5ZjU+2uHOSwaG1QxtG0K7XM0mfKV9G5zCZJK5RkBJhiOhQAACLRKQRr3eZLIOrrvR8CfZybQioAgu++ktTYcVQMSNt4l71Weu1F34KPuqiNuwWbRoUVP/9lNhYQFF9jSxIkk4Xnt93bXXhaOvex3et2XBbxbUdRu+cfDBBwcv+K18Miwcjr22A1Vrn8a51Gsbn2Uo53KvG3U/jbwRJgQgAAEIdJ9Aoz6lm2Oq7ue8OkbtT4UHpnUCyk+ORR+HSP5sfu059af1utPMR7iNgnEzYvm7L8+UfbeXc0x7BOzz0l4IxfOldYt61bhs4dSYT6d3R0gA3oABAwEIQCB1AnPmzHHeqgc/nuHh4ar4vMbev/b23XADAwNV99K8GDFihB+8N+jrOF5Jt7cqww9PjuPHj2+YdGl+vX08nGXhCShu5MiRVf6efPJJ94UvfMHNnz+/yl4v9thjD3fllVe6jTfeWK2qjt6qEHfggQc6T2CpspeLKVOmuMHBQbfhhhv697wBm39tHb75xptu6qlT3X/9139Z6+B8t912c6dOPdXt2b9nYNfsxNuU3h122GG+M+8TZO6RRx5xWhbN/N5www1uv/32C5zdc/c9but/3jq4bufkhBNOcNOnT/e9drNblGdiwYIFQdzhtEeVR9gN1xCAAASyTkDaOkx6BKL6Eek/vL3QOoq0m+OxjhLqee5VP95purPif+zYscF4tCxjD1tnpBzKku9e1bkwb0mHvP/19fX5Seq0vepVvsocr/Q9Cxcu9BHY91mepfZrhX1O4Pg2RxlHTpgwwbdIYt7m7ZCLdWbrTzfnNIpFsX5uEFDqs+EOBCCQAAGdNBHhxA6sNGgZOHdbNNG45aiT9lnviKUDfHj5w27pnUvdXXfd5dZff3237bbbuu22285tuummNkuR597nwNw999zjhoaGnPf5Led9GsyN3WWs2+j9G0W6j7JctWqVu+OOO9zSpUud9ykt98EPftDtvPPOfjqi3OfJLguDDUmDGBVyLD99wRSxCwMBCEAg6wSk76/3g4msp530VRPQ/kdss9wH6XiOCafq8otzZcdAZeNX5rzHqRtpuLHM0wifMHtHoNfv9b3LeXIx2+eDCfBqrir0Sz2TOQ1MLQGEplomSdogoCRJk7AgAIGAgE6eZFE0CRLpnegLd9YFFJtmzpMnkLXBqqRHTJSYIpMbYrI8keUnkH8QgEDpCDTq+0sHo6AZzuIEe9b68LwVvY6Fs1i23WCpk3ISFxOW3SDunPQVsnpBTNRYtzupIJYkCKjILiuI8rRqMYm8pxFG2dvjRkytOEBbXZ8Udag+m07vIKB0ShD/EIBAQKDRxElWf5GiHQwCSlCMpTzJ8uSLpE2Wx0eJkYgppayuZBoCmSRg21FJoPT7YuTzLHyaxUeRu386wRnug7I20a5juaylKw8Fbp/bsk5I2Uk5ftncu1or5YDJFwEEk2TLy7ZF9Ge1bC0f5m5q+aiN/iiA/kyJJHdEQEmOJSFBoJQEpCPL6ue54hSIvnTTCcehVVw3eZlAaCamsCqluHWUnEEgywT0ZU3TyIu/kijO0faTmqssjJ1susoqAGh5tHPUcXDZn1nbhmWhXrdTlviBAATyTYD+rHn5aVuNOFCflRWaGBfV59TOHQSUdqjhBwIQ8JdeRwkn0pnJniZi8vCrFH1x5GWp3JU6bwNWGRhFbRospSiTIGIQU3wM/IMABFImYNtPHQPkof9PGUthgw+Xd6+/Q67juLILAO1UOFuWTLK8/VlfJubaqU34gQAEOiWg4kAv+7NXXnnFvfbaa/5nzjfYYINOs5S4f2UkAdNvReO1AgpzXNGM2rVFQGmXHP4gUFIC8rIV/pSDoMjrpIm+eNO5lLRC/y3beZ5EkLSLifqGdC8H4H9DywECECgwAfuSRntT4IIOZc32mb0cP9l0MJESKqQml5Ydz+5fYVkmvazXTYqO2xCAQEEJ6LxEL9tk+QHM3LlzfcIv/uVFt9571mtI+49//KOT9lLSfvDBB7t11lmnoftOb9pxJ+10fZpZqEv1U5ffOwgo+S07Ug6BrhGQjqrRapM8/9JUOxc64K5Vp0xGZF+a8zwJY/NhQfdyIG7TwTkEIFAsAvwSsFjl2UpuslD2Ooajj2ul5P7q1o4X8jzuaT3njX1onWIVSmNO3IUABJIlkJU2eZ/x+7h5v57nZ+6FF15w66+/fsOMnnjiicFXDx577DG3+eabN3SfxE3a6eYUdYxGX9acVSsuEFBaoYVbCJSMQJGFEy1K7YARUJRIOY9ZGbQmRV/yIya8KkUmmcTweS8fA/8gAIEOCNh2kwnsDkDm1Kv9FWgvXtCpf51VHB3/8uxWc7T1ineDajZcQQAC6RHQtqcX/anNVSsCiggsY8aMcStWrPCD6JaAgjhgSyz63I7R+JFENKN2bBFQ2qGGHwgUnEAZhBMtQn2B5CVJiZTzqINWyX2RBhnyLEftlSKD876+PoSUclZ3cg2BRAjwApsIxlwHonVAMtHtvlPHbwgArVehoo55WicR7UPrFu8G0XywhQAEkieg7XJeBJQlS5a4o48+2t16660BDASUAEXPT6yAQl+WXHEgoCTHkpAgkGsCZRJNbEHxkmRplPdcB61CoNuTQN2ibvNo42TyydLgHAIQiEtA+0/akLjEiueuVy/otj+j/rVer5RfryfqWk95d3yoMAif7vAmFghAwDltd3rdpzVagfKjH/3IXX3V1e6BBx9wIpaETbcEFO3DJP6ivreH2bZzreN0+rJ26EX7QUCJ5oItBEpDoKzCiRawdiwo80qknMcyDcQkrwsXLnTDw8NVhS0D9v7+fpfnPY2qMsQFBCCQKgHtP3v9sp9qJgm8IYFeCSjUvYbF0vQm/BojsvWaybnGrLgLAQgkQ6CbAsoDDzzgvwcuWrTIjRw50u26665uzz33dBtvvLFrJKBMmjTJXX311XUz3C0BhTa6bhFU3dA6hYBShaWjCwSUjvDhGQL5JVB24URLTl8iEVCUSDmPZRJQtIQlz2LYJ0WJcIQABOIS4OU1Lqniu9NxVLeENNtfdyvOIpWi5derse8rr7ziXnvtNSd1Z4MNNsgcXtu+9YpR5qCQIAhAIFUC3ehLRRCWTd/D736aMekf7lx6Z91N5E8//XT/09DqXo7yqWg1CChKIhtH25fxY4BkygQBJRmOhAKB3BCIEk5ElS7rfgg6WOEFKTdVOJWE2gmFMg4wbP4VcJnbBWXAEQIQiCZg24wytpnRVMppq79w7JaYoeO2bsVXtFLNwrMrK13nzp3ro33xLy+69d6zXiTmlStXuptvvtk9+OCDbs2aNW7UqFHuH//xH90OO+zg1l133Ug/SVlqveaXu0kRJRwIQKARgbT7NhmrHXTQQe7yyy9vlIyqe7JJ/Prrr19lF77YdNNN3VNPPeVb90JAYQ4nXCJvX1sBBU5vc+nozHuQMBCAQAkIeI1mxXsJqHgNRvAn12JfZqM8ys6hzHVA8u5NxATPRZlZWA76bIid/GEgAAEIKAHbVqgdx3IS0LFlN/oJW++6EV8RS9T27b3K3/i9xwdjLm+CriYZ3uqUiif0BG40zXrcYostKkNDQzX+krTQei1HDAQgAIG0CWj7ltacxC9/+cuqNnXKlCmVRx991M/W8uXLKwcccEDVfUlPVPsc5rDJJpsE/jwBJXw7lWthlDavVBLeg0DhlCx02XQHAwEIFJiAdDD6EqANqFyn1TnnDaUygUfeSi7Z9OqkDC/Kf+WqPPT5kKPYMWGVbL0jNAjklYBtI/KaB9KdDAEdY3ajf9A+qRtxJUMne6FkgWEjAcVbaVKZOHFiMDmm6Y063n777akBZoIuNbQEDAEIhAh0o73Zcccdg3ZVBOqweeutt2pElKwKKJJ27ROYwwmXZPV1N8do1TEX8woBpZjlSq4g4Ask2mBqByPXdDLVlUMZyRFTXgJaD5iUqa4DdpJU2xGxg1M1J64gUDYCtm0oW97JbzWBbvWfts7RB1WXQdyrbkzSxUlLIwHljDPOCCbGZNxx5JFHVm677bbKE396ojJr1qzKZpttFtxPc+yeFVZxeOIGAhDIN4G02xtvs/ig3fT2naqsXr06EtiyZcsCd9L+IqBEYsqVpY7R0uwvcwWkw8QioHQIEO8QyBoB6YC1odQJT7kWe0wtAWVFp1LLpkw2+qwwKRNd6nbiClbRjLCFQJkI2DahTPkmr7UEdByVdv9J31PLvlUbO0nXqt8k3dcTUF566aWK/RzMf//3f9dE+/DDD1dN8P3fQ/9X4yYpC61zvEMlRZRwIACBegTSbG8uvvjioN38/Oc/Xy8Jvv3o0aMDt1kVUGxfRvvcsDiDeUHmuhpzinsXASUuKdxBIOMEpPPQl1jtgOWaTqVxwdkOuLFL7haVgJ0I5HlpXMqWlbYzaU+aNU4RdyEAgV4QsG1BL+InzuwQ0LFnmn2BrW9pxpMdqumkxHJMJ4a3Q/3DH/5Q+elPf1o54ogjKl/72tcqV1xxRcXbaNh3UE9AOf/884OJO/ncTD0zYcKEwN0111xTz1nH9jrOYWzYMUoCgAAEmhDQ9iaNPu6UU04J2syTTz65YUr6+/sDt3kQUBpmhpv+VyO0boGjcwIjJAgPKAYCuScwZ86cIA8LFizwzxcuXOgf+/r6gntep+CfDwwMBHZ5PpF8T5s2zQ0PDwfZ8F5m3dSpU11R8hhkLIUT4ee9iPkhCzdvU8oUYiHILBMYMWJEkDy6xABFwxPv27lu+vTpVW68Ab8bHBysssvbRaN+RPJS5L4kb2VFentLwLYBtJu9LYtexz527Fh/DJpmH6D9dJpx9JpjN+LvxnMr7cGJJ55YM0bQ/Eka7lx6p5v363m+lTdB59Zff33/fOKBE92sX87yz2fOnOm+9KUvqbeq4/PPP++effZZ3877pJdbZ511qu4ndUG9S4ok4UAAAs0IpNmXSlv6k5/8xE/CmWee6aQdrmcOPPBA520479+27XM995tuuqnzxHH/treJvNt8883rOU3Mvht9WWKJ7XFAdq6L8XoCheFBxEAgdwTkl0Dyp7968x6FQClv9VzCEKU/b78uqpd/yQumNQLCTOtN3upBaznFdZiALXuenTCd5teWnz5DeeKo7WiZ+5LmpYwLCNQSsM9+7V1sykRA28+02n5b19KKoyzlpSylzNIwsgnx5MmTgzG1jgsaHe0vnO3nu+RzXmpWrlxZ+f3vf1957rnn1Korx7TrdlcyQSQQgEAuCGh7k0b77InaQbvcbAWKpkPabds+14No221PQKnnLFF77cskjZjGBORdV/tg5rkas4pzlxoXhxJuMkGg1YkuafztnzYczY7SIGf5BU05hPOR5TRnogI1SYQdLDRxyu2CELCDL56fzgrVstS2KatM67Whmu7w0fYjtp0IuwtfS/6zyqCz0sY3BCp8EoBKEBDQdjGt9k7b1rTCDzJSghMtKzmmYbxfLQcTNVJuU6ZMqTz66KN+VMuXL68ccMABVffFjU7Q/fGPfwzuyUbxL7/8cuXwww+vjBo1KrAX93LP+wV15Y3X30gjC1Vhps2rKjIuIACBUhNIs73xVvQF7ejEiRPrchYR3Aoi2j7X9eDdsO67LaCk1Zc1ym8e7+k4CgGl89JDQOmcISGkTEBemPShDx+l0ZSGQP/iJkXdS9iNws/ay1pUWrOWxrhlkDV3Uids/YJr1koo2fSEn6VkQy9vaGGu8kxl4VmS51tfTOxzrudJ9CWNws8Cg/LWSnKeBgH7rKcRPmHmh4C2fWm0c7aepRF+fignk9I0y0pSKPuWaL/qfWKlJtEyORcWUXSC7s477wz8jhkzprLTTjsF1xqmPcpGx7IyJU2jvOSIgQAEIJAmgTTbG++z9lXt6dNPPx2Zleuuva7KnbbPkY7/ZomA0ohONu5p38k4qvPyQEDpnCEhpETAvjTpQy9H6VxkMixpI2HWi7PXjU14cl849DpNSfPPQnjh8odxFkol2TRETaSn0Z4km+r8hRZ+lnrVZkWVt/YjafUlkveo/PeKQf5qDynOAwFbx/OQXtKYHgGd9JE6kbShniVLVMtKjkmbRYsWBRNvG2ywQWX16tWRUSxbtixwJ/2iTtDdfNPNVfZyT/5kQ2P55MwxxxxTGTduXJUb2Uw+TaP1Lw1eaaabsCEAgfwR0PZG2r2kjazYE9FZ21VZHSiCtjXSFm+//faBG3Gr7bN1Fz7vhYCifVka445w/opwrbzoyzovTTaR91oGTLYIZGVTdLs5lRLyGumubpKcFRaa/zIc6zHXzaO9F7kyYChcHqdNm+bnaXh4OMibN4hwQ0NDwTUnyRMIt6PdbEPDcUvuJH55hgcGBpLPbESI0p4sWLCgZjPdbnKISBZWEOiYgH2+vNeRjsMjgPwSSHPjWzbxTrZeaFmlMf752c9+5g455BA/wZ///OfdJZdcUjfxW221lXvooYf8+94Enb+J/P/+7/+6T3/601V+rrnmGrf//vtX2Q0ODvqb1KvlrFmzavzpvU6Pyos+u1OS+IcABJoRkHcGTxT2nXk/AEv8XeVXv/qV81YABsmYNGmS+39f/X9u9FajnSds++3qXXfdFdyXE22fqyxDF73YRJ6xQagQmlxqX5ZG398k6uLd7lyDIQQIJEMg6pfCopL2+tfh3qC5Son3WoGurP4Ix5sFFsmUdD5CCfOXcuevOAx63a7k4ylIJpVRz5LYpWW6HV+cfEh9y2K64qQdNxCIImDrc9R97MpDQManaYyNqWPJ1yFlKmWWtDnllFOCcXKzTYplVYmOqfUXztdff31gJ/dOPfXUukncddddA7eyOXJaJq26nVZ6CRcCEMg3AW0X02ijhYwncgdtp8Zlj7J60H4+UdvnRlS7vQJF+zFJNyYeAWWWVr2Kl4piuKLWFaMcc58Lfai1AZeHO2sTnOE0ynUaRvKtA3blkVZcaaS/aGEKe/kLl4mWDcd8iCpSfllsV4r2vDTKjzxH9nmR8ki6bQs/p1krc21PLIekGTQqA+5BICkC9nlOKkzCyScBbXeTbsu0nUw63HxSTibVaT63hx56aNDHyybvjYy30iRwqxN099x9T2AnZf/Qgw/WDeLCCy8M3O6333513XV6gzrYKUH8QwACrRDQ/lSOaZkZM2YE7ae2cXIUIeSOO+6oHHvsscH9F//yYtNkWAFlxYoVTd136kD7sTQZdZrGrPmX+UUt66ylLW/p4RNeXk3C9JaA/QyE1xC6qVOnJr5kMakcSlrFTJ8+3T9KepP6BFC9T0dlmYcPoWT/pJww+SLQrc815YtKb1Ib9UkrbyDc8acRw+1nHvoS7UekJJJg0JsSJdayErBjN+/lp6wYyLdHQD8NkWQ7ZutXkuGWvcCkr9RPxCT93J500knOE058xN4KFHf66afXxa11RhzoJ2Lk6P36OfDz5htvune88x3BtT35zW9+4/baay/fytu43nn7r9jbiZ3zmZjEUBIQBCAQg4Bto71J79TmxJ595lk3NDzkfv/737vNNtvMjRs7zv3T1v/kRo4cGSOVvXVCu9w6/27Vq9ZTlkMfeVN8SG+xCIhy7D02/p+c58V4L3NBuiX9na6WCYcnLDoNMy8sSScEIFA+AuE2T9pRsWvH2F/VdBJOO3F36ievfWCn+cZ//gnYZzj/uSEHnRDQdqzdNjwqbg1TjpjkCNj+Mun3jJkzZwbvRhMnTqybaNm42P5iWVegiAf5fIy+Fz7++ON1w/j5z38euJs8eXJdd53e0LQkzarTdOEfAhAoLgHanfpla8eetMv1OYXvpNn3h+Mq+jWf8Cp6CWc0f/YhztuElyK1DXi7eRAO+pKonWWSL6CaVo4QgAAEskggqh1tZUAc5T+L+WyUpnAeWsl/o3C5B4E0Cdh6m2Y8WQ979erVleeee64S5zMXWc9Lu+nTcazUiSSMfUdIKswk0lWEMCzbpPuahQsXBqKGvNM8/fTTkciuu/a6KndWQBk3blxw7/zzz4/0L5beJvWBu9NOO62uu05upMmqk3ThFwIQKDYB7VP5AUFtOTP2rGUS10bnGpPu++PGXxR3CChFKckc5cM2fO0KD1nJbrt5kYZLO0dtzOSaBi0rJUs6IACBbhGQdjTcHopdMxNuf/PcfobzEif/zfhwHwJpErB1ttN4ZL8EHQvJ8bvf/W6sIPfZZ5/A38033RzLT9KONN3bb7990kG3Fd6kSZMCJpI27zOzbYXTiidtv5Nqt5KsW63koyxutc4m3We+8fobldGjRwf1b8qUKRVZbWKNiCXyrGga5GgFlBtvvDG4J6tUHnvsMevdP5c6bf3fd999NW6SsKAeJkGRMCAAgVYJSNusbVzS7XSracmae+WS1Hgja/lLMz3KjjrVGWUElM744btFAnYwKg9xER5gyYO+PEqemjXoYQYIJy1WIpxDAAKFJBBuGxu1p9ZtUdpQm6ei9I+FrKhkyidg62unSOQX5FLn7d/y5cubBtvf3x/4mT9/flP3aTjQNGdBQJGVMJoePR5xxBFpZLsqTB0DS51IwmjakwoviTQVKQwtLzkmba655pqqOiiC3oLfLKj88Y9/rHjfYK9su+22VfelrK2AIunZbbfdAjfySS9ZibJ48eKKt89J5ayzzgruid+jjz466SwE4SXZxgWBcgIBCEAgBgHtB9Nop2NEn0kntMmdFYvWqSLMv3ZGojPfCCid8cN3CwTkYdUHV45Fe3j1hUTyFvXSFxZa6rlrASlOIQABCBSOgB0gR7WT9n7RXiyK3k8WrrKWOEP2OewUQ5SAMn7v8U2DRUCpRiQTzdJm2j/5Fb+sDEjT6Pg3auzbarxJ1qtW4y6Ley0vqSdpmEMOOaSqDtr6KOciiuy0006Bm7CAcs/d91RGjRoV3A/712vJh3xCLy2j8SRRr9NKI+FCAALFJGDfB4o2Z9ZuidEmt0vur/6UH/WpQ46decc3BOITsAP2oj649fJoXwil8RJ3RWUQv0bgEgIQgEA0gXCbKe2m2Em7qQNAaUeLaMqQxyKWW9nyZJ/RTvMeJaDIc37ZpZc1DBoBpRqPnZTWdlKOsudEmkbHvlInOjWa7iTC6jQtRfVv+5i03kVmzJgR9NVapnIUQe+OO+6oHHvsscH9qP2Dnn/++cpnP/vZwI0NQ85POumkVIXBbjAqav0iXxCAQDIEtG8t6vtOK5SSHHO2Em+R3Go/mla/XyRWjfKSzk9PGsXIvVISsI1ekV+K7IBbGim51s6PRquUVZ9MQwACHRCwfYe2oXos8gDQ5psXpw4qEF5TI2DraKeR1BNQZLJVPktVzyCgvE1m2bJlwWSzcJs8eXJwPXHixLcdpnCm49xOx/e2TnUaVgrZLFSQ2o+m2b88s+qZyvXXX1855ZRTKj/84Q8rd991d2XNmjUtcVy5cqUvAH7nO9+pnHfueZVbbrmlIuJK2sbWxbTjInwIQAACUQTsvFKR33mi8m7tbHvM2MCSae1c+30YtsYt7HqEWHgwMRBIjcAJJ5zgpk+f7ofvPbBucHAwtbiyELD3jV83YcKEmqR4LynO2/iwxh4LCEAAAhBoTMD2I+Ly/7P3LtB3VOXB/gZtpVrwr5+ozVJYC/9BqcilELugQSAVSAALC0OhstCiJdCCssAuTEAJQayQIDeNShAKyFcvGBZVoFw0AgESCRBQAakSbhogQW5yT+B88w68k/fMmZkz58x95tlr/X4zZ2Zfn71n73fvd1+60JbYNHchvcklgLd1I2DLZ9auxFe+8hX3xS9+0U/iwQcf7H784x87b2se/7d3ELU755xzIpP/93//927RokX+O+8MFCe/w+bll192C3+00N2+/HZ3++23uxdffNG9733vc1tttZXzlAzuPe95T9hJ3+9X1r7ilt+x3C25+Wb367vucm9/+9vdrrvu6iZPnuze/OY3u/XWW8+3752B4vvf5/j1H7///e/d9ddf75YvX+68s13ce9/7Xued8+B23nlnt/HGG0c5GfmZzY/Pfvazvhy65557Bv54g87O2zop+J3nzQ477OCWLl2auV62achapvJMXxv90jyjbxKdu/pd0/ZG8+EpBCBQDgHqaueQDfIpa7Rr+XBkBYpokDCFEfAEz2AGnNx3xdh0e58q23V1JeNJJwQgUAgBW6d2qS3Rmd3SjnQp3YUUIjzNlYD9JrN6bFegeB3lnqcwCWRHKfs33XRTZBDDVqDIQfRyuLv4EfUnZzFIWK+++mqk/3K+gg0j7Mell14a+Bt3iPxFF13kn/kQdqu/v/zlL0eGPcrDtWvW+lsjqZ9y4LaceyLp02cLFiwYxcuR7Go9lbWO0rhm9WekyHfUMjObkzOespjMh7cQgEA5BGxd3cW20cqaXUx/nqWMdi0fmihQ8uGILzEE9EOVzlXXjK3wu7zssmv5TnohAIF8Cdi6tIvCsw5OSnuKgUBdCNjvMmucwgoUUWh4KzSCwf8tt9wy8rwDq9zwVqD0RUOUCFaBIN+PHEw9ceLEwF+VUY877rg+t/Jj1apVva233nrArroJX6MUKJ/73OcG3Mv2WmG33qqb3ksvvTQQh7QPZJsk9XOLLbYInB166KHBc+FZlNE6Kkv9nGd5KiqdbfNXy0yWfGsbE0kPZbGNuUqaINBcAtrGSp3dpfra1sVdHEvMu8TS5udDlN54PhzxJYKArfQiXnfikTZ4VPqdyG4SCQEIFEBABT65dtF0ffZZF/O8CWnOU8YLK1Ak/ffcc08w+C/f/imnnDKAJUmBElbArFixInC/evXq3uGHH97n/69++avgvdyElR9y/oKc6SCrPbztWHuiqLB1U1iBImc12PfeFmU9PSxb/DnzzDP73ssZEeOaj+/38cAvbzu0wJtFP1sUPJe4PPjgg8G7PG9U1s0ysKOssviRZ5q64Jfmm7Bnote6HKcsrmPBHQQgUA8CXauvbd9H6mRMdgK0bdkZig+Uxnw44ksEAT7Snt8hUQ50TiIKCY8gAAEIJBCwg7RdHljrWscpoUjwqiYE7LeZNUpRChTxc/bs2X0KgPvvv78vqDgFymWXXRa4mzBhQk8UJmEjq1wOOOCAwN7uu+0eWBH7KrvJNUp+E2WIrGhRe1aBIn5vv/32wbvTTjst8NvefOtb3wrsTJo0yb5KfS/KGI2DXB966KHArRzYbVe85LFdWOC5udH6adw62palcf0w0eE2JQE7QCV5iGH1CWUAAhCoJwFbX8fJJfWM+XixUrmiC2kdj9DorlRWRM4anZ11gQLF0uA+NwK2M5Sbpw31SBsAOicNzUCiDQEIVEYAYe819LbjRFtSWXEkYEMgTzkvToEi21rZlR577LGHiUGv73wSu4WXXZFx4okn9rmxP2688cZA+SDbfamZO3du8HyXXXbRxwNXqwCxChRZoaJ112abbeavWhlw7D2Q9Kk9ud57771R1hKfycoY9SMqrkceeWTw3m7vlejpiC9Vzh23U55nWRox6p23btlHKQq7Bki/pXHLctd4kV4IQKA8Al3pC9h2Sepk6uN8yhjtW04c8/EGXyCwjoCt9Kjw+lehwGNdOeEOAhCAQBIB2pJ+OpYHA139bPhVPgFbHrOGHqdAEX8XL14cKACk8/eDH/wgCC5uBYo9u0QOko8zsopEO5RylXNPxBxyyCHB8+985ztxznsrV64M7FkFygUXXBA8nz59eu+JJ56I/Zs8eXJgd+HChbFhxb2wK13OP//8AWs33XRT4L+kcdmyZQN2sj7IokCxA0LIyFlzYjz3+g10XTmfZ502Xk7gCgIQgEAyAVtPtbHOtunTtkmuyAfJ5SLNW+UJyzS04u2wAiWeDW/GJGArvjG9aJ0z7VxKxYWBAAQgAIHhBBD0BhkpkzZ2mgZTy5M6E8hT1ktSoAiDGTNmBEoA2ZLr6aef9tHEKVDs4fGyjVWSsStcRFkjxp6fcu2118Y6l6269Ju0CpRZs2YFz/V9mus555wTG1bUCzm3xfo7ceLEnsTD/lllktj97Gc/G+VVpmcq447TKc+zHGVKRIcd2zzoqnLeMhinHHe4+JB0CECgZAK2vmpTf8CmS+thlS9EftFnJeNuTXAqL8IxW5YympuNH65DBKIqvpCVTv5khl0ns51EQwACYxKwbcmYXrTSmeXS1YGuVmZsAxNly2LW6A9ToDz11FN9Z3n827/9mx9klAJFVntoJ1HO/xhmdtxxx8C+HPwuRrbdUj+GrdhQZY1VoHziE58I3Ks/aa6yHdco5phjjhk5HGGy5uU1owQz1K4OcEiZGNUol3HcjhoW9uMJaB62aTAuPrWDbzT9Uh4xEIAABOpOwMpgUm81vU9g6+BwO2TfISuMXzKRt8ZnZ10iJVga3GcmYCvzzJ61zAOt/MONQsuSSXIgAAEIZCaAkBePUNnQlsQz4k3xBPKU94YpUCQ1l1xySZ+yQM4ZiVKgrF2zts+erBJJMlZZ8off/8G3qvKafGtJK1DsGSZWgfL5z38+iMN+++3Xu+qqq1L9Pfroo0lR7XsnShB7QLysPpHVJnF/Wm/I9fLLL+/zK+sP5TXqwEaeZShrGrruvssTvWw5HLUMd73ckH4IQKA6Arbukra9ifWXbXuS0qByRpKd6nKiGSELO/hlzysUKNkZ4oMhwIdpYIRubQPR9FkCoaTxEwIQgECuBGhL4nFqJ0KuGAhURcB23LPGIY0CRcLYe++9A8WEKArsVlv2EHlRJmgd8uCDD8ZGb/Xq1YE9sa/KloMPPjh4Pn/+/Fj3d999d2DPKlBkKy4N/5Of/GSse3nx/PPP92SFjfxp+IkOXn/5kx//JAhDVsEMW1VilU37779/miBS29E6adTBG2U0qrvUEcPiSATsN92VPOlimkcqFFiGAARqTcDWYdKmNqnuHjXu1j59oNGLJTLX6MyiXKBAiaLCs7EIWAVBkyrvsRI7piOtuFCgjAkQZxCAQOsJWAG59YkdI4G2raUtGQMgTnIhkOd3mlaBIsoQ3TJL5Sm9WgXKXnvtFSgXZs+eHZteUY6oezmMXc1JJ50U+Vzf69VuoWUVKNf9/LrAvawSeeGFF9RJ3/XFF1/sbbrppoHdJGVPn0Pvx7777hu4O/zww8OvB35bpY6k+ZlnnhmwM+6DcRQoth6jzzAu+Xzd2W9aykjb88Wml8G4fMsSvkEAAuURsO1pU+puW/9KnNP2Z6w76u3RyphwHoX1aL53xzYKlO7kdeEptRVa4YE1NADtZFLhNzQDiTYEIFA4AerJ4YgRgoczwkaxBPKU+dIqUCRFZ555ZqA40O9ArlaB8r3vfS+wIwqM++67bwCGbNdllRff//73Azu/++3vAvfi98UXXxy805t77rmnT5ljFSiiGLFbg0n6osycOXOCcKwCJ8qufRZeOXPTTTfZ15H3YTfnnXdepL1xHmqdLWUircmz/KQNE3vxBGx+rL/++kG5TDuoFe9zPd+EBxzrGUtiBQEIQCA9AW2LVTYapU1OH0o2m+G6V+I8ajtj2ytxjxlOwHIflfdw37tlAwVKt/K70NRqpV1lZS1bITz55JP+VgiFJnZMz23lNaYXOIMABCDQagJ1EPxlOxxpS+TvlVdeqR1vbW/pONQuazoTIduBzZroURQo8j1OmjQpGODV+sIqUGQrLGtHlCj/9X//qycrPFauXOmfp7LFFlsEfsh9+Ds/+uijg/cSxgknnNCTA+UfeOCB3oUXXtinPJH3VoEiPOScEY2bXI888kjfvSgy5PyWgw46qO/9KOeSWCWSKGrSmt132z0Ic5dddknrbKg9rY9Gkf+VzShuhkYEC2MRsN+y5KXtq0g+tdFo+ZMrg0ltzGHSBIFuErD1udZzdWhnpZ5VWUHjlaViaaL8AABAAElEQVQPY9Op7VY3czxdqm27ns4FtuIItFMqikstzwsloJVhlZX0HnvsEXQOn/3Ts7HpfeSRR3oyQ1Fm/0mnWGbi3Xjjjf5e1LGOcnhhKy8E9hyA4gUEINAqAlYgrjJhp556atCWyFkDw4woXBYsWNCTbXLuv//+YdYzv7dtSWbP8AACYxDI81sdRYEiUb3jjjuC71NlT6tAETu33npr3yHrai98nTBhgm9X3FgjylM5ZyVs3/7ecsste+JenoUVKOKXbK1l7cfdH3vssTboofcSlvr1pS99aah9tSCyrrqT60MPPaSvMl11UCSt/G/LTlo3mSKI41gCNi/sYJZtY9o0OCXp0vIq3wDlL7Zo8AICEGgwAVu3a7tfRX0XrnMlLnm1KTaNtv1qcLYVFnXLqrBAOuIxCpSOZHTRyazLR2ln10Xt7/zSSy/1pKOqDUn4KjP5ZGZgkUYFdyr6IinjNwQg0EQCdWlLvvrVrwbtxGWXXTYUpR1suuCCC4baz2rBhif3GAiUTSDPb9UqLGfOnJkqKWFZTs4dCZtHH32099GPfjT4lsMyn6zCWLVqVdhZ8FtWNdsD5a17WeHyxBNP9GTrLXketwWXbA0Wd26LyJyidB3FyHZkNh6//d//Te1clELW7dfP/npqt0kWVa6VMpHG5Fl20oSHnWgCNh+i+iT2vZSbtPkbHVr1T2272Yb0VE+UGEAAAnUmIHV2uB7Xuq/I+lzqWmlTVDZQuUN+591nsemLasfqnD9lxs1yKjPcNoaFAqWNuVpBmuryUSYpUGR7hunTp/d1HrVCD19vvvnmwihqY0IlXxhiPIYABBpKQOvHIgX7NGhGVaDsvffeQdtShgJF0qDtVtWs0vDETvsI1EXuG0ZWtvOSM00uueSS3he/+MWeKGuuuuqqnihX0hrZtkvOQTn++OP9rcDk9yjmueee68k5JWefdVbvuOOO633j69/wz2yRuLXBjFpvU3dVn+v2+03qj1h7km9NbW/ako7qSw4xgAAEmkYgXP9pGyxXqf+z1uuiFFGlifVb7yWMvBUnNg9s+pLaM+uma/fKCD7Zcx4FSnaG+OARqMtHmaRAOeWUU4IBJ6nQZT9q6dDKQaILFy4MtmHQxqSojK0Lq6LSh78QgAAExiWgwrbUk1WatAoU2QLnsMMO62tbylKgiBBcdHtVZR4Qdr0JqCwjZRDTbQJaF6Wpt225KXJApds5kpx6mwdpBlMkn7RtlmuafE6OQblvbXol/pS7cvkTGgQgUA8CUheG60Nbt+u9tAvyp/btVd/JVe3HXcVOWfWtTZeEi+knoPkFm34u4/yi1zMONdwMEKjLRxmnQJHZf3KIqFbwMjgWNitWrAjeiz2ZsViEsRV8Ef7jJwQgAIGmEtA6WurJKk2SAmXx4sW9fffdt2cPodZ4yxUFSpU5R9hlEUCWKYt0/cPRPkCaeptyU21+Wv7SXo1iNJ/FXRMGYWTgrmlxHiU/sAsBCEBgXAJSP0p7YOtI25cZ5178Ej/LUpqE027bN7nHrCOg+QyXdUzGvVtPHHofCAYCmQjssMMObunSpc77KN3cuXMz+TXM8b333uuHtWzZMrf++uu7yZMnu1133dVtvPHGbo/d93DXXHuN74V3BorbcMMN/ftvfvOb7ogjjvDvvX2qnbiNMnvuuafzKn3/lbfvvdtnn32irGV65m0d4aZNm+b7weeXCSWOIQCBlhFYb731/BRJPTx16tRCU/fYY485bxWi+8UvfuGeeuopt9122znvTAS3+eabO2/Fops1a5YffrgtsO1JVAQ9BYr71Kc+FfUq12fa7npCsfPO7srVbzyDwDAC3hkkbt68eb41ZJlhtNr9XuuiNH0ArePT2G03tfJTZ/sfEvo47az97sWPuuZjU+IpDDEQgAAEqiYg7cOiRYuCaHiTxYJ7GeMTI/0Na3baaSc3ZcqU4FHR/bYgoIQbW/fXtX1KiH5hr5C9ckQrChQMBLIS8Iqkv3rDq6iyehXrXvaKFv81rPDVqzB7cStQPr7fxwN35513XmwYcsCmHNApfy+88EKsvSwvRCuvcZd7DAQgAAEI9PwZS2XVjXIegoYVvnqdAf+sA30ePkT+8ssv74kd+2cPiS5rBYq2hzKrCAOBsglo+ZPvBNNtAmlnNtoyg/xbbpmxfQ/5ZrPwt/mo7aQ8q4Opc9zqwIc4QAACEGg7AdsO1KVtqpp53drqqnlkCZ9eTxZ6uA0IFP1RivLkwAMPjB3w0vDt1VuBEsTPbt8l23mpkUNEb7nllp4oTsoythOTpQNTVnwJBwIQgEAZBMqqG+fPnz9SWxJWoESxsEr6shUo0u5hIFA2AdtBLTtswqsXgVEVKCh9y80/27ZKe5FX38PWAdr/qmqwStKk5VDjIr/zSmu5OUZoEIAABCCQhYBtD6pql7LEP0+3VgagTcxOll53dob44BFQYbWoj/LSSy8NwpCwZsyY0XvggQd89rJaRPaj1zjoVRUoDz/8cPBuwoQJveeff7536KGH9jbddNPgubiRd6eeempvzctrCs9TjWNRvApPAAFAAAIQyJmAFfBy9jrwTpTmWv/Kdccdd+wtX768t3bN2t7q1at7s2fP7nsvduqqQCmDVwCOGwiECNjB09ArfnaMgA5UDBuk0Lp3mL2O4Ss0ubadEP55sxf/5E/zVq/yrOg+jvgvZU/Ln4Ytv4sOu9BMw3MIQAACEMhMwLYNebd9mSNXogdWDqBtzA4eBUp2hp33oYyP0ju3JBDOZauusJEVKmEliipQ7rjjjsCtHPo7adKk4LcK2/Y6ceLEngyyFWk0vC5X5kXyxW8IQKB5BOwgTFGxt2F452dFKszPOOOMvjaiCQoUBOKiSgz+xhGw31KcHZ53g4AOUiTJtJSXasqC5o30O5LyJ2vsxG8blvZzNNy8wpa2Li4ceU5bmDUncQ8BCECgPQRse5FXO9Q0OpJubZObFvc6xpdD5L3ShMlOQA8m8gTX3A/+vfXWW52n9PAj6e0z7x566CG30UYbDUT67rvvdh/84AeD53qI/PXXXe922XWX4LneyKFXXqXqvLNO/EOEb775Zn3lH/J+5ZVXBr/zvimSV95xxT8IQAACZRCwB9x6AlPuQYqfb3vb29zTTz/t+33dz69zO++y80A4L7/8sn+Q/IMPPui/8xQobp999hmwZx9M//h0t/DShf6jsg6RL5qXTR/3EAgTsAd1FvG9hsPjd30JpDlEXu2I3L1kyZL6JqZFMVPmkiRvAMXNnTu38NRJvSBm3rx5kWFJ/quRA4jVSJ/MGj3MOOogY2tP7sVPb/Vo7v3PcDj8hgAEIACB5hGooi2sEyXk9Zxzo45aHeLUPAJesfQ1m0XM/LnwwgsDrelBBx2UCEdWj2hcdAVKePsveR81o1i271K3cl24cGFiWOO+FEYaThG8xo0X7iAAAQhUSaDoutFTvgd1r2zZmGRkm0etp6Pai7BbzkAJE+F32wkwo63tOZw+fd4Atl9fJs3u1Po0yU76ELE5jIDmiXCvirm06RK2jYuWgyxX8U/+6EMNKwW8hwAEIAAB27+UtqdrbYe0w5JuaTcx2QmwhVd2hvjgEVBBuAgh/YQTTgj8P+644xJ5ezOYAruqQLn88suDZxLPE088MdYP2dJF0/KFL3wh1l6WF7YS71oFnoUbbiEAgXYTKLpu9FacBPW7nH2SZE466aTALgqUJFK86yoB7ZCJzITpNgEdII/rA1BWyi0fmh/ybcblSbkxei00iYv+SRxtPLXvZa9qR67iTmQE+k1V5BxhQgACEGg2AdvHlHamS22JtrV1kgeaXJro9TQ592oU9yI/zEMOOSQYyJJVIklmv/32C+yqAuVXv/xV8EwqzN/+7//GerFgwYLA7t577x1rL8sLqby0g5DFH9xCAAIQaBsBrRuLEGztasY99tgjEd3ZZ50V1NN1V6BI+4uBQNkEkGXKJl7f8Ib1AYa9r2/Kmhcz+102bbCkiHa/eTlIjCEAAQhAoAgCXVWiaN+6aTJBEWUgDz9RoORBET+CWURFDOTIShD98IetQNFOmthXBYq3333gXp6vXbM2Nsd++tOfBnbl4PoijO3cFOE/fkIAAhBoKgGt64sQ8rwzQ4L6fdgKlJkzZwZ266pA0fauiHa3qeWHeJdHAFmmPNZ1D0nrorh6u8h6ve5syoyf/Sbj8qLM+BAWBCAAAQhAoE4EuqZEsXIBkxTyKYkoUPLh2HlftPNUxEDOeeedFwxkTZ8+PZb1q6++2nvnO98Z2FUFijjwDp8Pnss++HHmu9/9bmDvwAMPjLOW6bmtyDJ5hGMIQAACLSNQ5EDbihUrgvpd2gppM+LM/vvvH9ituwKFgbK4XOR5kQSQZYqk2yy/tQ8QVRdRTsrJS8s5Kh/KiQWhQAACEIAABOpNwLaXRYxd1in1Nq11ileT44ICpcm5V6O468dZRCW0ePHiYCBLBtdWr14dmfKf/PgnffasAkVmG+vA3Pz58yPdy0M5pF7tnXzyybH2srwoklWWeOEWAhCAQNUEdCCuiLbklVdeCep3qeflfKwos2rVqj57dVWgaFslbQoGAmUTsLP4yg6b8OpFQOvtqLqIeqr4vNJ+hbAuou0sPgWEAAEIQAACECiPQFfaTZXPkA3yK1soUPJj2WmfiuxIr3l5TW/ixInBgNaMGTMGZg6LsmTbbbcN7EgnwipQrrzyyuCdzDx+8MEHB/JryZIlgR1xf/fddw/YyeOBVmRRHc08/McPCEAAAk0loPVjUYKePVNLtmmULR7DRtoYHfSTKwqUMCF+Q6DnH8Cp3wnbAnS7RGg5CMu1tm8QftdtYvml3jIuqt3ML7b4BAEIQAACEKgHAatEaauMEief1SMHmhkLFCjNzLfaxdoK8EV0pGUASysAucr2Kot+tqj38MMP92Rf+6233rrvvdixChQB9pGPfCSwI1t6yUqUW2+9tbds2bLeaaedFrwTt0cddVRhjDUdba2oCwOHxxCAQOsJFN2WrFy5sq+ul7bj0ksv9ZXqokQ/4IAD+t5LfV1HBYoV+ltfKEhgbQmoPFOE3FfbRBOxPgJJdTb1VB+qQn7oNyhXvsNCEOMpBCAAAQi0lIBO3JM2tG1jc0nyWUuzs5RkrSeheAUGA4HMBHbYYQe3dOlS51VEzhuIyuxf2IN//ud/dhdeeGH4cfDbU4q4zTff3HkKEf+Zp0BxG264YfD+17/6tdv7Y3s7b/VJ8CzqRuJ/9dVXu4022ijqdaZnxx57rJs3b57vB59eJpQ4hgAEWkjAU4i7adOm+SnzBD83derU3FN57rnnOm+VSaK/u++2u7vm2mt8O54Cxe2zzz6J9qd/fLpbeOlC384FF1zgPvWpTyXaz/pS25Ki2tus8cN9NwgULfd1g2KzU6l1kaQiLNeut956fuK8QQk3d+7cZie0hrHX70+iBuMaZhBRggAEIACB2hOwbWlRfc8qICTJZ1XEpzVhigIFA4E8CFgNbh7+Rflx+umnD8wO9j5G//D42267rXfMMccE75/907MDXjz11FORM4zFD/mbOXNmT7YMK8robDxhhYEABCAAgUEC2pYUWU/KCkbZzlHrfns9//zze/ZMrSuuuGIwkqEn9tD5iy++OPQ2/58a37bNlsqfFD4WSaCMb7XI+ON3dgIq10qdZI19Tj1lyeRzD998OOILBCAAAQh0m4BdqRGWZZpMRuWEIvvTTeYzbtxZgeJ9JZh8CJQxc1hi+sQfn3BLli5xt9xyi5swYYLbcYcd3Qe3/KBbf/31Uyfksccec8tuWeaW37Hcve3/e5vbeput3VZbbeVkFUuRhtl4RdLFbwhAoA0Eypox8+KLL/orFnXFpMxAmjRpkttggw1qjdHyadNMqVpDJ3KRBKzc53XUWGUQSam9D21dFM5/+87rpLYXQgUps2zD3CuIDkFCAAIQgAAEGk3AyrOewqGQ3XTKBsS4YzHEUaAUw7WzvuqH2paKJ8+MtB0eBr3yJItfEIBAmwhYIZa6cjBnbVvCwOQgH56US8CWR77XctlXHVqSzK/vGODPN5fs90ZfK1+2+AYBCEAAAt0lYNvXNsguyGHFlGUUKMVw7ayvuocgQv1gEbCVMoNeg3x4AgEIQEAJ0JYoicErAvEgE55US4DvtVr+VYRuZdqw4sy+a8MgRBV848LU+l/e05eIo8RzCEAAAhCAwOgE2iK/2HQgK4xeDpJcoEBJosO7kQkwczgemXZ66EzGM+INBCAAASGgA7JyHx6ck2ddNVYgpi3paimoX7qt7Cexo2zWL4/yipHk9Zw5c9zSpUt9L6Py2tZTdNzzIk+7mB9JfIIABCAAAQhEE2hDHxQ5LDpv83iKAiUPivjRR0ArHVahrMNCJbaOBXcQgAAEhhGwA7K0JetoqSJenjAwuY4Ld9UTsHKOxEYG1qdMmeKmTp1afeSIQWYCUicvWrTIzZs3L/ArSnkiL7WeinsfeMBNagL2+4JramxYhAAEIAABCIxMQOUYcdjEiXw6Hou8MHLWD3WAAmUoIiyMSsAOfDWxwhk1vcPsWx5UYsNo8R4CEIDAawTsgBFtiXOWB20JX0ldCdhyqnEUJehOO+2kP7k2iMDixYuD1SYabcnP2bNnxyrHdOCBekqJZbvabwqm2VjiGgIQgAAEIDCMgB2/a+JEPuSwYTk8/nsUKOOzw2UCAdV6ipWuz5K1HZ+us0goMryCAAQgMEBABcAmCq8Dicn4QFkwgJYRJM4LJ2DlnsIDI4BSCQyrf2zeI/NmzxrLcxj77KHhAwQgAAEIQAACQsC2v03qh1rlDxMQ8y/LKFDyZ4qPHgH74XZZ4LcVb5c58FFAAAIQGIeArUO7LARaDrQl45Qk3FRBQGRB2fZJTNRKhiriRJjpCciAgRhZPZR2OzadQNWkwYb0RMq1aftSEjIKqXL5ExoEIAABCHSbQBP7XzbOyA35l18UKPkzxcfXCWgnSn529eOlAuNzgAAEIJCNgK686PKAnDJAeZKtLOEaAnkSUBmvy8rdME/qqjCR8X8rS/GBMjY+R1xCAAIQgAAExiVgxzSb0A9T2aEJcR03T6p0hwKlSvotD9vOnOriwJd2rCWbqcBaXthJHgQgUBgB25Z0sS61bUlXJyMUVrjwGAJjErDfZRfrpShslgkD/lGE0j+zLClf6blhEwIQgAAEIJA3AatEqbN8g+yQd84P+ocCZZAJT3Ik0NWP2Ka7i8qjHIsQXkEAAhBwTRFc884q25YwiJY3XfyDwHgE7HcpPiDnvcbRckHZO17ZEleWI/X++BxxCQEIQAACEMiDgJ3MV2eZz8oPyGF55PygHyhQBpnwJGcCduCrCx0BW8EKSiqvnAsU3kEAAp0koEuSJfF1nv2TV+ZYIbgLbWde3PAHAkUSsN+lhlPnzrTGsYyr1tHUV+PTtuULjuNzxCUEIAABCEAgTwJ2jK+uch9yWJ45Hu0XCpRoLjzNmYBVorR94EsrLkHY9rTmXEzwDgIQgEAsgSYIrrGRH/GFHUSrq5A+YpKwDoHGE7DfZTgxXZ8sY+tnBv7DpSP9b9uH6HqZSk8NmxCAAAQgAIHiCVg5sG6yTp3jVnzOlBcCCpTyWHc6JNuxEhBtVSxYRVHdKtVOF0ASDwEItIKAFQ7bqlgIt5cMorWi6JKIhhOwdU9UUtoq10alNeqZ5UOdFUVo+DPLkD7EcF7YgAAEIAABCJRNwI731Un2szIEclhxpQIFSnFs8TlEwA4KtXHgy1ZadHxCmc9PCEAAAjkRaHtdW1fBPKfswxsINI6ArXPiIl+nTnRcHIt8rvUW8u94lG0Zg+F4DHEFAQhAAAIQKJpAXcc0dQUrMkSxJQAFSrF88T1EwHYQRIkye/ZsN3Xq1JCt5v3UjqPEnEqreflHjCEAgWYRsG1JW+pcEcjnzJnjli5d6mdGGycaNKuUEVsI9B/oncSjLfVQUhqT3tFxT6Iz/J3yo94fzgobEIAABCAAgSoJ1K0fauPT9Qk9RZcLFChFE8b/AQJW2SAvm9zpZMBrIHt5AAEIQKAUAlZYbPqgk53NZOE1uX206eAeAk0kYOuYYfFveh00LH1J7y0nto1IIhX9zvaLGPiIZsRTCEAAAhCAQJ0I1KntRg4rr2SgQCmPNSF5BOzHbYE0cZAoPODVxDTYPOAeAhCAQNMIhNuUJg4+hdMgA7G6CkXyo4lpalo5Ir4QCBMIy3jh9+HfKFDm+UhQoIRLRvJvW//Tj0hmxVsIQAACEIBAnQjUZfWoxgM5ovjSgQKleMaE8DoB20mQjqZs3zVt2rSAT5M+eJsWSUCT4h4A5wYCEIBACwg0uT4Ox12VJeHBW33eguwiCRCoPYHw95c2wl1VHtBxT1tC+u3ZckY/op8NvyAAAQhAAAJ1J1CHdtz2JekvFl9iUKAUz5gQPAK2chEgtpNpl7+pYqXO56LY+EpaqKiEAgYCEIBAdQTCbUzdB6MkvsPOO7Fp6vLs9upKFSF3kYD97kZNfxflQcur7vXuqPlZtH1VPEk4tl9UdLj4DwEIQAACEIBAPgSqVmDY8JEl8snTJF9QoCTR4V1uBGwnIaqDaT98CbSOnbBwHJug7MktA/EIAhCAQAMIhBXcdWtLwooTQZoUR9vuoERpQAEkio0mYJUB4yQkSr4dx58mubF1FB339DlnuSW1Ael9xCYEIAABCEAAAlUQsP3PsmUhHWdFlign51GglMO506HYCiXpw7adCQWWZF/tFH2N6lAzkFU0dfyHAAQgMB6BurYl48bLuqtDmzheruAKAvUmECXrjRrjLn6fKuOLXLzTTjuNiqyT9hcvXhycc1U1tylTprg6r/rvZAEh0RCAAAQgkCsBkfHELFq0KFd/1bOq2nUbrsigbTN1lFFQoLStlNUsPeMM/Fg3mpwqOqVS0dotViQu0tGRs1vobGjOcIUABCBQTwJ1aUvyiIcOUgrpKtrDeuYwsYJAPgTSKE9E/lu6dGligGJnyZIliXba8jJKRm5L2rqYDlXkzJ07t4vJJ80QgAAEINAiAiqjSJKGyW4tSnZrk6IyiiSwajkFBUpri1n1CbODRuMM+Fj3mhr9eIrQRkpFKyasNJFnEi6KEyGBgQAEINAcAtKOiJk3b15fpHWWThFCWFFtiVWidHGroL4M5AcEciSg2x+IlyLviZHVFCJripFJM/JdT5s2zf8d90/ctl2BooMSDEjElYLmPx+nz9b8VJMCCEAAAhBoAwHbX2pDekhDP4GqZRQUKP35wa+cCFjlR9YOpfUrHL2sg2DSEZSlfHb5mw0DxYmlwT0EIACBZhJIakekntfB0nFWF1qFidCJGljMoy0JD+CiRGlmWSTW9SKg36/EKun7t3WI7G8d10Eve+/rMmlaBjbcrHK+9Yv7cgloP0hCtRMNqh6gKJcCoUEAAhCAQNMJhPtJIpuIkUnQYpJkPN8C/2pHIE5GkYhWJaegQKldMWlHhOxsvrw6k9JxE2MF/ChaWlnKO92PWRQkaqIGt/SdXMV9lsE06xf3EIAABCBQHwIqiMUpzW1MtS3RdkTejdqW5C20286BxK/ts91tfnAPgSoJqMLEdtj0mY1XWxWbNq1S90jdpityLBPLgvvmEQgrydpanpuXM8QYAhCAAATiCITbLuSSOFLNfl6HfEaB0uwyVMvY205WUZVXWmVKWkDaGRT7aKfTUsMeBCAAgWYTKKotKbIdscJjUW1ss3OV2EMgfwI6MSj8zdnvUUJt44CzTaOm3ypz25jm/EtQc3y0+Y2ivjn5RkwhAAEIdJGAlUd0TK/IflgXGdcpzZLf9siFsmVQFCh1Kg0tiIsVurWTVXSy5CMSI1txWWNnCutznUms+1rLcypYpcMVAhCAQHcJRLUlUe2IEKq6Lamire1uySDlXSdgv7eojpp9X5bsW1aexKXNPs9rpXlZaSKc4QTsgFTbyvTw1GMDAhCAAASaQsBO3kYeaUquZY+n5nvZEz1QoGTPO3x4nYDtTCFsUywgAAEIQAACxRFQwVFCiBrULS5kfIZAtwhY+Tauc652yu7IFZ0TuvJGwrFp1/oHeb/oHKjOf81jiQFtTHX5QMgQgAAEIBBNQGUveYs8Es2orU+rmuiBAqWtJarkdNnKq22dx5JREhwEIAABCEAgFQE7uMkAVypkWILAyAR0IHlY51xkYVm11paziaxsH0671j3h5yPDxUGtCWg+07erdTYROQhAAAKdJKBtFLJIJ7PfqXwuqS+rH4wCpZtlLddUW+2feGxnqOUaEJ5BAAIQgAAEIBAQsO0vA1wBFm4gkCuBUTroonSYO3duruFX5Zl2TMMDE1axgsxfVe6UEy55XQ5nQoEABCAAgdEI0D6NxquttlVGR4HS1hxuYbq00ErSyiq4LcRIkiAAAQhAAAIjE7AdCJQoI+PDAQQSCdjvq2vKApXv4xQo1DeJRacVL62Snj5eK7KUREAAAhBoBYEuy2etyMCcEhE32Scn7we8YQXKABIejELAVlzhDtYo/mAXAhCAAAQgAIHxCNAWj8cNVxAYRsB+W11VoIQHzuMUK8NY8r6ZBDS/w+Wgmakh1hCAAAQg0AYCZQ+ct4FZG9Og5aCsST0oUNpYikpKk+1UojwpCTrBQAACEIAABCIIqAApr2iTIwDxCAJjENDB4659U3blQVhx1FUmYxSfVjjRtqVr30ArMo9EQAACEGgpAWSRlmbsiMmyY9JheXVEr1JZR4GSChOWwgRsQUWgDtPhNwQgAAEIQKB8AjrQJSEzW7h8/oTYPgJd7aBbOd92SOOety/nSZES0HaF/p4S4QoBCEAAAlUT6Kp8VjX3uoVftlyKAqVuJaAh8dEKq6ylUg3BQjQhAAEIQAAClRGws8ZpnyvLBgJuCYGyO2V1whaX9rjndYo7ccmXAAqUfHniGwQgAAEIZCeg45Eo97OzbLIPZculKFCaXFoqirstpMxwrSgTCBYCEIAABCAQQcC20XQqIgDxCAIpCei31EVlpKZdUNkVKAympyw8LbJGnrcoM0kKBCAAgZYQQIHSkozMmIw4eTWjt7HOUaDEouFFFAFbQBmYiSLEMwhAAAIQgEC1BHTAS2LBRIdq84LQm0ugy51zK+9bBUqXmTS3JGeLubYn9PuyccQ1BCAAAQjkRwB5JD+WTfYpTl4tKk0oUIoi20J/7dYgCNEtzGCSBAEIQAACrSGgg16SIDsA2poEkhAIFEig6zJvVIfUPkMxW2Dhq5nX2pbQ96tZxhAdCEAAAh0mgAKlw5lvkm5l0zL6uyhQDHxukwloJSW2yiicybHhLQQgAAEIQAACcQTsAHAXtyCK48JzCKQhUHaHLE2cyrQTlf6oZ2XGibCqIYACpRruhAoBCEAAAvEEdGwS5X48oy68KVs2RYHShVKVQxptwaSSygEoXkAAAhCAAAQKJkDbXTBgvG8tAf12uqp81PRLBuukKQbSW1vcExNGvifi4SUEIAABCFRAAAVKBdBrGGSUvFpkNFGgFEm3JX7bQonypCWZSjIgAAEIQKATBHTwSxLLtjudyHISmQOBrnfMreyvCpSuM8mhWDXSC21D6AM2MvuINAQgAIFWEkAmaWW2jpyoKHl1ZE9GcIACZQRYXbWqlZOkXztRXWVBuiEAAQhAAAJNIsBWXk3KLeJaFwIq+3Z10DjcIbX1CIrYupTScuKBAqUczoQCAQhAAALpCXRdTktPqt02w/Jq0alFgVI04Yb7bwtkVzuRDc9Cog8BCEAAAh0nQFve8QJA8kcigLLAOVtnyOSp8O+RgGK50QRQoDQ6+4g8BCAAgVYSQIHSymwdOVFly6coUEbOou44sIUR5Ul38p2UQgACEIBA+wjoIJikjBnk7ctfUpQfASv/dnXldZiB/u7qmTD5la7m+aRtB33B5uUdMYYABCDQVgIoUNqas6OlS+VTcVWGzI4CZbT86YxtO/uOzlJnsp2EQgACEIBAiwloZ4N2vcWZTNIyE9DOWJe/E2UgMKVDqnUHg+iZi1fjPECB0rgsI8IQgAAEWk8AuaT1WZwqgWF5NZWjDJZQoGSA12anKixLGsvQ5LWZJWmDAAQgAAEI1IGAnRzBQGgdcoQ41JGAysBd/kZsh1RWrE2bNs3PKlav1bHEFhsnvodi+eI7BCAAAQiMTgAFyujM2ujCyqtljFujQGljKcqYJlsIu9x5zIgR5xCAAAQgAIHaEbBtPIOhtcseIlQDAnTK+89Akb7AvHnz/Jwpo3NagyJAFAwBFCgGBrcQgAAEIFALAshqtciGyiNh+7VlyKgoUCrP8npFwBZAlCf1yhtiAwEIQAACEMiDgA6IiV8oUfIgih9tIqCd8i5/G+H+gChQurylWZvK96hp0faCfuGo5LAPAQhAAAJFEVBZjbapKMLN8NfKqyhQmpFnrYqlVkSSqDIKYKvgkRgIQAACEIBAAwjYrbwYFG1AhhHF0giU3RErLWEjBmQ5qFMGKZREt64oULqV36QWAhCAQBMI6LglskkTcqu4OFp5tYzxa1agFJeXjfPZFj4qosZlHxGGAAQgAAEIpCZAm58aFRY7RMB+F2V0xOqK1nLQOLatb/DMM8+4V1991f3ZG//MveUv36LJrOz6/PPPuzvvvNPdftvt7pFHH3Hvfte73ebv39y9//3vd5tssonTwaKyI4gCpWzihAcBCEAAAsMIaJvYNtnEpnvtmrXu2eee9R9ttNFGbv3117evK7l/4IEH3O233+7uuusuX4bafOLmvqzygfd/oBJZysqrZcjtKFAqKXb1C9QWvDZXQvUjT4wgAAEIQAAC1RDQgTEJvcvbFVVDn1DrSEDl4a6vzFIONo+iOqbLli1zH/7whwNrH/3oR921114b/I67OeWUU9ysWbP817Nnz3YnnnhinNXCnuvgy7bbbusPBhQW0BCPr7zySvfv//7v7p577om1KeXxm9/8ppO4jmIkf5YvX+7e/va3u+nTp4/iNLCr7QT9wwAJNxCAAAQgUDEBbcPTtE177rmn38/RKC9evNhNnjxZf8ZeNQyx8Morr5SuwJg7d677whe+4MfvJz/+idv7Y3vHxrXIF3/605/ckUce6f77v//bPf3007FBffnLX3aSH29605ti7eiLxx9/3N1yyy3u1ltv9SeIbLHFFk6UMHJ9wxvfoNaGXq28GiWnDvVgVAteIBgI9LxyE/yBAwIQgAAEIACB9hPwlCZB2+8N0LU/waQQAkMIyHcgMrHXARxis92vJf22byD3Ueamm24asHfxxRdHWe17dtJJJwXujj/++L53Zf3Q9HlKibKC7AvHG4zpHXfccQEHjU/S1VO09Pkx7MekSZN8/zfbbLNhVmPf803EouEFBCAAAQhUREDbyjTymje5o6+t3XLLLXtrXl4zNOYahlylzS7bfPWrXw3ifdlll5UdvB/er375q97EiRODeFgmUfcib/zyzl/GxtVbvdITO1Fu5ZnILb/5zW9i3YdfWHk1/K6I39HScBEh4WdtCdhCl6YCqm1CiBgEIAABCEAAAiMRsDKAKFQwEOgyAe3QdV0etvWCMInjEaVAeec739l78sknE4tR1xUoL7zwQm/KlCl9AwjC7ZBDDumdfdZZPamLzz///N5RRx3Ve+tb39pnb/78+Yls9aW3+iRwhwJFqXCFAAQgAIE2EBhFXgsrUMTtySefPBSDhiHXLipQLr300kCOUBa77LJLb+bMmb0f/vCHPVHqfO1rX+vpRAu1IzKHt1JlgK+34mRAplE34et1P79uwH3UAyuvRr3P+xkKlLyJNsw/O/s0rnPUsCQRXQhAAAIQgAAERiBgBd8RnGEVAq0iYGXirisTbYdUOrVxfYQoBYrYnzFjRmLZ6LoC5dRTT+0blJDBnUcffTSS2apVqwaULd62XJF25aG3Z3rP2xasN2HChCAMFCixuHgBAQhAAAINJKAD7nHyiU1SlAJF3N93333W2sC9hiHXrilQnv3Tsz2Z2GEZXHDBBQOM9MH3v//9Prv777+/vvKvDz/8cJ/yZNNNN+1527n2RFFyww039L70pS/1ufe28kq1SsjKq30BFvQDBUpBYJvibdkFrilciCcEIAABCECgKwTswHGajkhXuJDObhFAJl6X35aFdJ7jTJwCRdzceOONcc56XVagPPHEE32DCAcddFDPO8w+lpW8kBU9dssLby/yAftHH3107yMf+Uif3zrwgQJlABcPIAABCECgwQS0fUvTb4lToOy+2+6JBDQMuXZNgfLFL36xT6EhW3kNM18/++t9blavXh04+cpXvhK8kwkeK1asCN7pjXc2TWBHmF944YX6KvZq5dVYSzm+4BB5L2e6auyBO17Bc3JIEQYCEIAABCAAge4R0IOCJeWeQsVNnTq1exBIcacJWLnY62vBYt68gEEcj5tvvtn93d/9nW9v++23d3/+53/u5JkYb49xt/z25e6Nf/ZG/7f9JweNnnDCCf4j7wwU522lYV8H93Igvaek8Q9Cf+SRR9wm793EfWirD7m99trLSXhJ5pW1r7jldyx3S7z4/Pquu/yD1HfddVf/4Ng3v/nN/qGl4j7pEPnf//737vrrr/fD92aquve+973OU1K4nXfe2W288cZJwce++/znP+9OP/304L03K9O95z3vCX7H3Xz72992//qv/+q/9hQiTuJjzbve9S7nrVaxj4L7KPvByyE32jbQVxwCitcQgAAEIFAaAT3gPU3btNtuu7mf/vSnftw+97nPubPPPjuI53/93/9y//SJfwp+2xsNQ555CpTIQ+Qfe+wx/3B172wPd5cna4jZaqut3DbbbOMOPvhgt8EGG/jP4v6Je5FzfvGLX7innnrKbbfdds7bJsttvvnmzluh4WbNmuU79bbLcvvss8+ANyKf3XD9DW7Zrcvcbbfd5r8X+UjklG232XakA9nVc29FrPurv/or/ekfIP/1r389+B13I3LXJptu4lauXOlbueiii3wG8kNlCbn3Vqu4Aw44QG4HjLdyxf3oRz/yn0tenXXWWQN27IPSZfcclTF41TACXsHzNXyydQcGAhCAAAQgAIFuE0Au6Hb+dz31upUdcnHP37JL6wOZ3Rdn7AoUOfjTGzzomz0oB6BGmWErUGTriE984hN9fml89Crngzz33HNR3vt7b4fPGFF3crX7escdIu91/CNXc6g/nhIoMuxhD2XbCvVDVo2kNbKfuBwiL3/egMHAbFjZLkPSrH+SLg2HFShpKWMPAhCAAASaQEDbtyQZRdNhV6DIFpcHHnhg0D7KNlWe4kKt9l01DLlGrUC5+uqrB7a5sm7k8HVvEkafn/bHJZdcEsTDupN7acu9CSbB+6hD5GWLT5u2sB+yDdawbcpsfPT+vPPOC8IVP70JLPpq6FXSpLKK8FFjtxWNOh9F7Vn5cNgKIXEj+a/pVj+KvMavyS4yVPyunIAtaGkqncojTAQgAAEIQAACECiUAFt5FYoXz2tOQDtgyMX9HdIkHmEFimSx7fAL06htGmwHWexbI8oT6fRrfshVDlLfeuut+57J88mTJw9sfyUDClF2rX/2PkqB4s16HAgrvBe4+OHNLu299NJLNvqJ9y+++GKfv3LQe1FGttvQdKJAKYoy/kIAAhCAQBUEtH1LklE0XlbJIAoUkRNErlA/4s5t0/dyDStQzjnnnMC92hPZxSoK9LlVJGic5s+fP+Be7UddwwqUu+++eyAsSZNNl/gjsotsjTWKkUPiNQ7Tpk0bxWmsXfVP4pdkjjjiiCDsQw45JMmq/07yX/0eajkHCyhQcoDYNC9sIUtT4TQtfcQXAhCAAAQgAIHxCOgsfBFGMRDoEgHtgCEb9ytQRLEaZ6IUKKIkkFmXynOPPfYYcJ6kQLH7bktH29t2I1CSPP/8873vfOc7gd8ShgxiWBNWfsie3H98/I/+4epLliwZUM6EFShymKnGXa4SH1HqiBF/zjzzzL733tZaNvjE+/AKHRnEKcqgQCmKLP5CAAIQgEDVBLSdTiOzhRUoEvfwKgtv+9GBJGkYcrUKFJEFrKLC247KX/mqHsjEEVmVq+5lEoPIL2q8LbKCd2Jnxx137C1fvtyXU+TckNmzZ/e9FzthBYpdZSuKG52QIfG84447enYVqih1bPw1HnHXj+/38SD8ww8/PM7ayM/lvLekM9+Ei52scvZZZw0Nw45tD7WcgwV6xzlAbJoXDI40LceILwQgAAEIQKAcAnYVClsZlcOcUKonYMt9ksKg+piWE4O0HdIoBYrE8LqfXxd0vqXj7+133RfxOAWKbBOhAw5yjRrQEI/szE0ZxHjhhRd8/2XgwbqPyktRhthttKwCRTr23t7hgR+nnXZaX7z1x7e+9a3AjgySpDV26zCJZ5EGBUqRdPEbAhCAAASqJKBt/bgKFIm7d9ZI0JZ757b11ry8pi9JGoZcrQJCtt/UdzJJxL5TD5544om+CRtyiLoaK2PJStpwuGLvjDPOCMKQsKwCRe41fFGOPPPMM+p1cH3yySf7JrPIypu0xq7i9c5hSesskz2R30SRpOkS2S7N1mGWZaYIpHRcrOSWMhJYK4+ALWBpKpvyYkZIEIAABCAAAQjUgYCVFaIGIOsQR+IAgTwJ2DKfp79N9SstjzgFiqT705/+dNARDu8xHqdAkdUi2nmWgY04I4MNak+uMttSzNy5c4PnSe6tAsQqUGSFivorM0bXrlkbGQXZtkvtyfXee++NtBd+uGDBgsBdlm21wv5G/UaBEkWFZxCAAAQg0AYC2ganGdOMWoEiDKTtVn/keuqpp/ahse+sksSukkg640TOSlM/9t13X99vmahhV6/IhJMoI3KGnexhFSiitFF/L7jggijn/jMra8m5L2mN3Ybsu9/9blpnY9uTtNkwJW0XX3xxKv/SyqupPEthCQVKCkhtsqIfWpqKpk3pJi0QgAAEIAABCKQnoPICq1DSM8NmcwmU3QGrO6m0PJIUKDL70g4y2G0gbKfenoFit9+SrbqSjN0e4wc/+IFvVfbL1roryf3KlSsDe1aBIgMR6n769Ok9SUPcn8waVbsLFy5Mimrwzh4YK2yKNChQiqSL3xCAAAQgUCUBbX/TjGvGKVAk/ieffHLQlouf999/f5AsDUOuqkCRA+f1uSg4koys+lC7ss2WmIceeih4JkqDJHPooYcGdq0CRSZgqL+y9VecnGJXV8sKm7RG7Kr/MuGkKPO73/6ut/feewdhaZjhrVmTwk8rryb5Mco7FCij0Gq4XVu4mFHa8Mwk+hCAAAQgAIECCVihO03npMCo4DUECiegMjIKw9dQKw/pzCaZJAWKuPve977X1zGWFR5i4hQoe+21V2A/aVan+HHYYYcFdsU/MR/5yEeCZ9dee63/LOqfzADVjrpVoMyaNSt4ru/TXNN29hf9bFGf/3ZP9Kh4ZnmGAiULPdxCAAIQgECdCWjbnKaPkqRAkRWtVmFgD03XMOSqChQ5a0SfJ610FXaPPfZYYFf9sFucypZVScbKSqpAkXPmNPxRrsOUNTYedoLIsccea1/lci9pEH/D8Rcev7zzlyOFkVZeHcnTBMvJUnGCQ141i4AtWGkqmWaljthCAAIQgAAEIJA3AXtmGhMv8qaLf3UioGUdBcpruWL7DUn5NEyBIm7tVhOyr7YMVthBAbsCxQ5i/OY3v0kKunfccccFne85c+b4du2sTD1QNc4T3ULDKlA+8YlPBH6GO/ZJv2XrsTTmvvvu6/NfDpVPa0TZIrNdJd7yN8wtCpS0ZLEHAQhAAAJNI6BtcpqxzSQFiqRbzltT/+T6wx/+0Mdhn6kCRVac6nM5PD7JhLcbFT8uvPDCwL3IR0lGDlHXsFSBIqs29Nko11FWvR500EFBGHKg/ChGtlJVOeXggw8ecHr33Xf37BkrkgZR7px33nmJB8wPePT6g7Tyapz7UZ+jQBmVWEPt24+roUkg2hCAAAQgAAEIlEjArkJhYLlE8ARVOgFVoKTpiJceuQoCTNshTaNAeeCBB4KOuPRHZI/xOAXKlClTArs33nhjYsrtdl26R7fmo4STtALFnmFiFSif//zng/D322+/3lVXXZXq79FHH02Mq31p9/kWJVBaYwddZHBCBmaSDAqUJDq8gwAEIACBJhPQ8c00ctswBYpwOOKII4L2X9rpp59+OvgtYakC5YYbbgiei79J5sEHHwzs6rlnIldo3IetQJk5c2ZgVxUoz/7p2eCZ+HPFFVekklMWL16cFNW+d7KqVuMo8oZsEZbGyOpeO5HlK1/5Sp8zkevUX73KJJrnnnuuz94oP9LKq6P4mWQXBUoSnZa8s4UqTQXTkmSTDAhAAAIQgAAEMhKwMgSrUDLCxHltCWhHDjn5tSyy331SpqVRoIj70047ra/T/JnPfCb4bVegzJgxI3iedDCq+GlnMMrsUTEy21Hzcv78+f6zqH8yA1LtWQWKHTT45Cc/GeU0eCYrQmQvdPmTQYO0xsZRBiaefPLJVE7t9mTDZq2KhyhQUmHFEgQgAAEINJCAtuFp5LY0CpRnnnmm7yBzq1CRsFSBIhMmNGxZFZpk7GqV3Xfb3be6YsWKwL2sCkmSH/bff//AripQxBM7EUMmqcQZ8VvllBdeeCHO2sDz8GrZL33pSwN2oh7Y7cmE0S233BJYW716dV+8ZcXx7bffHrwf9yatvDqu/2F3KFDCRFr4Wz/wNJVLC5NPkiAAAQhAAAIQyEBAZ3WzCiUDRJzWmgCycn/2pO2QplWgrF2ztieKCuVsr1aBIls/6LukvcWtAkTs6+xIu7Jl++2370+U+XXMMccE4VgFiu38y8BG3ICD7N8tAycaV5llmtbceuutgTtxL2e5JA2giL+XX355nxvZ6mKYQYEyjBDvIQABCECgqQS0/U0zxplGgSIcrMJD/derKlDEnkx+0OciN8SZ6dOnB/Y0nuKPupWrtO9RZtWqVX32rAJF5CP14/TTT49y7j+TA+DVnqzaHcXYw90lvSJ3JRlZRWLjJStRLDO7mkaUJ6LYycOklVfzCEv8QIGSF8ma+lN2gaopBqIFAQhAAAIQgMCYBOxWXtoBGNMrnEGglgS0g0n5fi170vYf0ipQxNfbbrst6Mgrb7laBUp4u6+f/PgnA+VFtq6y56qIAkJNeG/wiy++WF8F13vuuadv8MMqUEQxYrefOPnkkwN39kbOXNE0JClqrBt7v++++wbuxZ+99trL3y7E2tF7WYmjYclVBiiGKVzELQoUJcgVAhCAAATaRkDbxTRyW1oFijAKt88ajlUG2NWycuB61BZUi362qK/tfuihh4IssFuQigwh24WFjQ1D4mAVKN/5zncCv2U1iqzuCBtRwMhEEI1/nKIm7E5/hyd7iBLFxkHtyVXC18l2Gp6k3xrZrkzf3XvvvfZVpvu08mqmQIxjFCgGRttubWFKU7G0Lf2kBwIQgAAEIACBfAhYwTgfH/EFAvUgYBWEbFP3Wp7YPkRSLo2iQBF/7Bkj2pG2ChSxY8MWO6eccoqvDJCtruRck3/4h38IOuHyPrz64+ijj+57f8IJJ/TkQHlRzsg5InbmqLi3ChQJP7za48gjj/TdywDBkiVLevZwVXE/6qCEhCErZiZOnNgXTxkEkQNp5YyYiy66yGdlBxwkLIm7bP+RxqBASUMJOxCAAAQg0EQC0ibKX5pxzlEUKH/4/R8G5AQJxypQHnvssT47kyZN6l1zzTW9Pz7+x55M0pDtQK2sIcoQa1auXNnX/suWpJdeeqkvz4icIbKApk+vVnkhkygkTH0nK2Jl9Ywoae6//35f1rHKE+nDyUrgUc03vv6NIAwNS7YTPeqoo3rnn39+T1a/yDZjNiyxd/jhh/cFJZNT1L1cJT/S/Mmq5GHGyozD7ObxHgVKHhRr6kfZhammGIgWBCAAAQhAAAIZCdhB5jSdlYzB4RwCpRGwZRsFymvY0/YhRlWgyCxN6ejbjnRYgSLbOsiMTGsn7j7qnBRRtNjzUaLcyvYRuod4WIEiBKTzH+Uu/OzYY48du5zKIIfMXA37GfdbmPzmN79JHR4KlNSosAgBCEAAAg0joG1lmj7JKAoUwSBnqKn/erUKFLEjW2nqu6SrtPNRK0QWLFgw1L2cm6J+WwWKhH/HHXcMKC7Urr2KciM80UTcpzWiJLHKIOt31L1MAgmzuv7664N0RLmJe3bggQcOjWZaeXWoRyktoEBJCapp1mxBSlOpNC19xBcCEIAABCAAgXIJ2FUoDDSXy57QiiNgFSjFhdIsn20/IinmckCodnylfkhjrrzyysCNuJUVImHz0ksv9cIrSTQcuYoSRlaVxBk54N0e1m7dyqxNWQGiShq5Rpnvf//7sYMGss2XzDDNw8hqk/DsTRtfGbg48cQTR549as+JkdUu4xqt9+lPjksQdxCAAAQgkDcBbSfTtE1228+rr756aFRkhYe2fRpOWCkgnogMZLf9VLt6/dznPteTbUfjjGxzFdf+ywoP2cZU/briiisGvBHFjD2rRO3KVWSH2bNn957907MD7kZ98PDDD/srTaz/4XuRrWTiRpQRJUzYfprfIscNM2nl1WH+pH2/nlj0Io9pGQFvRpSbN2+enyqyuGWZS3IgAAEIQAACFRC46qqr3LRp0/yQvY6F85aZVxALgoRAvgSQmQd51oWJt02GW758ufNmWjrvQHf3oQ99yG27zbZus/dt5tZbb73BiIeeeLMu3Y033ui8LTXcB//6g27Hv9vRecqXkK34n54ixg/7tltvdY96cZnwVxPcB7b4gJsyZUqq8ON97n/zytpX3H0r7nN33XWXH1dv8MZPq7eSxo9vmrT2+5jfrx122MEtXbrUeYMUzttOIz+P8QkCEIAABCAwJgFtF6tum7ytsdyv7/q1L6t4Z3u4TTbZxEnbvdVWW7kNN9xwaOq87a2cNyEk6FNJm+spI9wGG2ww1K1a8LYodd6ZJe6Xv/yl7+4973mP23PPPd073vEOtZLL1Vsh7MspIquIfCXylKTzQ1t+yL3lL9+SSxijelK2vIoCZdQcaoB9W4iqrlAagIsoQgACEIAABCCQkoAOpol1b+a+mzp1akqXWINAPQlYuZlJR6/lEUzqWVariJXW+fQpq6BPmBCAAAQgEEWgLgqUqLjxrDwCZcurKFDKy9vSQtLKRAKkI1gadgKCAAQgAAEIdIKAyhmsQulEdrc+kdr5ojyvy2plIk/oS6zj0sU7FChdzHXSDAEIQKDeBLQvgnK/3vlUdOzKlldRoBSdoyX7bwsQlUnJ8AkOAhCAAAQg0AECVtZgFUoHMrzlSdQBYhQo6zLafuMoUNZx6eKdfh/0K7uY+6QZAhCAQD0JoECpZ76UHauy5VUUKGXncMHhaUUiwdDhKRg23kMAAhCAAAQ6SkDlDQadO1oAWpRsBogHM7PsDulgDHhSFwJ8H3XJCeIBAQhAAAJKQPshKPeVSDevZcurKFBaVM5s4aEiaVHGkhQIQAACEIBAzQhYmYNVKDXLHKIzEgE64YO47PfNhKxBPl16ggKlS7lNWiEAAQg0gwCyWzPyqehYli2vokApOkdL9J9KpETYBAUBCEAAAhDoOAGVO1iF0vGC0PDkazlm8tG6jCy7Q7ouZO7qRgAFSt1yhPhAAAIQgACyG2VACJQtr6JAaUm5swWHDmBLMpVkQAACEIAABGpMwMoerEKpcUYRtUQCdMIH8dhvmxUog3y69AQFSpdym7RCAAIQaAYBZLdm5FPRsSxbXkWBUnSOluQ/FUhJoAkGAhCAAAQgAIGAgMofrEIJkHDTIAJXXXWVmzZtmh9jlIDrMq7sDum6kLmrGwEUKHXLEeIDAQhAAALa/2DyeLfLQtnyKgqUFpQ3W2ioQFqQoSQBAhCAAAQg0BACVgZhALohmUY0AwIoUAIUevoefQAAIcBJREFUfTf2u2YFSh+azv1AgdK5LCfBEIAABGpPAAVK7bOolAiWLa+iQCklW4sNhMqjWL74DgEIQAACEIBAPAEdYGMVSjwj3tSTgFWgoChYl0dld0jXhcxd3Qho/c4kvbrlDPGBAAQg0F0CjIF2N+9tysuWV1GgWPoNvLcFBsG2gRlIlCEAAQhAAAINJ2AHoVmF0vDM7Fj0rRyNAmVd5sNlHYuu36FA6XoJIP0QgAAE6kcABUr98qSKGJUtr6JAqSKXcwyTiiNHmHgFAQhAAAIQgMBYBHSQjVUoY+HDUUUEyu54VZTMkYOFy8jIWutA63Ym6rU2i0kYBCAAgcYRYBy0cVlWSITLlldRoBSSjeV4WnZhKSdVhAIBCEAAAhCAQNMIsAqlaTlGfIUAsnR0OYBLNJcuPkWB0sVcJ80QgAAE6k0ABUq986es2JUtr6JAKStnCwiHSqMAqHgJAQhAAAIQgMBYBHSgjVUoY+HDUQUEyu54VZDEsYK0ClG2NhsLYWscab3OCpTWZCkJgQAEINB4AoyFNj4Lc0lA2XI8CpRcsq18T8ouKOWnkBAhAAEIQAACEGgSATvoylkoTcq57sYVeTo67/mWo7l08SmDVF3MddIMAQhAoN4EVLnPpK1651PRsVM5vqxygAKl6BwtyH+E2YLA4i0EIAABCEAAAmMToEMzNjocVkBAO14SNCst+jNA+xooQ/u5dOkXirQu5TZphQAEINAcAvQ3mpNXRcZUy0FZq2RRoBSZmwX5TWevILB4CwEIQAACEIBAJgIMuGXCh+OSCSBTxwPXTmlZs/riY8KbqgjwfVRFnnAhAAEIQCCJgO1vMAEmiVS73+lkHxQo7c7nTKkru5BkiiyOIQABCEAAAhDoFAGVUxh47VS2NzKxDBDHZ5sqUMQGgxPxnNr8RssAdXmbc5m0QQACEGgeAatAKWvwvHmU2h1jK8OXtVqaFSgNK1O2kFBRNCzziC4EIAABCECgAwSsrFKWQNsBrCSxAAK2rKIk6AdsBycYQO9n04Vf9tugz9mFHCeNEIAABJpFQJX8Emv6G83KuzxiqxP2ypRRUKDkkXMl+mGFWTp6JYInKAhAAAIQgAAEUhNQoZaB19TIsFgBAeTqZOiWD4MTyaza9lbr8DIHJtrGkPRAAAIQgEBxBJjoURzbuvts5dMyx8VRoNS9ZJj42QoCYdaA4RYCEIAABCAAgVoRsLPCyhRsawWByNSegHbAUPTFZ5X9llGixHNqyxvpb86ZM8ctXbrUTxL1d1tylnRAAAIQaB8BleMkZYyRti9/o1JUZZ6jQInKkZo+swUFYbammUS0IAABCEAAAhBwdtIHg64UiLoSUNkaBUp8DtlvWWwxQBHPqulv9HvQdJDXSoIrBCAAAQjUlYCd6CHy3OzZs93UqVPrGl3iNSaB8ASPKmQUFChjZl4VzlhKXQV1woQABCAAAQhAYBwC2qFhcHocergpg4AOGFNGk2krJ2urio6rDZ/7/AiEByXEZ/I3P774BAEIQAACxRIIyynShk2ZMgVFSrHYS/FdZJRFixa5efPmBeFVpShDgRJkQb1vbIXA6pN65xWxgwAEIAABCEDAsQqFQlB7Aipfo0BJl1XKK2xb+GGaSUC36tLYVzUooeFzhQAEIAABCIxDABllHGr1dhOWUSS2Ve5sgAKl3uUliB2rTwIU3EAAAhCAAAQg0BACrEJpSEZ1NJra2UaBkr4AKLP0LrDZFAKsOmlKThFPCEAAAhCII4CcEkem2c/rIKujQGlAGbIVAIJtAzKMKEIAAhCAAAQg4BOw5ydUOWOI7IBAFAGVsevQKYuKX92f6bYKEs/FixfXKrp21qLkL2aQwE477eRvcSJv2C9+kA9PIAABCECguQTqLKOUSVXloSbKQnKejZi6yCgoUMosuWOGpbM3xTnbd40JEWcQgAAEIAABCFRCQFfRMkhdCX4CTSCAAiUBTsNfab3D5LOGZyTRhwAEIAABCEBgbAIqDzGRbWyEgUMUKAGKet5ox05iRwegnnlErCAAAQhAAAIQiCfARJB4NryploCWTZR71eZD3qHb/hOTz/Kmi38QgAAEIAABCDSFALJufjmFAiU/loX4RAegEKx4CgEIQAACEIBASQTsNl5MBikJOsGkIkCnMhWmxlkiXxuXZUQYAhCAAAQgAIECCNh+GKtQsgFGgZKNX+GudbkVAw6FoyYACEAAAhCAAAQKIsCAZkFg8TYTAcplJny1dUz/qbZZQ8QgAAEIQAACECiZgMpFrLjOBh4FSjZ+hbpm9UmhePEcAhCAAAQgAIGSCDD7qSTQBDMSARQoI+FqhGX6T43IJiIJAQhAAAIQgEBJBJB38wGNAiUfjoX4olpCVp8UghdPIQABCEAAAhAokQDCe4mwCSoVAcpkKkyNskT/qVHZRWQhAAEIQAACECiYABPZ8gGMAiUfjrn7YmdPoUDJHS8eQgACEIAABCBQMoE0wrvYUbNo0SL/dvHixfoouO60007B/ZQpU/z7qVOnBs+4gUAaAihQ0lBqlh0UKM3KL2ILAQhAAAIQgEDxBFQ+Yhuv8VmjQBmfXaEutXCjPCkUM55DAAIQgAAEIFAiAZVvrPAuSpM5c+a4pUuX5hITkZ3EzJ07Nxf/8KS9BFCgtCtv7QS0Xq/XrsSRGghAAAIQgAAEIDAmAWTeMcEZZyhQDIy63NoZmihQ6pIrxAMCEIAABCAAgawEVHgXf0SJMkxpInaskZUnuiJlmFtxhzLF0uM+TEAH3K1CL2yH380hQH42J6+IKQQgAAEIQAAC5RGw48xMMhmPOwqU8bgV6kqFfwmEgl0oajyHAAQgAAEIQKAkAkkrTVRRMnv2bD82o27HJX7rll/z5s2LTBGTUiKxdPohMne7sl9XuPGttytfSQ0EIAABCEAAAtkIWAXK//zP/7hR+1rZQm+HaxQoNcxHhP8aZgpRggAEIAABCEBgLAJxihNRmoyrMBkWEVWoyGqV8EoVBleH0evOexQo7clrOzDAN96efCUlEIAABCAAAQjkQ0B3AmDl9Xg8UaCMx60wV7Yjh/BfGGY8hgAEIAABCECgYAJRihNVmpQ968nKV5ps5Cwl0d2rLRes+m52OSAvm51/xB4CEIAABCAAgWIJoEDJxhcFSjZ+ubtG+M8dKR5CAAIQgAAEIFAyASvPaNB1UFjUNV7KiGu5BOyqBRQo5bLPOzQGBfImin8QgAAEIAABCLSJgJV72cZr9JxFgTI6s0JdsH1XoXjxHAIQgAAEIACBAglErTqpg+IknOSwIqWOcQzHmd/5E7AdSRQo+fMt00f6UGXSJiwIQAACEIAABJpIQOUlFCij5x4KlNGZFebCduYpzIVhxmMIQAACEIAABAogYAejxfuqtutKmzSRu+wZKShR0pJrjz1bZpG9m5uv9KGam3fEHAIQgAAEIACB8giwYnd81ihQxmeXu0sr/DMLLne8eAgBCEAAAhCAQEEErAwjQTRJGWHjXnelT0HZ11lvUaC0I+vtN0wfqh15SiogAAEIQAACEMifADLT+ExRoIzPLneXupSqSYMOuUPAQwhAAAIQgAAEGkXACuIS8SbO5A+nAVmsUUVw7MiiQBkbXa0c6mxKvttaZQuRgQAEIAABCECgZgSQfcfPEBQo47PL1aXtuDNzKle0eAYBCEAAAhCAQEEEdOBSvG/66g0ri0l6GIwVCu03OoGpiYq/9udOuhRqHvLNpuOFLQhAAAIQgAAEuksAuWm8vEeBMh633F1pp10GH5YsWZK7/3gIAQhAAAIQgAAE8iSgsov42Rb5xc7KknQxICsU2m3oRDY7f209xCS0ZuclsYcABCAAAQhAoHgCOgGuLf234om9FgIKlLJIDwmHztsQQLyGAAQgAAEIQKA2BOygZRuVDNqxEOCsTKhNsSskIsjghWAtzVOtixgEKA05AUEAAhCAAAQg0GACdsIYk0/SZyQKlPSsCrOpgr8EQOEtDDMeQwACEIAABCCQAwErt7R10NJ2LAQZ8lkOBaemXqBAqWnGpIwW+ZcSFNYgAAEIQAACEICAR8D2c5golr5IoEBJz6owmzrLsY0zOAuDhscQgAAEIAABCJROwArcEnibFQs2rW1VFJVegGoYIHJ4DTMlZZTsN0o/KiU0rEEAAhCAAAQg0HkCKv/Sx0lfFFCgpGdVmE1mThWGFo8hAAEIQAACEMiRgMos4mUXZizZ1TYM0OZYkGrkFR3IGmXGiFGx32eblbkjYsE6BCAAAQhAAAIQSCSA/JuIJ/IlCpRILOU9RPAvjzUhQQACEIAABCAwPgEVtMWHLikTrKzWpXSPX1Ka5VLLNTPwmpVvElvyrnl5RowhAAEIQAACEKiegF3F24VJcXkQR4GSB8UMfuhMTjrkGSDiFAIQgAAEIACBQgl0XYmgA7UCmU5GoUWtdM81b1GglI4+c4D0ozIjxAMIQAACEIAABDpKQOUo+jbpCgAKlHScCrFlNX4oUApBjKcQgAAEIAABCORAQAXsrsorVmZjoD2HAlUjL1Cg1CgzRoiK/Sbp+I8ADqsQgAAEIAABCEDAI4AMPFoxQIEyGq9cbdvZnOzbmytaPIMABCAAAQhAICcCVl7pqgJFUFoODNjmVLhq4I3mK4qxGmTGCFHQfBMn9KNGAIdVCEAAAhCAAAQg4BFQBYrAQJYaXiRQoAxnVJiNrs/mLAwsHkMAAhCAAAQgkBsB5JV1KJUFg+3rmDT9joH4Zuagdvq7rNRtZs4RawhAAAIQgAAE6kCA1byj5QIKlNF45WbbdtYQ/HPDikcQgAAEIAABCORIwMorzExiFUqORas2XlHGa5MVI0VElZn0o0bChmUIQAACEIAABCAQEFB5itX1AZLYGxQosWiKfUFnrVi++A4BCEAAAhCAQHYCKlQzSLmOpc58ZxXKOiZNvrOz71ASNiMnbZ7R4W9GnhFLCEAAAhCAAATqR4B+Tfo8QYGSnlWuNhmQyBUnnkEAAhCAAAQgkDMBJntEA2XwNppLU5+Sn83LOeqm5uUZMYYABCAAAQhAoH4EUKCkzxMUKOlZ5WbTdtSY0ZkbVjyCAAQgAAEIQCBHAkz2iIdJZyOeTRPfaFlnNUMzck8VKKwCa0Z+EUsIQAACEIAABOpJwI5PsxI7OY9QoCTzKeStCv3iOQW0EMR4CgEIQAACEIBABgJWmGayxyBIFCiDTJr8RBUolPVm5KJ+f+RXM/KLWEIAAhCAAAQgUE8Cts/HRKLkPEKBksynkLcq9DNrqhC8eAoBCEAAAhCAQEYCTPZIBkhnI5lP096qbM6AfDNyDoVXM/KJWEIAAhCAAAQgUH8CKlehQEnOKxQoyXwKeauFk05aIXjxFAIQgAAEIACBjAQYUB4OEHluOKOm2NDyzuSm+ucYysv65xExhAAEIAABCECgOQSQg9PlFQqUdJxys2VndKLdyw0rHkEAAhCAAAQgkCOBKpUDa9esdc8+96yfmo022sitv/76OaYsP6/obOTHsmqfyMvyckAUIGoWLVqkt8F1ypQp/v3UqVODZ/bG9qXYCtmS4R4CEIAABCAAAQgkE7BymNgUWWzevHm+I5lINHv27MCDOFkssNCxGxQoJWc4Qn/JwAkOAhCAAAQgAIGRCFQtq8ydO9d94Qtf8OP8kx//xO39sb0j4//888+722+/3d1yyy3uiSeecBMnTnR//dd/7T74wQ+6N7/5zZFu8nxoZ8IzkJsn2fL9qrrMl5/i4kPUDvqcOXPc0qVLMwUoq/bFSN1AXmVCiWMIQAACEIAABDpCQGQxUZAsXrw4V1msI/gGkokCZQBJsQ90hhvbdxXLGd8hAAEIQAACEBiPgA5QVrWd0SmnnOJmzZrlR/6yyy5z++yzT19CnnzySTd9+nS/Q9D34vUfEyZMcOeee67bc889o17n9swqUFhVnBvWSjyyeYkybPwsEI6iMBGTVmki9cwo9n3L3r+q6icNnysEIAABCEAAAhCoG4FxZbG0cpuk105sqVv6i4wPCpQhdKXwidEl5qK5U6MFTAX/nXbaSV+5uOXnVW6JEUSOGwhAAAIQgAAEIBBDoOrJHkkKlMcff9x99KMfdXfeeWdM7Nc9PvXUU/3Z6uue5H+HXJc/0yp8tAoUlGGj54AqXaNcSj9J+kjaNxI7w7aECPe/dGuJKP+ZlBZFhWcQgAAEIAABCHSFgCpNdIw6nO5RZTGVw8QfHQuPk8XUb1kl3HaDAiWUw1pQ8lhurl6rdk5+a6FjdpvS4QoBCEAAAhCAQJ0IVK0USFKg/M3f/I1bvnx5gEu2+pr8d5Pdu//q3e62225zJ510klu5cmXw/ne//Z173///vuB33jdVK5vyTk9X/RP5f9q0aX7yUaCkLwVxihPpTMse2sMUJelDes2mhBe3DQWKlFFpYh8CEIAABCAAgSYTiFOciBwmJm9ZTMKL2xJMx73brEhBgeIVKi10UsDiNHbyTguh3NvVJvJbV6YkuRd7auicKQmuEIAABCAAAQjUiUBdFShLlixxO+64Y4Aq6nwUWaEiZ6CsWrXKt3fIIYe4888/P3CT940qUERGlPhhmkug6nLfJHLad7L9nqKUJnFcRJkiRienyb3EQfpobe68SzoxEIAABCAAAQh0m0DUJJYqZDErh0mOtHlCS6cVKFHCv36CWvDk97izp5K0c+JvFzR0kk4MBCAAAQhAAALNIaADyUVO9njsscfcTTfd5H7xi1+4p556ym233XZul112cZtvvrmLW4Eyc+ZMJ9tyiTnssMPct7/97Uio3/zmN90RRxzhv9t6663dHXfcEWkvj4coUPKgWA8/NC/b3PHLSjqq76R9pnH7S1njFLUqhT5WVqq4hwAEIAABCECgjgSiFCdVy651jFMheedtJdU54w0I9Dxhv+cB7fuTZ/KuKOMV6p78hcOVZxgIQAACEIAABCBQNQGRg1ROKUomuuSSS4IwNCy9euck9I4//vjgvXeIfIDkwAMPjHweWHj9xlsVHNgTf4s0KteJDIlpNgHtG5CX0fmoZV2/1aL7TdGxiH8ajp/Ekz5WPC/eQAACEIAABCDQLAIqqzZJFiuqP1lFzhXbq6wiRQlhSsbVpcAh5CdkFK8gAAEIQAACEKiEgFWgFBGB+fPn9yk3tAMQd7UKFO/w+MCtdw5KbPSsgmazzTaLtZfHCyvP5eEfflRHQPsIcsX0E1A28p3KfZ07w/ablPiiROnPS35BAAIQgAAEINAsAuGxbGSxavKvM1t46bJ8T5D2jVfgcj9QR/0e5dqZpU6jQMEuBCAAAQhAAAKVELByiSea5hoH2bbr3e9+d+CnnGfiKVTch7b8kHvyqSfdN77xDTdnzpzgvdx4ChS3zz77BM80TrrNWPDi9ZtXX33V7brrru6GG27wn+y3335u4cKFYWu5/ZYtjfTwcY1bbp7jUakEiiz7pSYkx8DCW3ZJ/6kpZ/3Yvp+nROFclBzLBV5BAAIQgAAEIFAOAdvXkBCbItNYubpJ8U7M1Wr0NuWFGtbUeTBqOROJ2VLllQlCggAEIAABCEAgmoCVR6JtjP/U+j158uTempfXDHh2xhlnBKtMRGazK1AGLIcerF2ztuedfdLn3ut0hGzl+7PoFTv5xhbfkgiQl/10LI+69p/6Yzz4y9Y5dZ+tORh7nkAAAhCAAAQg0GUCVo5poiwWHo+X9DTZtHoFShM1dVZLV5dVMt6HioEABCAAAQhAoAMErOzkCbi5pVj8etvb3uaefvpp38/rfn6d23mXnQf8f/nll/2D5B988EH/XXgFyoCD1x/cfffd7jOf+YxbunRpYOXQQw91CxYsCH4XcWPltjx5FRFX/EwmYMu+1+FzVR2KnhzLct7aci0heh3exq7gaFNaysl9QoEABCAAAQhAoGoCYfmlybKpTUuTVjOHy0BrFSg2gyTRTRL8mxz3cAHjNwQgAAEIQAACzSFQ1CDyww8/7DbZZBMfxIQJE9wf/vCHWCgzZsxw5557rv9+mALlmWeecSeddJL72te+1uef+DH/G/PdG//sjX3P8/5hZTYUKHnTLde/osp+uanIHpot0+JbkzvsSqONadK0cYUABCAAAQhAoF0ErNzSZIWDzZU2pKmVChSbMZJhTRT8w2lokgLIfiTcQwACEIAABCDQHAJFDSJff931bpddd/FByNknN910UyyUL3/5y+6EE07w3ycpUP7zP//TzZw5061atSrwa9NNN3Wnn366k7NPyjAqr7Wlc1MGszqHoWfrNLHvkAdX+/23bSW8TZuwQuGZR4nBDwhAAAIQgAAE8iSgfQvxs23jwDZtTew7tU6BYg8MbLrgHxb02/bx5FnJ4BcEIAABCEAAAvkQKGIQ+aKLLnKf+tSn/AjuscceTmScOPP1s892nzvqKP91lAJFtgH7l3/5F/ejH/2oz4tZs2a544873r3lL9/S97zIH9oRaGInoEguTfVb+xFdlbn125f8a6MSyfat+Gab+pUSbwhAAAIQgEA7CWi/QlLXVjnFprFp8narFCg2I9pU2LQzJx9R0wqYxBkDAQhAAAIQgEBzCOggap4DqFdffXVwpsSwFSiiCDnllFN8YGEFyuOPP+7+9m//1q1YsSIA+vH9Pu7OOPMM9973vjd4VtaNymhtkjvLYlfHcLqcn5p2yZc29zdsf7HN6azj90WcIAABCEAAAhCIJmAneYiNNq+UbarM2RoFStuFYVvA8hzQiP50eQoBCEAAAhCAQFcJqAIlz8HF+++/32222WY+0ne+853u0UcfdRpOmPM//uM/uksuucR/bBUo0pGYNm2aE2WMmLe+9a3unHPOcQcccID/u4p/Kp/lyaqKdBDmawQ0P7umEGt7PypcvruW3nD6+Q0BCEAAAhCAQL0I2H5RF8Z8VeaWXGhKeluhQLFCcJs7PF37oOpVnREbCEAAAhCAQDcIqECbp0z16quvuje84Q0BwMsvv9zttddewW+9Wb16tRMFixqrQLnmmmucbP8lRpQn1113ndtmm23UaiVXlc1QoFSCP/dAbZ+izTP/LDib5i6VY63nhEWX0m3znnsIQAACEIAABKon0EWZJLzipglKlMYrUMLQ29zZsWnNc1Cj+uqCGEAAAhCAAAQgUBcCKsTnLWt8+tOfdnLwu5jtt9/e/exnP3MbbbRRX7IPO+wwt2DBguCZVaAcf/zx7j/+4z/8d2Ln0EMPDexVdYMCpSryxYRrZe029ymUXleVJ5p+revkdxfyW9PNFQIQgAAEIACBehDosixm5e68+51F5G7jFSjacRU4TdBYZc1E+3E1oYBlTS/uIQABCEAAAhAol4AVZvOUrR555BE3YcKEIDFbb721mz17tttuu+3cypUr3Zlnnul+8IMfBO/lxipQdt55Z3fDDTf47ydPnuw22GCDPrtRP971rne5iy++OOpV5mdWJmPwNTPOWnhQVNmvReIiItH1Mmzzm1UoEQWERxCAAAQgAAEIFEpAx7S7KodYWTTPfmcRmdZoBYqdNdSlwmYLWJfSXcQHgJ8QgAAEIAABCAwSUGE+b0H23HPPdTNmzBgM0DzZfbfd3TXXXuM/UQXKyy+/7N70pjcZW+luRWHzhz/8IZ3lEW2pPMaElhHB1dy6lv22y9hafiU72p7WpCJn+5N513dJ4fIOAhCAAAQgAIFuE7CyWJcnY6ksVvc+VWMVKLagdVHot+lH2O92pUvqIQABCEAAAnkTKFKQ/fmin7sD/+lAt2rVqoFon3/++W7jd2zsPvYPH/PfXXHFFW7PPfd0d9xxh9t2220H7A97sOmmm7oHHnhgmLWx3ndloH0sOA12VGTZrxMWLb8Spy532u0qlLp33OtUfogLBCAAAQhAAALZCKgs1sUxbUvOymJ1Ht9urAKFguacMkDYt58e9xCAAAQgAAEIZCVgJ2oUMbj64osvumXLlrklS5b4UZVB60mTJqXalitr2vJwb/nUWdDPI61d86MLChRbfrveaZfybXnwPXftiye9EIAABCAAgfIJWNmjiL5W+SnKFmIT5O9GKlBsQeuy0G85IOxn+1hxDQEIQAACEIDAOgJNmQm0Lsbl3lkZjE5PueyLDs2W/bbmrU7C6nI/KlyOlAkT08Jk+A0BCEAAAhCAQJ4ErKyJLPYa2SYwaaQCRQVcCppzTdDS5VnR4BcEIAABCEAAAuUQQMaI54wsGs+m6W9sB66NE5Ss8o++1LrSarm0Md/XpZQ7CEAAAhCAAASqJGBljrZO1hmHr/Y9xW0duTROgUJB6y+Gbe/k9aeWXxCAAAQgAAEIlEXACrEMKK6jbmVRBqDXcWnTnSrI2lju9bum7A6WWM13VqEMsuEJBCAAAQhAAAL5EFB5A1msn2fdx7cbp0ChoPUXMPmlHSGE/UE2PIEABCAAAQhAYDwCVohFxljHEFl0HYu23rVZtqb8xpfaNud7fKp5AwEIQAACEIBAWQTsRKw6rrIoi0NcOHWWxRqlQKGgRRcxO8DRxply0anmKQQgAAEIQAACRROwshcyRv9h08waK7r0Ved/nTtvWajY75lO+yBJ+lSDTHgCAQhAAAIQgEB+BJDFklmqDC626iarNkqBwoyp+IKmhYwZovGMeAMBCEAAAhCAwOgEVP5CxnBOWaA8Gb0cNclFWzu3mi6+5fjSqN84CuN4RryBAAQgAAEIQGA8Aipn0JeI5lfnySyNUaBYiBS0wYKmChR5Uzct3WBseQIBCEAAAhCAQFMI6KCrxLfLg4qWA7JWU0rvePG0/Y42lfmqO+3y3Tz99NN+pvzFX/yFe9Ob3jReBhXoSvtUKJkKhIzXEIAABCAAgQ4SsPJlFePaL7zwgnvppZf8CWFvfetba5sDKq/WTRZrjAKFTmty2bYfYps6esmp5i0EIAABCEAAAmUQYFCR1SdllLO6hNFGudr2parqKyxbtsx9+MMf9rP5mGOOcV/72tf6svyRRx5xzz/3fN+zqB/rrb+e22yzzaJeZX5m8x5FaWaceAABCEAAAhCAwOsErCxWhYwxdepUd/XVV/uxefZPz7q3/OVbIvPm8ccfd7fccou79dZbfWXLFlts4T7w/g84ub7hjW+IdJPnw7r2OxujQFGAVWjppCA0YcZUXbV0eX5I+AUBCEAAAhCAQPkE7KBiVbJY+aleF6LKofKkig7PuphwVxYBlavbUt6r7rRLvi1dutTJtyTm6KOPdqeffrp/r/+22WYbd+edd+rPxOsfH/+je/v/eXuinXFe2rquKkXTOPHGDQQgAAEIQAAC9Sag/YmqZMs9dt/DXXPtNT6kZ555xm244YZ9wJYvX+6mT5/uVqxY0fdcf0yaNMl997vfde9///v1USHXuspijVGgVN2JacKMKf0Y67bMqZAvCk8hAAEIQAACECiVgMoZEmhVgn+pCX49MDvw3KV0V8G6TmFqeW+LXF2H9AxToGh/L005WL16tXvHO96RxurIdpQV3/vI6HAAAQhAAAIQgEAMAZVzqpIvkhQoMua92267BVutxiTBf3zdz69zO++yc5KVTO/qqkD5fwAAAP//oq/vogAAQABJREFU7L0J0CVFlbCdzTgOOEO4o6MGKn5tiKDYfuBvK43QIN0IIoMQEDgMIsGiLIa4ITC0DUOMdDuIo6gwgGCgoAjhKCiL0yqN9PvRQAMNIiAIogiCCEizCHL/OsWc6nPrVt1abtat7cmI960t1yezbp6TJzNr1iBwruHuU5/6lFu6dGmYy7qyOzMz4+bOnRvm4WMf+5g78cQTh6i95S1vcddff/3QvbSLPz7wR/eiF78o7XHp+xdffLHbYYcdwvA/+tGP3MKFC0vHRUAIQAACEIAABCAQJyCykMhE4voga1gZ9JOf/KRbsmRJHAnXHSWgdf/2t7/drVixovWl1He3znY8Tp+699573T/+4z+GnDfbbDO38cYbpzJfZ5113GmnnebWW2+9VD+TPFBWXan7SVgQFgIQgAAEIAABPwRmzZoVRlSXDrVg+wXu0ssuDfPwyCOPuPXXXz88/+1vf+s23XRT9/DDD4fXr371q92HP/xh9/b/7+1unb9Zx1122WXuuOOOC5/JP5HRbrj+Bvecv31OdM/3Sd2sEssjBpSmu0DQFyPPIBBia8tqoDiFeZB8BAaUkXzI/bx/999//0h4Xzc0D8EL6StK4oEABCAAAQhAAAIhAZEvVNaQY5flDZU/pZxyjusXAdvWu1ByfW/rbMvj9Kmf/exn0W/L6aefXity0TmFV526Z60ASBwCEIAABCAAAa8ErFxZl/60/bu3j2StwIASle/444+P7r/iFa8Y3HHHHdEzPVm+fHnkR2Sks846Sx9VcmyC3Bov2Cy5EWSs0U5nAQUCf20z/9o2Y6pOVo1uTGQOAhCAAAQgAIGJCNgVr12dod2HMk7UCHoQ2LaBQNFt/cpunclXtY6w5tE1bub/zYSrdgIF3L3hDW9w22yzjXvrnLe6lVevTF3Rf8YZZ7j99tsvbFk///nP3Tve8Y7aWlnXVh/VBpKEIQABCEAAAhAICVi5ssph+FtuuSXcLWDlypVOVuxuueWWoRz20pe+1KWtQNExd8noueee6/bYY4/EWtt9993dd7/73fDZYYcd5r74xS8m+vNxU/NUtdxaKK9xi0oTr3UWUACutuwxY6o29CQMAQhAAAIQgEDDCIhMFgic4V/XZmnbGWJSxrpmiTWsynuZHW3jdeogvsBrWapsz7/4xS8GwbYP0W+DpilHuX/mmWdGz+Ir+o844ojoWbDdsa9il4rH/r6VioBAEIAABCAAAQhAwBCoWrZ45plnwhXzVvay58HkkEHaChRZdaJ+g228TK6HT4899tjIn8RVpVM7QJP0zFasQGHGVNCUczq10gWNrBP7NecsNt4gAAEIQAACEJgyAZ2lLcl2Re6ws8OkXIGyU9vqZ0kfVy+BrsjVtl1XtZpGVuvL9xd1/+ysmot/U1JnNW6wwQbuvvvuc3/+85/d6tWr3d133+1e97rXuU022aSyb57E82p5BYMD8cdcQwACEIAABCAAgUIErN7kW7aQ+Pbaa69w9UjeTNlvoOiY+/Of/3z30EMPpUZxyCGHuJNPPjl8vu+++zpZPVyVa6QMXqXFyFfcQYWEVq4qZ391bcZUk6x0vtoB8UAAAhCAAAQg0CwCdjaVyGtVzm6vuuTxslQpd1ZdFuL3Q0DkaWnXbZer5b1UfcoPmdFYgg+/R2nITMaLLrpo8Nhjjw3WrFkzCLaDGARKefRc8hJfgTJnzpzouXLXPOtx5513Htx1112jiXu+Mw1enrNMdBCAAAQgAAEINJiA6hlVyJQXXHBBJEOJzHTAAQcM7rzzzpDG7bffPthll12Gnosf+w0U8SgrWOQvzd17772DYJJLFM9/fvGLaV693K+SV9kMurIBpxlOheaqlHLZnisu1GuaSce4wL/bbruFjUgakzhpiMHevaGyEOw7FyoP0+KljUzyjYMABCAAAQhAAAJVE7Cyh8gfct02Fy9DVTJn27j0Pb9dGUi37buKOhVjiepMolPdc889I8lce+21kR/xG9en8upi4u973/veSPw+b9h657fAJ1niggAEIAABCPSTgMpiVRhQNt9880jGkq264k4MI3EjStyAEg9jr++///5B8G26KA2RxX7/+99bL97PlVeTxrYbP8o+DQGWGVPe2zoRQgACEIAABCDQIwJWyG2bEcXOdq9CqelRM+hcUaehh0wDmi1HFentuOOOkVK9aNGi1CSCbboif9aAEmzZFd2X3w9RzPfZZ5/BKaecMjj99NPDc7mvf/K8ypUoVfNKBcQDCEAAAhCAAAQ6SUB1Jd+6hkzat/JR2jdMbrrppsif+M9rQJFJK/YbKRL27LPPrryOlJek1xTXnJykEKlagGXGVAp4bkMAAhCAAAQgAIECBKzMJsKuCL5NdpJfazxpen6bzLLLeZO2LH/SXtrq7LtZRTk22mijSCmXrSLSnCjcytMaUK688srovnxsXrZWjjsZIBDDiYaX7byqck1U2qsqK/FCAAIQgAAEIFA9gapki7POOiuSjT7wgQ+MLcjs2bMjv1kGlF/d9qvBTjvtFPlX+Usmt0zDKS/fBqdJ8t57A0qXZ0xVoSBN0tgICwEIQAACEIBA9wlYo4QI200zTIh81PQ8dr+VtKeE2laapMAVpVelAeWpvzw1pFzLdZpbvnx55NcaUJ5+6unBH/7wh8Ftt946CD5emhZ8cOqpp0bhxZhSlVOlXX6/cBCAAAQgAAEIQGBSAlYWmzQuG/6YY46JZKMjjzzSPho5nz9/fuQ3zYDyxBNPDGQbMDWY6FG28Lrh+htG4qzqRhPl78ZLhVU1Mq3krs2YqpqXcuMIAQhAAAIQgAAE0gjYAUgVvOs2pIiMpMK45kmu5T4OAmkEtM3Isc1O27zv9v6b3/xmSMkex2j1Dasjv9aAMi6MfSbbUmg55PjrX//aPvZ2rr9fba9zb0CICAIQgAAEIACBiQhUNVa77777RrLRCSecMDaPu+66a+Q3yYAiK4DtJy5E1pLtu2Q71XEfmB+baMmHKn/XrT/a7LfKgOJb4GfGlG0KnEMAAhCAAAQgAAG/BHQg0g56TlsQFvlRhXCbD99ypV9yxNYUAlbhbXOb0bbv+/17/PHHI2Vc0hi3AuWSSy6J/JYxoEibsNt4iUGmCqe/WxhQqqBLnBCAAAQgAIH+EahKnvz0pz8dyVZZK1CsPhQ3oFxxxRVRPCozHnXUUYM1a9bUUlmaB99y6ySFmSWBg4w12s2aNSvMX9Dg3MKFC73l9e6773YbbrhhFN84FDeuvtG96c1vCv0GAr878cQTo3B5ToLG6QKBP/IazJhyr3nNa6JrXyfBUiu3dOnSMLpx5fGVHvFAAAIQgAAEIACBLAJWPlG/gRDv5s2b54Ll5F7lO4n/4osvdosXLw6TmpmZ0STDYyCIuyVLlgzd4wICaQSkLe2www7hY9+6SFqaVdyfO3euk3ehivYvOk3wUfcw28HsRbfxxhsnFuErX/mKO/jgg8NnVp866aSTXLBlRHj/8MMPd8997nMTw695dI37h/X/IXomYf7u7/4uuvZ1oqzkN2rFihW+oiUeCEAAAhCAAAR6SqAqefKMM85w++23X0h1t912c+edd14iYRkffvnLX+6CLVPD5zJGvf7664fnDzzwgAtWnrh77rknvN50003dN77xDTdnzpzEuKZxU+0AVcitZfPfawOKCN3rrbdexC6YMeWe87fPia7tyaWXXuoWLFgQ3rICv/WTdf6CF7zABUvPQ2/BjCm36Zs2zQpS+LkOUCDwF0ZHAAhAAAIQgAAEKiQgMoo4negRT0oEZHFFDSqikKgTo0ncYKLPmiSAa544toNAFwbUqyzDtttu65YtWxZW5ic+8YnUd3yLLbZwV199dejP6lNvetOb3I033hje/973vufe9773JTaM//qv/3IHHHBA+Cz4EKq79dZbE/1NelNZ8ZsxKUnCQwACEIAABCCgBNQo4HNCTrByJJyQpmncf//97iUveYleRscLf3Che+/O742urQHlM5/5jPvc5z4XPhPjicRpFwBEgaZ4UgWrSbPfKgNKFUIsM6YmbUKEhwAEIAABCEAAAsUIZBlTbGwyKSTJpRlK1K+GW7RokfcVLpoGx34Q0AH1Nk9QqrIMMktxn332CRuDKNxXXnmle+Mb3zjUOL75zW+6f/7nf47uWQPKoYce6r785S+Hz4KPlIYryHRWpAYIvrXipAw6O/K4445zRx99tD72elSlvQrd02tGiQwCEIAABCAAgdYQUPnCpzz59FNPuzdu8kZ32223hRxkosnXvvY1p2nJzT//+c/uXe96l1u1alXEyhpQ3vnOd4aymzy85ZZb3Otf//rIXx0nujBA0vZpbJq0LK0woKjAX4UQy4ypSZsQ4SEAAQhAAAIQgEB5AkWMKVmpiEJS1bZgWWnzvLsE7LYLbd0i15bBtzIqTN72trdFq0vEiCLbHYsxRJ7JdhJiyLTOGlDEGCr6njqZ/SgrWf7vW/+ve+rpp9xVV13ljjnmmGjbiVe/+tXul7/8pVt33XU1iLdjU5V2bwUkIghAAAIQgAAEaiGgY9s+DShSkP/+7/92u+yyS1Sm3Xff3X34oA+72a+f7W666SYXfCfFXX/99dFzOVEDypNPPjkkT2233XZD/tIutt9++3Bb2LTnk9y3sliT5O5WGVB8NzKp0K7NmNIXsgpj0yQvAGEhAAEIQAACEIBAHgK6JZduCaRhli9frqehkUSudRWK7wHhKCFOIBAQqNL4MC3AVZdBtubacccdIyNHUrnk+UUXXRQ+sgYUuXHqqae6Aw88MCnY0L0NNtjAfefb33Hv2vpdQ/d9XTRVafdVPuKBAAQgAAEIQKAeAlXKYh/84AfdWWedlVowmdwiK0tWrlwZ+lEDyuWXXx6uTkkNmPJgzz33dOecc07K08lu6+qZxo1rB9acxrvAcCIfuh/I0bd75plnBptvvnkYv6QRNKrB6aefPrj55psHwUcQB8Fe2tEzeS5/gcAfZSP4sODQ82DG1ODMM88cBN84GVx77bWDYOnUIBD0Iz/BjKnB448/HoX3faJ5DBqa76iJDwIQgAAEIAABCDSGQGA0ieSrxmSKjHSWQJX6yLSgVV2G4EPyQ3qV6iVyDLaUGDz00EPRO5ukqwTfPxkEHzGN/Njwch58j3Jw7733VopL00zKX6UJEzkEIAABCEAAAp0noHKG6DG+XbD6N1GGkjHpa665ZnD44YdHzx/986Nh8mlhNJ9px7333tt39sP4rH7XNFmsFStQqrTSBY0hXG7OjCkhgYMABCAAAQhAAALtIFC1fNgOCuRyWgR0lXdghHDBBKppJes1nWmsrggmp7nVq1eHjAJjh5MPx899+1z3ohe/KFdZAu3ZBUq+CyayuTvvvNO9/OUvD7+nsskmm7gXvvCFueIo68n+pgRKu1uyZEnZqAgHAQhAAAIQgAAERghULU8++McH3YqZFeH2p694xSvcO+a+w22y6SZunXXWGclLE29MQ1YtW+5WGFCkcFUv4ZEPE77//e+P9u61QOUjPCJAv+AFLwhvJwnUsuec7O0b31dO4wlmTIXLqV72spfpLe9HbWhtVuy8QyFCCEAAAhCAAAQ6S0DlQ7bw6mwVN6ZgdnBdBvnb6GwZeGdGa1B1KXnS1joeLRV3IAABCEAAAhBoCgEriyFrjNZK1Qam0RTz32mNAWUaENs8Y0qqXAcRkgw8+ZsEPiEAAQhAAAIQgEA7CKjsw2BwO+qrzbm0Cm+b29s0dKq21rOyQZdqaw2SbwhAAAIQgECzCXRFnqyKsup2TZTFWmNAoZGNb552xlSblbrxpeQpBCAAAQhAAAIQWEuAAc+1LDirnoC2tzav9tYyCC1mPq5tM1aXaqLSvjannEEAAhCAAAQg0GYCKou1WZ6sgr+VxZooo2JAqaLWa4iz6Q2tBiQkCQEIQAACEIBAxwmggHS8ghtWvC60NzspDcV9bQNDl1rLgjMIQAACEIAABKojYGUxJsCv5dzk1SeSy9YYUCSzXVBapBxVuKY3tCrKTJwQgAAEIAABCPSbALJhv+t/2qW3Cm8TZ8bl5aHvjfhHcXfOGk9YfZK3FeEPAhCAAAQgAIGyBFQWYzLLswStLNZUGbtVBhSrtCDsr31NbUND6F/LhTMIQAACEIAABLpNQGUglI9u13NTStclXUQnX/HurP2OpLSzpirtTXkHyAcEIAABCEAAApMT6JJMOTmNtbJYk8e0W2VAkUpB2B9tmsqkyQ1tNNfcgQAEIAABCEAAApMRUAOKxMLA52QsCZ2PgMrdbTc82HenzxPTLAd0qXzvAL4gAAEIQAACEJicgK5CkZj6rMdYWazJHFpnQMFKN/yS2oaG0D/MhisIQAACEIAABLpNwMqFTRa4u10L/SqdKrttN6BIrXXFGDRJC1QG6FGTUCQsBCAAAQhAAAJFCVg9pq9ySJvGtFtnQJEG2SXFpegLFveP0B8nwjUEIAABCEAAAn0hYBWPPs+i70t9N6Gcts213WjXJqW1irrve/mrYEqcEIAABCAAAQjkJ6Dj2xKij7qMLX/T5epWGlCs4tLHBqavohX6m97QNM8cIQABCEAAAhCAgE8COpmkzzKhT57ENZ5A1/QQq7j26R2yelRfZ32Ob+k8hQAEIAABCECgagJWrpS0+jS22zZZrJUGFGlUKux3Yfm8lKeM0wEDhP4y9AgDAQhAAAIQgEAXCCAPdaEW21WGLrW5uOLeByOKVdj7rEu2660jtxCAAAQgAIFuErCyWF/kEiuLtWVMu7UGlD42MPtToQYkudcnC6VlwDkEIAABCEAAAhDo0mA2tdkOAiqHd0XJ7ZNeZcsqrQ09qh3vHLmEAAQgAAEIdJlAGw0KZeujrWVtrQFFKqqt0Ms2Mg3X13Jr+TlCAAIQgAAEIAABJYABRUlwnBYBOwjflQF4q190xTCU1B7090Ke9WG1TRID7kEAAhCAAAQg0DwCVhZry6qMohStDN02ebPVBhSpKJ0BJuddbWBSNnV9eKG0rBwhAAEIQAACEIBAFgGVBfsgB2ax4Pl0CFjlr0uD8F3XM/S3QloJvxfTeVdIBQIQgAAEIACB/AS6Lqu0eSJL6w0o0gxtA+uSEhN/xbqu1MTLyzUEIAABCEAAAhDIIqByIAOiWaR47pOAKoBda3f6PgmrLpWtq+Xy2aaJCwIQgAAEIACB+gl0UWaxk4+EcBtlzE4YUOIV0ZWl9Pa1tWVs2zInWw7OIQABCEAAAhCAgE8CqmQgH/mkSlxZBLrc7rRswqDt75XoUIsXL3YzMzNhlbZRYc9qizyHAAQgAAEIQKA7BOz4r5Sq7bKLXQzQ5vJ0woAiFWAbWNsFfSmPdbZscr+LBiJbXs4hAAEIQAACEIBAXgI62Ns1+S9v+fFXDwErn3dxBXxc2W1jGW0dSStp+wBEPS2dVCEAAQhAAAIQqIOA6jiSdltlmC7Ik1r3nTGgSIG6VDFaQXHBv43Ki5aFIwQgAAEIQAACEPBNQJULDCi+yRLfOAJWRu+qfB7XrdqkvMfz3tU6GtdGeQYBCEAAAhCAQLsJWHlGdJ1Fixa5hQsXtqJQqqNJZtuW9yTAnTKgSAFt45LrNgn6kl/r4mVB8Ld0OIcABCAAAQhAAAJrv4WHAYXWMG0Cqhh2ue3F9ZE26FZaL9IeuqCwT7tdkx4EIAABCEAAAs0h0DZZTCYZ2e1TuyInd86AIk28bY0r6bW0ZUDwTyLEPQhAAAIQgAAEIIABhTZQHwErr3d5i1272kZpN9GQYutD8tkVhV2Zc4QABCAAAQhAoJ8E4jKOyGHilixZ0hggccOJZKyJ8mJZYJ00oAiMuKDfpkqLz5pasWJF2folHAQgAAEIQAACEOg0AVUoGCztdDU3snBW3+jDSnF912xlNEHHamq+LCfOIQABCEAAAhCAwCQErNyp8YgcNn/+/Nq39eqDLNZZA4o2prgxYt68eY2y0Gk+5Rh/GZqgkNj8cQ4BCEAAAhCAAASaRkAFdgwoTauZfuRHdY2+tD9538QtXbo0qmDRWcRNexak6E52iwjJg9RDm/YHlzzjIAABCEAAAhCAQF4CqvtY/3WNHzcpL5ZHFeedN6AItHiF1iXkp1VgkvBfV+NPyyP3IQABCEAAAhCAQBMJqJzXlwHsJtZBn/PUNwOK1rW+d3qtx6r1rCS9SdLGcKI1wBECEIAABCAAgT4QSJLFRB6ShQNVrUoROUxcfAKL3Ou6LNYLA4pUZFLDqttIkaQAdL3BSV3gIAABCEAAAhCAgC8CVsbr8ncofPEiHr8ERJ7fYYcdwkj7sI1XnJ59/+LPfBhTxinqkh66U5w61xCAAAQgAAEI9InANGQxMZiIm5mZGUHbF1msNwYUreGkhiXCfVXWOU3XHjGcWBqcQwACEIAABCAAgfIErGyHAaU8R0KWJzBr1qwwcN2Ts8qXYPKQ8h6Ks1t7JcUqSrY4mR0Zd8uXL49uJSno+lDjYKsuJcIRAhCAAAQgAIG+E5i2LCZymLiFCxf2An3vDChaq1bZ1nty9DFTysan50lGE33WZ2VLGXCEAAQgAAEIQAACZQhYmQ4DShmChJmUQF+38UrjJnrPsmXLnBhExhlC0sIn3dfZjfKsL4p6EgfuQQACEIAABCAAgSwCeY0pWfHY5yqL9VUO660BRRuBVbr1nh7VmCKrU9RlNRRdZi7+sxQHDCdKlSMEIAABCEAAAhAoR0BkL91CCQNKOYaEmoyAbYN93MYri54aVNSfrjSxxhVdVSJ+dHWKrmaBqZLjCAEIQAACEIAABIoRiMthEjqPLKZyGGPXz/LuvQFFm10Z65wK+lb41/iSjuqf5eZJdLgHAQhAAAIQgAAEihOwg9cYUIrzI8TkBGwbZLB/cp4ag26NBlMlwhECEIAABCAAAQhMh4DKYRhQnuWNASWh3al1zseyc13iJMlkrV5JyAq3IAABCEAAAhCAAATGELCD1xhQxoDiUaUE2MbLP14Ud/9MiRECEIAABCAAAQjkIYAcNkwJA8owj9QrUc7FybZc1lkji8yOUoexRElwhAAEIAABCEAAAtURsAYUZqpXx5mYxxOw2wJjyBvPKu9TFPe8pPAHAQhAAAIQgAAE/BJQOQz96lmuGFAmbF8oSxMCJDgEIAABCEAAAhCYgAAGlAngEdQbAdqhN5RRRKq4s3VEhIQTCEAAAhCAAAQgMBUCKodhQHkWNwaUCZsdBpQJARIcAhCAAAQgAAEITECAgesJ4BHUKwG28fKK06nijgHFL1digwAEIAABCEAAAlkEVA7DgPIsKQwoWS0m4zkGlAxAPIYABCAAAQhAAAIVEsCAUiFcoi5EAANKIVyZnpUnBpRMVHiAAAQgAAEIQAAC3gigX42ixIAyyqTQHQwohXDhGQIQgAAEIAABCHglgIDvFSeRTUCAtjgBvISgakB5+9vf7lasWJHgg1sQgAAEIAABCEAAAr4JINOOEsWAMsqk0B0MKIVw4RkCEIAABCAAAQh4JYCA7xUnkU1IQLc7YNXEhCCD4BhQJmdIDBCAAAQgAAEIQKAoAca6R4lhQBllUugOjaoQLjxDAAIQgAAEIAABrwQwoHjFSWQTEmDQf0KAJrjqWaxAMVA4hQAEIAABCEAAAhUTUBlMkhkMBhWn1o7oMaBMWE9WaadRTQiT4BCAAAQgAAEIQKAgASuL8ZHDgvDw7p0A7dEfUpR3fyyJCQIQgAAEIAABCOQloDIYk1jWEsOAspZFqTOrJGFAKYWQQBCAAAQgAAEIQKA0ASuLYUApjZGAHgnoNl60x8mg2ncbPWsyloSGAAQgAAEIQAACeQmwonqUFAaUUSaF7iDYF8KFZwhAAAIQgAAEIOCVALKYV5xE5oEASqcHiEEU9t3GGOWHKbFAAAIQgAAEIACBLAIqy/JNv7WkMKCsZVHqDMG+FDYCQQACEIAABCAAAS8ErCzGLHUvSIlkQgK0yQkBmuCs5jEwOIUABCAAAQhAAAJTIKDyFwaUtbAxoKxlUerMKkjMjCqFkEAQgAAEIAABCECgNAHdo1ciwIBSGiMBPRJAP/AHEwXeH0tiggAEIAABCEAAAnkIIH+NUsKAMsqk0B0UpEK48AwBCEAAAhCAAAS8EsCA4hUnkXkioFsf8PHNyYAqR2ZATsaR0BCAAAQgAAEIQCAPAca5kylhQEnmkvsuDSs3KjxCAAIQgAAEIAAB7wQwoHhHSoQeCOjAv0TFyqjyQJUjhqjyDAkJAQhAAAIQgAAE8hJgnDuZFAaUZC6579KwcqPCIwQgAAEIQAACEPBOAAOKd6RE6IEAOoIHiEEUGFD8cCQWCEAAAhCAAAQgkIcAulUyJQwoyVwK3dW94fgGSiFseIYABCAAAQhAAAITE0DInxghEVREgMH/ycHyfk/OkBggAAEIQAACEIBAXgLIXsmkMKAkcyl0FwNKIVx4hgAEIAABCEAAAt4IqJDPFj/ekBKRJwJ2FQrbeJWDCsNy3AgFAQhAAAIQgAAEyhBAt0qmhgElmUuhuxhQCuHCMwQgAAEIQAACEPBGACHfG0oi8kzADv6zUr0cXBiW40YoCEAAAhCAAAQgUIYAK6iTqWFASeZS6K4aUD75yU+6JUuWFAqLZwhAAAIQgAAEIACB8gQwoJRnR8jqCaCETsYYA8pk/AgNAQhAAAIQgAAEihBQ2ZUx7mFqGFCGeZS6woBSChuBIAABCEAAAhCAwMQEVMhnC6+JURJBBQQwAEwOVXUtVvFMzpIYIAABCEAAAhCAwDgCKndhQBmmhAFlmEepKxpXKWwEggAEIAABCEAAAhMTwIAyMUIiqJiA6goYAMqBVn4o8uX4EQoCEIAABCAAAQjkJYDclUwKA0oyl0J3VXFHqC+EDc8QgAAEIAABCEBgYgIqh7ECZWKURFARAdroZGCVH7rWZBwJDQEIQAACEIAABMYRYOV0Oh0MKOlscj9BqM+NCo8QgAAEIAABCEDAKwHkMK84iawCAiijk0HVdxwj6WQcCQ0BCEAAAhCAAATGEUBmTaeDASWdTe4nKtQzKyo3MjxCAAIQgAAEIAABLwSQw7xgJJKKCeh2CBgBioPWdxx2xdkRAgIQgAAEIAABCOQl8KlPfcotXbo09D4YDPIG64U/DCgeqhmh3gNEooAABCAAAQhAAAIlCKgcxkSWEvAIMjUC2k4xAhRHjjJfnBkhIAABCEAAAhCAQFECyFzpxDCgpLPJ/QSFKDcqPEIAAhCAAAQgAAGvBHRmPwYUr1iJzDMBtkQoD9SyYzZkeY6EhAAEIAABCEAAAuMIqAGFCT+jlDCgjDIpfAcDSmFkBIAABCAAAQhAAAJeCGBA8YKRSKZAQNsqSmkx2NaA8qMf/cgtXLiwWAT4hgAEIAABCEAAAhDIJMD4djoiDCjpbHI/oYHlRoVHCEAAAhCAAAQg4JWADkqzAsUrViKrgIDqDBI1KynyA8aAkp8VPiEAAQhAAAIQgEBZAuhV6eQwoKSzyf2EJU65UeERAhCAAAQgAAEIeCWAoO8VJ5FVSABDQHm4vOfl2RESAhCAAAQgAAEI5CGAvJVOCQNKOpvcT9SAIgGYTZYbGx4hAAEIQAACEIDARAQYkJ4IH4FrIKCrUNjGqxh8uBXjhW8IQAACEIAABCBQhIDVqxjbHiWHAWWUSeE7NLLCyAgAAQhAAAIQgAAEJiZgZTC+jTAxTiKYAgE1BEhSKKf5geuENQxP+ZnhEwIQgAAEIAABCOQloLKW+EdGHaWGAWWUSeE7KO+FkREAAhCAAAQgAAEITEwAQX9ihEQwZQLoDeWAW24o9eUYEgoCEIAABCAAAQikEVC9iskqyYQwoCRzKXTXCvTMfiyEDs8QgAAEIAABCECgNAEV9CUCBlVLYyTglAnoKhQU1Pzg0bfys8InBCAAAQhAAAIQKEqA75+MJ4YBZTyf3E+1oWFAyY0MjxCAAAQgAAEIQGAiAmpAYSB6IowEnjIBawzA8Jcfvupbn/zkJ92SJUvyB8QnBCAAAQhAAAIQgMBYAshZY/E4DCjj+eR+SkPLjQqPEIAABCAAAQhAwAsBZvJ7wUgkUyZgDShMvsoPn/c9Pyt8QgACEIAABCAAgbwEkE2zSWFAyWaUywcCfS5MeIIABCAAAQhAAALeCKj8xYx0b0iJaEoEtO2yeio/cJjlZ4VPCEAAAhCAAAQgkJeAruoX/6yOTqaGASWZS+G7CPSFkREAAhCAAAQgAAEITESAFcAT4SNwjQSY6VccvmWGcl+cHyEgAAEIQAACEIBAEgE1oDCxJ4nOs/cwoKSzKfSExlYIF54hAAEIQAACEIDAxAQwoEyMkAhqJED7LQbfGlDY+qwYO3xDAAIQgAAEIACBNAK6KIBV/WmEHN9ASUdT7IkaUCQUM6KKscM3BCAAAQhAAAIQKEqAwdSixPDfNAKqrDLbL3/NqNEJA0p+ZviEAAQgAAEIQAAC4wiofIUBJZ0SK1DS2RR6YpV4DCiF0OEZAhCAAAQgAAEIFCaA7FUYGQEaRsC2YQwC+SoHo1M+TviCAAQgAAEIQAACeQggj+ahxAqUfJRy+KLB5YCEFwhAAAIQgAAEIOCJAKt/PYEkmloJ6Iw/VqHkqwYMKPk44QsCEIAABCAAAQjkIYBOlYcSBpR8lHL6UgWIGWQ5geENAhCAAAQgAAEIlCSAsF8SHMEaRYB2XKw64FWMF74hAAEIQAACEIDAOALIVuPorH3GFl5rWUx8pgYU9oybGCURQAACEIAABCAAgbEEVNhn5v5YTDxsOAFWsRerIHgV44VvCEAAAhCAAAQgMI6Aru5lLHscJVagjKdT8CmNriAwvEMAAhCAAAQgAIGSBFTuwoBSEiDBGkOAtlysKnTSGqv+i3HDNwQgAAEIQAACEIgTULkKA0qczPA1K1CGeUx0hfIzET4CQwACEIAABCAAgdwEVO5C2M+NDI8NJcCqimIVo+8+xtNi3PANAQhAAAIQgAAELAFkUEtj/DkGlPF8Cj1FmC+EC88QgAAEIAABCECgNAFmS5VGR8AGEkCPyF8psMrPCp8QgAAEIAABCEAgjYBuiSzPB4NBmjfuBwQwoHhsBtrwmA3lESpRQQACEIAABCAAgQQCGFASoHCrtQRUj5ACoMCOr0ZYjefDUwhAAAIQgAAEIJCHADJVHkrP+sGAkp9Vpk8aXiYiPEAAAhCAAAQgAIGJCbDcfGKERNAwArZNsy3d+MqxrPgOynhWPIUABCAAAQhAAAJpBFjVm0Zm9D4GlFEmpe9YYZ6ZY6UxEhACEIAABCAAAQiMJYDMNRYPD1tKACU2X8XZ9x8DSj5m+IIABCAAAQhAAAJxAqzojxNJv8aAks6m8BOE+cLICAABCEAAAhCAAAQKE2DVb2FkBGgBAXSJ/JWkCj9bJ+dnhk8IQAACEIAABCCgBKzcyepnpZJ+xICSzqbUExXmmQ1VCh+BIAABCEAAAhCAQCYBDCiZiPDQUgKsQslXcXDKxwlfEIAABCAAAQhAIIkA+lQSlfR7GFDS2ZR6ogYUrHel8BEIAhCAAAQgAAEIZBJg8DQTER5aSsAqs0zISq9EO2sSTumceAIBCEAAAhCAAASSCKjMyWreJDqj9zCgjDKZ6A4K/UT4CAwBCEAAAhCAAAQyCTBhJRMRHlpKwBoGmJCVXomWEwaUdE48gQAEIAABCEAAAkkE0KeSqKTfw4CSzqbUEyx4pbARCAIQgAAEIAABCOQmgMCfGxUeW0iACVn5Kg1O+TjhCwIQgAAEIAABCFgCTESxNPKdY0DJxym3L9sIB4NB7nB4hAAEIAABCEAAAhDIJmBlLWaeZ/PCR/sI0Mbz1ZkaUMQ3elc+ZviCAAQgAAEIQAACOvlfSCBD5WsPGFDyccrtC4UnNyo8QgACEIAABCAAgcIEEPgLIyNACwmocYB9qdMrD70rnQ1PIAABCEAAAhCAQBoBlTPZLjaN0Oh9DCijTCa+w7YSEyMkAghAAAIQgAAEIJBIQA0oDCwn4uFmRwhoO5fisNIqvVJV74JROiOeQAACEIAABCAAAUtA5ScMKJbK+HMMKOP5lHqqljwU+1L4CAQBCEAAAhCAAARSCSDwp6LhQYcI2NUVKLfpFYvelc6GJxCAAAQgAAEIQCBOgEk6cSL5rjGg5ONUyBeCfCFceIYABCAAAQhAAAK5CWBAyY0Kjy0ngE6RXYF2EIA9vLN54QMCEIAABCAAgX4TQHYqV/8YUMpxGxvKzhhDkB+LiocQgAAEIAABCEAgNwErY7FlT25seGwpAdp7dsXBKJsRPiAAAQhAAAIQgIASYDKakih2xIBSjFcu3wjyuTDhCQIQgAAEIAABCBQiwIypQrjw3AECrELJrkQdCGD75GxW+IAABCAAAQhAoN8EVG5ii9hi7QADSjFeuX1rg2R2ZG5keIQABCAAAQhAAAJjCagBhYHSsZh42CECTMzKrkyMTNmM8AEBCEAAAhCAAARUlxIS7JhUrD1gQCnGK7dvBPncqPAIAQhAAAIQgAAEchFQ+YoZU7lw4akjBHRiFu0+uUKtkYnBgGRG3IUABCAAAQhAAAJqQGEyWvG2gAGlOLNcIVTBp1HmwoUnCEAAAhCAAAQgkEmAgeRMRHjoIAH0ivGVag0orP4fz4qnEIAABCAAAQj0lwC6VPm6x4BSnt3YkGrVE0/MhBqLiocQgAAEIAABCEAgkwCDpJmI8NBRArT97IrFyJTNCB8QgAAEIAABCPSXAPLkZHWPAWUyfqmhaZipaHgAAQhAAAIQgAAEChNgckphZAToEAEMBOMrEz7j+fAUAhCAAAQgAIF+E0CXmqz+MaBMxm9saF0axVLysZh4CAEIQAACEIAABDIJIPRnIsJDhwkwOWt85cJnPB+eQgACEIAABCDQbwI62YRv6pVrBxhQynHLFUobJ99ByYULTxCAAAQgAAEIQCCVgMpVCP2piHjQcQI6OQvdIrmilQ+T15L5cBcCEIAABCAAgf4SUDkJXapcG8CAUo5brlCq6KPk5MKFJwhAAAIQgAAEIJBKAKE/FQ0PekJAdQspLt9YHK105YPuNcqGOxCAAAQgAAEI9JeAXcnPRJNy7QADSjluuULZBoqSkwsZniAAAQhAAAIQgMAIAbbnGUHCjR4SsO8BswdHGwC61ygT7kAAAhCAAAT6SkDkJnHLli3rK4Ko3MuXL3czMzPhtciQbXDz5893CxcubExWMaBUWBVWycHCVyFoooYABCAAAQhAoNMEGBjtdPVSuAIEdJWFBGGC1jA4dK9hHlxBAAIQgAAE+kZAdAZrLOhb+btYXllZPG/ePLdkyZJai4cBpUL8CPEVwiVqCEAAAhCAAAR6QwADSm+qmoJmEEC/GA9It/pjG6/xnHgKAQhAAAIQ6BIBkY8WL14crbKwZROZANcuArpaxua67tXXGFBsbVRwrkJ83RVdQdGIEgIQgAAEIAABCEyFgM66Z1B0KrhJpOEEeB/SKwg26Wx4AgEIQAACEOgiATvRSson+sKiRYvCojZpC6gusq+yTGIU0+3Xli5dGiVV1/g6BpSoCqo5QYivhiuxQgACEIAABCDQHwJMSOlPXVPSbAKsQklnBJt0NjyBAAQgAAEIdI1A3HjC5xO6VsPPlidez3VMqsOAUnHbskI8+xRXDJvoIQABCEAAAhDoHAErS6EUda56KVBJAkzSSgenBtc6lOv0XPEEAhCAAAQgAAGfBOygOn2+T7LNjcvW+bT1QgwoFbcLlP6KARM9BCAAAQhAAAKdJmAFZSajdLqqKVwBAugY6bDUuCQ++M1I58QTCEAAAhCAQJsJMGGizbVXPu8q503baIYBpXyd5Q7JS50bFR4hAAEIQAACEIDAEAEVkuva73YoM1xAoEEE0DGSKwPjUjIX7kIAAhCAAAS6QsBOsJr2SoSuMGxrOaycN039EAPKFFqMKv7Tto5NoWgkAQEIQAACEIAABColoIPE0xSQKy0QkUPAEwEGD9JBon+ls+EJBCAAAQhAoM0E6hpAbzOzruW9DhkYA8oUWpF9ubGMTgE4SUAAAhCAAAQg0AkCdQjHnQBHIXpBwOoYTNQarnL728E2XsNsuIIABCAAAQi0mQB9fJtrz1/edZLdtMbZMaD4q7vUmKxyM62KTc0MDyAAAQhAAAIQgEBLCKAgtaSiyGZtBHSlhWQAQ8HaakD/WsuCMwhAAAIQgECXCKh+wOSRLtVq8bKoDDytXQowoBSvo1IhtGJ5wUvhIxAEIAABCEAAAj0koDOLpiUY9xAxRW45AWso4D0Zrkz0r2EeXEEAAhCAAAS6QED7d+SeLtRm+TJoO5jWODsGlPJ1VSikVqwEYnZYIXR4hgAEIAABCECgpwQwoPS04il2IQKqZ0xLgSyUuRo9W+MSuwDUWBEkDQEIQAACEPBIAP3AI8wWR6UrkaQI0xhnx4AypcaCAD8l0CQDAQhAAAIQgEAnCExbKO4ENArRSwLoGcnVDpdkLtyFAAQgAAEItJkABpQ2156/vE9bV8SA4q/uMmPSl5wZUJmo8AABCEAAAhCAQM8JqFDMrPqeNwSKn4sAq1CSMcElmQt3IQABCEAAAm0loGOrbOHV1hr0k2/VFSU2VqD4YdqYWBDgG1MVZAQCEIAABCAAgYYTQDlqeAWRvUYRYLVFcnXAJZkLdyEAAQhAAAJtJYCO0Naa85tvDCh+eTYqtmlXbqMKT2YgAAEIQAACEIBATgJ20JPZZTmh4a33BKY1WUveT3HLli1zy5cvdzMzM71n30YAsrpv3rx5Ydbnz5/vFi5c2MZikGcIQAACEOgZAQwoPavwlOJOe4ydLbxSKqKK23YwgG28qiBMnBCAAAQgAAEIdIHAtAXiLjCjDBCw701VuoZNA+LdIoCxulv1SWkgAAEIdJUABpSu1myxclmZlC28irFrhW990dnPuxXVRSYhAAEIQAACEKiBwLRm0tdQNJKEQKUEqtI1ZCLY4sWLh1abiD4jTlcxVFowIq+EQNIKIgwplaAmUghAAAIQ8ERAZR36K09AWxoNBpSWVlzebDMgkJcU/iAAAQhAAAIQ6CsBFKO+1jzlnpSA6hoSj6/ZeFZBlXiZCCYUuuXidcygVLfql9JAAAIQ6BIB9IQu1Wb5sljZxZfMOy43bOE1jk4Fz9jGqwKoRAkBCEAAAhCAQGcIWGG4qm2IOgOLgkAgRsDqGj4Gwe37KEnxTsaAd+gyvsrIR/vpEB6KAgEIQAACDSGAAaUhFVFzNqyMigGl5sqoInmr1KCAVEGYOCEAAQhAAAIQaDOBaQvDbWZF3iGQRMDnKhQdpGDVSRLpbt6zv8Hoq92sY0oFAQhAoM0EVDbB0N/mWpw871ZewYAyOc9GxqBKDYpII6uHTEEAAhCAAAQgUCMBlKIa4ZN0Jwj4mrBlFVMG0jvRNHIXAn01Nyo8QgACEIDAlAmgK0wZeEOTs3IqBpSGVtKk2VKBVOKZRiVPml/CQwACEIAABCAAgWkRQCmaFmnS6TIB1TfKTtiySikzPLvcUpLLZo1w1H8yI+5CAAIQgEA9BNAV6uHetFStrDqNsfXefQNFhEFxy5Ytq63uly9f7mZmZsL0RSDF5SewZMmS/J7xCQEIQAACEGgBgSbIJk3B1EYZaf78+W7hwoVNQUg+IBASsAPgZVaPTFsppdqaR2BSI1zzSkSOIAABCECgCwQwoHShFicvw7Rl1V4YUET4E6dGi8mriRjqJiCz6ebNm+cwqNRdE6QPAQhAAAJlCMjg5uLFi5FNysBraBhkk4ZWTI+zNckAuIZl9UF/G5A1wk1jZmd/SVNyCEAAAhAoQgADShFa3fWLAcVj3VqhLx6tKLm49hBIM36h1LWnDskpBCAAAQg8S0AHJuM8kE3iRJp/jXzS/Drqcw6tLlR0FQqDE31uOc+WfZL2Az0IQAACEIBAVQSQUaoi2654MaB4qq/44IQMSixatCiMnW0WPEGuIRoR5GX7taVLlw6ljiFlCAcXEIAABCDQQAJ2MEqypysW2AKqgZVVIEsqm0gQK58gmxSAiNfKCKhOJL83K1asyJWO/a0qanjJlQCeWkNAB6loB62pMjIKAQhAoPMEtG9C1u58VY8tIAaUsXjyPdSXSXyr4QSjST52bfJlXxbJN4J9m2qPvEIAAhDoF4F4n4XA3836j9dzkUHrbhKhVHUTKGMMse2YrZvqrsF601cDHH1WvfVA6hCAAAQgsJaAjvl2vW96/PHH3ZNPPumkvM9//vPXAuAsJDBtebVz30CxALv+MvHOOGfrW3ig5NEqIAABCECgiQRU0GdiRxNrx3+erHyCPOqfLzEWI6CD4HkNerb9IlsXY90139p2+B3rWs1SHghAAALtJaB6Vd6+Sf1LiTfYYAP3y1/+0r3whS8cC0C26ZU+UNzWW2/tfvKTn4z1X8VDWQhwySWXhFE/+udH3d//w99XkcxInHbyzchDc+MVr3iF23STTd2b3vwm9+GDPuxe939eZ56OP336qafd18/8ejiGu/3227vXvOY14wMkPJ22vNopA4qFl/dFSqgDbrWMgH258yqGLSsi2YUABCAAgRYTsPIJg5EtrsiCWdeBRwnGKtmC8PDulYCVlfO0RX6zvOJvdWT6O4Zu3epqJPMQgAAEOkVADSJ5+yb1rxD2339/d+qpp+pl4vGKK65w8+bNC59tueWWbvny5Yn+qry5YPsF7tLLLg2TeOSRR9z6669fZXJR3Bf+4EL33p3fG13nOZEVMt/85jfdjjvumMe7s7LpmWee6fbZZ59c4aynacurnTKg2JeCAQrbrLp/bl+cPIph94lQQghAAAIQaAIB2z/lFfKbkG/y4IeAyqZM8PDDk1jKEyjSFu3vFjpVeeZdCIkBpQu1SBkgAAEIdIuAyjR5dSv1bymIgeSd73ynvTV0jgHlWQOKGEa23XbbITbPPPOMe+ihh9ytt97q7rnnnqFnl19+eWR4GnoQu3jve9/rLrzwwvBuWwwoslymEy54cQYB+fBPznH9IxAMToT1L0ccBCAAAQhAoAkEkE2aUAv15SGY1BHJp3KOg0BdBKyulNUWrd+68ku6zSCg+hX6dTPqg1xAAAIQgMAgkq3z9k2qj9njpptuOnjqL0+l4gxWnETpBCtQUv1V+WD7d28f5SFYgVJlUkNx/+D7P4jS3WKLLYaexS++853vRH6F70477RT3MnT9m9/8ZnDggQcOhQkMKEN+8l5MW17tzAoUnSnFDL+gyfbU2SVgwQvXUwoUGwIQgAAEmkLA9kusjmxKrUw/HzqDGxl1+uxJcZiAzsDMaouqV0loZOphhn270t+vYJDCLVmypG/Fp7wQgAAEINBAAirP5O2b1H+8KMcff7w78sgj47fDa1agPLsCJTCguKuuuiqRkd4UjkcffXR4Kd9F+d3vfqePwqOw/I//+A93yy23uJtvvnnomVy0ZQVKZwwo+kLkfYFGaowbrSfAQFXrq5ACQAACEOgUAQYhO1WdpQujA5BZg9alEyAgBHISsL9J44y61h8GlJxwO+pNf7/QsTtawRQLAhCAQAsJFB3/Vf9S1I9+9KPui1/8YlTqO+64w732ta+NrvUkrwHlxtU3uosvuditWrXK3Xbbbe6FL3ih2+wtm4Xbg73vfe/T6FKPYlSQD9avXLnSrbPOOk6+t7LNNtu4l770pS7PN1DWPLom/MD9yqtXhsaJ9dZbz2211VbuXcHf/5k9OzXdcQ/sN1DyGFAuu+wyJx+CVxeXHb/yla+4gw8+WB+PHNtiQOnMFl5BDYRLgALhLqgrXF8JaDvI2pqgr3woNwQgAAEITI+AyCTSLwUD59NLlJQaR0DbgbQFHATqJqCy8rjfJdps3bXUnPSlnUibQcduTp2QEwhAAAJ9J6CyTN6+Sf3L8cEHHxxstNFGYd8m1wsWLEjEmbWFV/AdkEGwMjOKx6ah57IF11133ZUYv4S38paG0WMwmWWQtYXX1VdfPVQWDavHXXbZZbBmzZrE9MfdLLKFl8RzyimnRBw222yzkaiDb50M5s+fP/QXfFslCtOWLbw6ocnJYLk2EAbOR9pqr26okD9OKewVEAoLAQhAAAK1EdA+Ka9wX1tGSbhSAsipleIl8oIErLKepjdZPwWjx3vHCNCPdaxCKQ4EIACBDhDQ8d+8Opb6l+Pjjz8+CFZMRGPIcu+cc84ZoZJlQNlrr72G4pB4xHhgDQNyT67vu+++ofjFeLLnnnuOhBf/aX/xb6Cce+65I3432GCDkXtz5swZBB96H0o/66KIAeXee+8dyPdkNN9i+Mnj3r/r+6MwGFDyEPPkxyqmnqIkmpYSUCEfA0pLK5BsQwACEOgQAe2T8gr3HSo6RTEErJyaNmBtvHMKgcoJqJKbJi9jQKm8ClqTAP1Ya6qKjEIAAhDoDQGVY/LqWOpfjmJAEbf33ntHA/hieHjooYeG+I0zoCz7n2VRWIkz+L7H4MknnwzD//Wvfx1IWGvMEGOJdRdccMFQ+AMOOGBw5513hl5uv/32gawcsXmWc2tA+dOf/jQU/8477zz43W9/F4aX8v3whz8cMuTsscceNvnMc2tAkdU6P/7xj4f+RJ/5whe+MNh3330HwTdPoryK34cffjgzfvGAASUXJv+erGLqP3ZibBMBFfLTFMI2lYW8QgACEIBAuwlon5RXuG93acl9GgErp2JASaPE/WkSsAaSpDZpn08zX6TVPAL0Y82rE3IEAQhAoO8E1LiQV8dS/3JUA8r9998/ZIQ48MADh7CmGVBk9cjmm28eGQ2CD6gPhdML2V7LpnvllVfqo6HwSSs2JI24EcUaUD72sY9Fce+0005RvPYk+CZL5EfyIUaXvM4aUGwZxp2LIUW2R8vrMKDkJeXZn1VMPUdNdC0joEI+BpSWVRzZhQAEINBBAton5RXuO4iAIgUErJyaNFgNJAjUQUCV4CSZGQNKHTXSzDTpx5pZL+QKAhCAQJ8JqAyTV8dS/3JUA4rw+8Y3vjFkZFixYkWENc2AsvqG1VEY2Z7r0T8/GoWJn2y33XaRX1mxIS74WHx0T8Knrdi46aabIn+SbzWgiHHFliftGyuSlnx3RP3Kd0ryujIGFEln4403Hlx33XW5ksGAkguTf09WMfUfOzG2iYAK+UnKYJvKQV4hAAEIQKD9BLRPyivct7/ElCCJgJVTMaAkEeJeHQSskSTeLu2zOvJGms0hQD/WnLogJxCAAAQg8CwBNQrk1bHUvxytAUVis0YO+YbJU395KkwkzYBit9/6wAc+8GyGUv7L6hJN+6CDDgp9nXXWWdG9rPCzZ8+O/KoBRQwmGqeu+pCVH0l/RxxxROT3kEMOScnl6G1rQHn1q189kO+txP9OPvnkgcRpjTSSL9m6LM9KFAwoo9yncscqplNJkEQaS0CFfAwoja0iMgYBCECgNwS0T8or3PcGTM8KauXU+EB1z1BQ3IYRUAU8LjdjQGlYRdWYHfqxGuGTNAQgAAEIJBJQ+SWvjqX+5Rg3oMg3R+zzE044IUwzzYCyZMmSyP9nP/vZxPzpTfuhdzE0iDvmmGOi8EceeaR6TTxa44QaUC699NIovM131nn8OyyJCf7vTWtA2WKLLcZ5DZ+Jf1lNo3k49NBDM8NgQMlEVI0Hq5hWkwKxtoWACvlxRbAt+SefEIAABCDQHQLaJ+UV7rtTckpiCVg5FQOKJcN53QSsocS2TXu/7jySfr0E6Mfq5U/qEIAABCAwSkAH6vPqWOpfjnEDisQuRhPrRz7onmZAkVUX6vdrX/vaaObMncsuuyzyqwYU+fC6hldjjQkydLrrrrtGftWAcuqpp0b3NJ48RzFY5HVFDSgSrxiDNB/yjZgs10YDyiwpVFDIVruLL77Y7bDDDmEZOlCcVtdF3ZmfO3eum5mZcYGw74L9C+vODulDAAIQgKA7whkAAEAASURBVECPCWifFAj3Lpit1GMS/S66lVODQWq3cOHCfgOh9I0iMGvWrDA/VnYOtpxwS5cuDe+jWzWquqaeGfqxqSMnQQhAAAIQyCCgskteHUv9S7SBAcWtu+66Qyk8/dTTbvMtNnfXX399eH/HHXd0wfZXbt68eeH1lltu6QKDSnh+7LHHukWLFoXnxx13nDv66KPD86R/wXZd7oMf/GD4aL/99nOnnXZaGG9gOAnvBUYHF3yEPiloeE/7YLkIDChu/fXXdxf+4EL33p3fGz7faKON3Fe+8pXwPOvfhhtu6IJvlGR5C5/bNIIVKO6qq67KDPfDH/7QCTdxwWoU99BDD40Ns9v7d3PnX3B+6OfMM890++yzz1j/SQ+nLq+KAaXtzs7sa3tZyP9kBHSWlBxxEIAABCAAgToJaJ+Ud3ZUnXkl7eoIWDnVzvKvLkVihkB+AvL7FCil4Z+2T3svf0z47CIB+rEu1iplggAEINBuAiq35NWx1L8ck1agCI3ASBDJQ+Lvox/9aHQdGFAiYOecc050Pxj0j+4nnchWVpp2YCgJvZx++unRvd122y0pWHhPPhYv3xPR8LoC5ZZbbonuyfdJxjn5nktgyAj/9Nsu4/zrszIrUOwqHvk2S5Zr4woUl1WoNjy3imkb8kseqyOgQj4GlOoYEzMEIAABCOQjoH1SXuE+X6z4ahsBK6fqAHXbykB+u01AlXOVn/tgQJGBiT/96U/h3xNPPNHtCp6gdPRjE8AjKAQgAAEIVEJA5Za8Opb6l2OaAUUyethhh0XGCRvGGlBWrlwZ+ZHvfqhhI17Qv/71r0MGkIsuuij0YrcGkzTuv//+eNDw2hoxxJ+mI4YQm7drr702Mbzc3H333SO/8vH6vM6mnecbKCJTiT/N1/bv3j4zKQwomYiq8WAV02pSINa2EFAhXxXAtuSbfEIAAhCAQPcIaJ+UV7jvHgFKJASsnIoBhTbRRALWYCJt1F5n5dfOOBTFOdjOIitI+HzBggWRov3Tn/w0VxifnuxM08MPP9xn1KXjsgMdwjLYjrhwXHfcccdAPlr7mc98ZvD5z39+IAM2spd7WUc/VpYc4SAAAQhAoCoCOlCfV8dS/3IcZ0B59M+PDmRVh/Uv59aAEmz3NQi2wor8fPzjH08sZrDVV+RH/IuRQZwYQGbPnh09O+CAA6JnGpEYS+bMmRP5kTyoAUX8fOADH4ieiTyVtLpEZCtbjgcffFCjzzwWMaD8/ve/H1iZTtI8//zzM9PAgJKJqBoPVjGtJgVibQsBFfIxoLSlxsgnBCAAge4S0D4pr3DfXRL9LpmVUzGg9LstNLn0qmTL71YRA8q//du/DSnoEs/tt9+eWVT5mKqm+eMf/zjTv28PYpzQ9D/2sY/5jr5wfLIaRvOjx4MPPjh3PMH+4UMzXTUOPf7Lv/xLuIVH7gj/1yP9WFFi+IcABCAAgaoJaN+WV8dS/3IcZ0CRfFvjgYazBhTxI5MT9JkcZSuvK6+8cvDwww+HW4F9+tOfHnou235Z973vfW/ouUygWPY/ywZ33333IPh24mCzzTYbei5pWAOKGC1k9YvmYeuttx6IweQPf/jDYPUNq8PJLPpMjnk5aR7jDLbbbrtB/G+rrbYayFZdNh05D76DotGMPWJAGYunuodWMa0uFWJuAwEV8uWIgwAEIAABCNRJQPukokJrnXkmbf8ErJyKAcU/X2L0Q8AaTfS3SxThLJdkQMmzdQMGlGGyJ5988sgghOx9njSrdDjkYPC1r31tJGx8QEOuZVZt2lYh8Tj1WtsC/ZgS4QgBCEAAAnUT0D4ub9+k/uWYZUCRssm3SWyYuAFF/AQfhR/yY/3bc5kMIdt5xZ0YXay/+LkYSOy2WNaAInHJllzxMEnXYujII0vY/MUNKEnxJt075phjEstq49ZzDChKYspHq5hOOWmSaxgBFfLliIMABCAAAQjUSUD7pLzCfZ15Je3qCFg5FQNKdZyJeXICScpwVqxJBhSJ51vf/NbYoBhQhvHYQRJbDzKIMc7FZ7HKII8YY2SLMpnFutdeew0NsHzoQx8aF93IM/qxESTcgAAEIACBmgloP5lXx1L/cszz3bP4Cg8xQiQ5Wf1pV4LYdORcno9zJ5544lAfreFlAsU111wzkC1G9Z5sLxZ3q1atGtpOTP3KUSZNiJElyXgTjyd+bXUXG2f8XNLYYYcdBp/61KcG8m2XIs5uW3r22WcXCRr5lfrXPEU3KzyZJXEHCbbaBcKhCyotLEMHitPquqg783PnznUzMzMuEPZdsDS/7uyQPgQgAAEI9JiA9kmBcOeWLFnSYxL9LrqVUwOFxC1cuLDfQCh9YwkECrBbunTpUP6ydKvjjz/eHX300UNh5CJQ/t0tt9ziXvCCF4w8kxvbbrutW7ZsWfgs2MIrvE70WNFN0RfkN1pcsIWXCwYxKkopO9pf/OIXbpNNNgk9CrfAuOSC75iE18EsWHfeeeelRrJg+wXu0ssuDZ8HW3g4+Y1Zd911h/zH6+iuu+5yG2644ZCftAv6sTQy3IcABCAAgboIzJo1K0y6CTrWmkfXuFXXrXLXrbrO/fZ3v3XB905csAWXe+Mb3+ie+9znZiJ68I8PuhUzK1ww8cEFW2K5d8x9h9tk003cOuuskxlWPPz16b86kSOuvuZqd9ttt7kXv/jF7rWvfa3baaedcqWfK5GGerJya5a86qMIGFB8UCSOxhBQIR8DSmOqhIxAAAIQ6C0B7ZOaINz3thIaUHAMKA2oBLKQm4AOSmiALIXUDs7vvffe7vvf/74L9gAPgwcfRnWnnHKKRjV0zGNA+ctf/uLO/+757tpV17prr73WBbNG3ete9zr35je/2e25557uVa961VCc8QsZ1Jj5fzPhpKrg4+ruDW94g9tmm23cW+e81a28emUuA8qNq290V6640gUzQV2wt7jbdNNN3bve9S73jne8wz3vec+LJ1nq2g4AHHrooeHEwPe85z1RXA899JALZrhG13oSbEMylIdgxqx7+ctfro+jowyubPjqDd0999wT3rvgggvcP/3TP0XPx53Qj42jwzMIQAACEKiDgMoq6Fh10G9OmlZ+ypJXveQ6SKT1zi4van1hShbgmWeeGcjHB+Uvz5K0kskUCiZ77F5yySWDz33uc4NFixYNTjvttMHll18eftioUEQFPOsyczniIAABCEAAAnUS0D4pEO7rzEbtacu+uyqjlFlGXnsBJsyAlVPlHAeBJhPQ361A0Qy3RcjKq93CK1BkB4HBJNpOQeL4+c9/nhhF1hZe8iH6OXPmDMWleZKjbJkhaYkOlOSC2Zjh9hU2jJ7LlhOyrYZeJ31EXn63Pv7xj0d+1K8eJX0f7/PTTz099PH3q6++Otyr3G4JcuqppyYVcRCs8InyJx+cHecs73//938f53XombaHvvdjQ1C4gAAEIACBWgloX0zfVGs11J641L+2hWlkJvvLgNPIxYRpWMV0wqgGJ5xwQlQBUhHHHXdcrigXLFgQhfvpT36aK4xPT7LPrTYc2SevLidKjAjlwdKzKD+aL3sMZqgN7r33Xu/ZVCFfjjgIQAACEIBAnQS0T/Il3Mses7YvzbvXrA1ThwHDylZZ+/n7rK/HHntsiJflYM9loDKYTT448MADB8FWQj6zEMZl5VQfA67eM0iEEDAEbHuV9yTLxQ0oogvIXuH6jgUrNhI/XmoH9OPvnRgRrAFB4hKjx+zZs6N4Nf4jjzxyJIvBNr4j4dV/0jFuQJHfDv39tv5lT3J7Ledf/tKXR9IvcuPCCy+M4gy2/YiC7r///tH9tL3XxTil+dl5552jsEknUg/qV/ZEz+uUg69+LG+6+IMABCAAAQikEdD+jL4pjVA/7mNAKVHPVtAvEXwoiFUC9KWUGVBZbpwSkBXWx3NRFDS/cSXAR/x54njwwQcHO+64Y5QPzU/aURSjc845J0/Uuf2okC9HHAQgAAEIQKBOAton+RLut9tuu6E+Nm1gMl5m2w/XYUCRiRWaB/ng8bScfGxR0y1yPPbYY1NntZfJu5VTMaCUIUiYaRPQ3y55b7Kc1Z1kBYq4m2++eejdk9XocTdOd4obYILtt6LgssL9oIMOGop/9Q2ro+dyIqsx9J2XSV0XXXTRQIwia9asGQTfFhkxrsR1p8WLF0fhRV+RMLIiRdydd9452GeffaLnko6Ut6x7/67vj+IKtkOLoln2P8ui+5JG8N2S6Jk9EYNV2ioc9XfppZcOxRXnpf6SjtoWfPVjSWlwDwIQgAAEIFCEgPbx9E1FqHXPLwaUEnVqFdMSwYeCWCVAX8rt3739kJ+ki3FKQJJ/3/fqNqDIEnKZGabM5CizqA455JDBGWecESouX/3qVwd77LHHkB/xF+wp7A2HCvlyxEEAAhCAAATqJKB9ki/hPm5AkT5U5JYsZ/vmPhtQgo8pDnbdddfob5dddhkIU5FXLCM5z7sCOYu9PLdyKgaUPMTwUzeBIgqp1Z3UgCL5l+177Xv161//eqhYabqTGFk1nBg/xGASd2IwsDqF1dXEWKLhxfgRfPcjHnwQfE8l8iN+rQFF/NvVLytXrhwJH0/flnvE85gbf3zgj0P5+M1vfhP5lt9qu+Kl7G+SlNXGI6vtivQDvvuxqICcQAACEIAABEoS0H7el45VMhsEq5lAEXnVR1azpxX5SKXiOKxiOmlSVgnQl1KO3/rmt8ZGnaYEjA3k8WHdBhS7hZkqIjpTK17MG66/YWiLr4022mggs0R9OBXyMaD4oEkcEIAABCAwCQHtk3wJ90kGFOlzs1bKWnmmyMDZJGW3YZuyAiX44LLN1tC5zMi2E0FkADVNjhkKmOPCyqkYUHIAw0vtBIoopFZ3soaEJ598csg4KbqCdWm6k12R8dnPftYGGTq/4oorIuODvK/q7Gp4MeKkud133z0Kbw0oslpGfzP33XfftOAD2UJR/Ymhp4z70n9+KYpj6623HolCJqJpGnZ7rxGPCTfk98tun6jx3HbrrQm+02/57sfSU+IJBCAAAQhAIB8B7dN86Vj5UsVX0wgUkVd95B0DSoyiVQL0pZSjzNyRD6CmuTQlIM2/7/t1GlDiS8zlg45ZTvY2tnzPP//8rCC5nquQjwElFy48QQACEIBAhQS0T/Il3KcZUOzs66Ti2P4WA0oSoWfv2e8JCLNf3fardM8FnmBAKQALr40gUEQhtbqTNaBIQayRQd6pb3/721H50nQnu/3WOONwfIu+P/zhD2HcMjFLf/PGhT/77LMjf9aAIkYTDX/SSScNZIvipD9JT/3JUfwUdZtvvnkUh6zYj7v4b1LSaph4GLkW3cx+80TyJ0aevN/NsnH67sds3JxDAAIQgAAEyhDQ/teXjlUmD4Spn0ARedVHbjGgxChaJUA+dG6XcB9wwAEx32sv05SAtT4GA5mJJStZPvGJTwzEvyyhljSWLl06uPvuu63XxHNRFOQji7KEW4R7mVUkH49/+qmnB3kNKDLDUgwcUhbZuuLoo48eXHbZZeGewImJZtyUJexW+BelJ2sfXo3Szvz60Ic+pLcnOqqQjwFlIowEhgAEIAABDwS0T/Il3FsDymGHHRYNvIkSMW6lrCoZckwzoNx7772hfCAfUt9yyy3Dv4985CODU089dTBu5YZikvAyGUIGUEXGEFlDtvcUl2cFisgOP/3JT0OZaM899xzI3+c///mBDBiKnFPGxQdYs8ohM7Ytq7yDlVl5w4CSRYjnTSNQRCG1ulPcgCLlkt8Dfa9kEP/hhx8Oi5umO1ndK+33SnnZ7ffEOBB/h8etIrPGHWtAEf1M81vkWHRlh+hkNv7Zs2cP5syZM/RnjUni99BDD9WiJx5lCzDR72y8ci76phqYEgOOuem7HxuTFI8gAAEIQAACuQhoP+dLx8qVKJ4aR6CIvOoj8xhQYhTjSoAMAOjLKUeZCZTk0pQA9SszoEQotnHZc1EWJK0048MvfvGLoa0lbFjZcuLMM8+M4rZKgKYvCsTHP/7xyI8NL+eSfpltJWQ/YxtXkY/DyrdPxJgkf/J9FB9OhXwMKD5oEgcEIAABCExCQPskX8K9NaD88Ic/DI0M2gfLStmHHnooMbvqR45JA5KXXHLJ0B751r+cy8Dez372s8S45eZ55503JAvY8CIfHXXUUdHzJDlBBvZs2Wx4OZdB0nEzydMyVtSAIgOgNu1xK4/T0ky6jwEliQr3mkygiEIa153i5ZLfJfsNDjHMikvSnWQVh76DEibLWWPH5ZdfPhADgoaX4zhnDRhWdxIjj40j77nEV8QdfvjhhdMRJmlGIfkdtsYnybdMciuz6sSWw3c/ZuPmHAIQgAAEIFCGgPbNvnSsMnkgTP0EisirPnI7XrL0kcIU4rCK6aTJxZUAMWhstdVWkYAry6GTBNckJUDzIttVxQVaMXrIgIS++Ho88sgjNVh0lNUl8fDqP+lolQCJ5LHHHhuo8Gv9W2VG73/5S1+O0s1zIoMuGlaOdTstpxxxEIAABCAAgToJaJ/kS7i3RgYxoIjhwcoHaStlbT8dN6DEJ4qIXzFYJA0iSp8fdyeffPKQHGDTSjqPG1Bkgkg8LSmTLZfEIzJL0YHAIgYUke1k1YvmeYsttogXtfS1lVPLTFYpnTABIVCSQBGFNK47JSUZN7KKbpOkO8lqM30H5Zg2sUzTsNt1/e63vwtXy9nwSTqbhrU6jNWd7Mp6+QbLxRdfnOtPdhrI6yRfVg8TnVBWm6T92TJdeOGFI8mceOKJQ9wk7m984xuZ/EYiSrjhux9LSIJbEIAABCAAgUIEtF/0pWMVShzPjSFQRF71ken6R7w9lMIqppNGl6QE3HzzzUNCqXxcMO6SlAD1EzfA3HHHHfpocP/99w8OOuigofjjM5js8m0ZZLjoootCo8iaNWsG55577sggg1UCJKHFixdH8cuAhIRRheLOO+8c7LPPPtFz+SGS8uZ1YnDRH6+iHzfMm0YRfyrkY0ApQg2/EIAABCBQBQHtk3wJ93EDiuT59NNPj/ph6Y+vvPLKkaJoPy1Ha0D54wN/HJIh9thjj2h7HYlE5BUxJGh4GayUSRnqZNsufSZHmQ2+atWqcMstkW/kA872uZzHDShWfhI5QrfNknxed911Q6t3RQay+dd8pB3jBhQZeJStUPVPtjCVLcpkWxwra0k+ZYDXl7NyKgYUX1SJp0oCRRTSJN0pKW877bRT9Hsg75vVj+SdVGcnmN111116e+QovzH290WNLTJJTe+LgTbNWeOv1Z2sITXpuyQ2vkceeSRc+Se/NUXcD77/gyiPopupXpYWh/2dlC2QrRNjupZXjrvuumvp7bpsvHruux/TeDlCAAIQgAAEyhLQfs+XjlU2H4Srl0ARedVHTjGgxCimKQHxQQDZuso6K9haJUAGCvTlFsVfhP24E4FfBi3Un/0YrBhL9L4I2Pfcc088+ODaa6+N/IhfqwSIfzuLUwcmbCTx9JP2L7b+7bndg33BggX2US3nKuRjQKkFP4lCAAIQgIAhoH2SL+E+yYAiyW299daRHJC0UlblCDlaA4TIC/pM+nD7TIshW+qIYUP9HX/88fpoYIVW+W5K0iDgF77whSisxGENKHEZSQYj40620bIDqjJYmNfFDShahqxjkqyUN80kfxhQkqhwr8kE7Ludlc803SkeTowhViex76HVnXbcccfoN0P0rzRnDSCyakSd1clkm+A0Z1eaWN3J6nw777xzWvDBTTfdFOVTjMtFnP1OiUyky3LxlYL2t1L7GeEp3zrx7TR+X/2Y7/wRHwQgAAEI9I+AyhD0Tf2re1viIvKqDVf2HANKjFyaEiDLsu0AQtxYYIV1qwS8f9f3R8K1LANPc1dccUXkT5QLdXmVCPtBdqsEyGoZ/XGRD8+nOfshRTH05HV77bVXFP9+++2XN1hl/lTIlyMOAhCAAAQgUCcB7ZN8CfdpBhT5WLv29XI84YQThoptn1kjid1CZtw3To477rgofhn4EyeTL+xgqHwAPsmJ/GRnhFsDishSmjf5lluaO/bYYyN/Mjs8rytrQJFyffvb386bTKY/DCiZiPDQMAJFFNI03SmpSCeddFL0Luu7L0erO51zzjmRH/mNSvr+kWzXZX9XZHW9urPOOisKL++yGDri7uyzz478SPpWd5JVKzZvoqPFnRiLZcKb+htnqImHja+cSfu+pg0XDyMrD8XJikDNg/BIMmLbeMqc++7HyuSBMBCAAAQgAAFLQPs+XzqWjZvz9hAoIq/6KBUGlBjFcUqANTLIC2uV6zQDit0SIkkB0OTjSr7say7O7u07LrxVBKwSIEYT/XERpUVmkib9SXrqT47iJ487+OCDo3DxJeV5wvv2o0I+BhTfZIkPAhCAAASKEtA+yZdwn2ZAkXxZ+UX6cbtS1vbvakCRDzvrfRl4G+fsFjG6Xaf9WHPWxIv9998/SssaUKyMI1t/Jckncs8aIGSFTV4Xl63ESCMDrfZPBiJl5a0YhqxBSNgkDZzmTdv6s/mXcxwEmk6giEJqf3uyVrHL74/dFlB/g6wBRYyz1o8YUb71zW8NZAWLrKyX76nYSW1yrr9rwlXC29Ul8l7Ley5bFItxxG5trOlb3UniEIOIPpOj6FASXrYtlG+nxOOX38O8zhqRiqxcsQYbWXUobtn/LIvyKeWUPiLPX9L3rNLy77sfS0uH+xCAAAQgAIG8BLSP9qVj5U0Xf80iUERe9ZFzDCgxillKgHygVV9WGTB4+OGHwxjSDChWGbfCfSzZ8NIqA2KskVlEmpYcx80qssYdqwTIfuQ2jrznt916a1IWR+4dffTRUfw+P7g6klDOGyrkY0DJCQxvEIAABCBQGQHtk3wJ9+MMKCIjiHFB+/kddtghKpfek6PKIrJNld7XwbgoQOzkvvvui/xqHLLiRMOLrDHO2RUkakB54oknovAaT55jlrHG5iNuQHn88cft45FzGSC1sphMgvHhMKD4oEgc0yRQRCHN0p3i+ZZvG8XfdWtAEf9XX3310EfW4/71Wn4PxG/cye+bXWGn/u3RrvK3upPEJb8d1khiw8XP5XsmRdycOXOi8v/rv/5r7qDx712J0UZ2N4jnJ8+1bAmW1/nux/Kmiz8IQAACEIBAGgHt63zpWGnpcL/ZBIrIqz5KggElRjFLCZAZm1Yg/8hHPhLGkGRAkVmT+mJLmCxnjR2XX375wM7ulHjGOfnwvKZllQBRLPR+kWP8Q/ZpaZ922mlR/HnKaOORD7SKgUn+iszAsnHEz1XIx4ASJ8M1BCAAAQhMm4D2Sb6E+3EGFCmbfEDe9vXf+c53wiLbe2pAOf/88yO/8h22cS4+oUPisNvkxLc1jcf1n1/8YpSWGlB+dduvons2f1nnRWSNogYUybd8WN7mQeKY1GFAmZQg4adNoIhCKlsG6jtzxBFH5MqqrFTRMHJM2gJQVnvY3zzrX87F8Ksr9pMSlRUraUYQmRBnV+El/UbL796RRx45lE+bh6222ipcAZKUdto92U3AxpF3wprEJ9+DsmG/9J9fGsg3Wuy9vOe6BVhaPu193/2YjZtzCEAAAhCAQBkC2jcx7leGXnfCqLw6rXYwS9AFwlar3cUXX+yCmZZhGSYtTvBxVBesqgjjCoR7FygFI2y++93vumC7quh+YAhwRx11lFu2bFl4L5hF5bbddlv316f/6p7zt8+J/AVLyt2sWbOi6/jJ6173OnfHHXeEt4O9fd2LXvwit95660XeAkF+KL7oQXBy6aWXumAAI7wVGFDciSeeGJ4Hq0JcMDMrPA9mKbmgYYXnWf+22WYb99znPjfLm/vVbbe52a9/feQvGHhwgbITXY87+dCHPuS+/vWvh16CZenukksvGec917O5c+e6mZmZsJxSLzgIQAACEIBAXQS0TwqEO7dkyZKJs/Hud7/biYwhLthWK5J9bMSHHHKICz6uHN4KJlG4YFWFCyYqRF4C44dbZ511XLBy1QUDgOF96bel/05zwYQOF2zzFT4OJjy4YBDQBVvAuIULF4b3ggkgLtjHPy24+8xnPuOCb7KFzwMDinvf+97n1jy6xv3D+v8Qhbnooovc3/zN30TXaSd///d/74IP1qc9HrofTyNYgeLWXXfdIT/xC/HzvOc9L7p9zTXXuLe+9a3RdZkTK6cGxpSIW5m4CAOBaRAQHWjp0qVhUpPqVpPkV9K+4/Y73KrrVrnrr7/erb/++i5YGebe8pa3uJe97GWZUYvutXr1aic6QWCQcaIXzX373FDHygz8vx4eeOABJ78DwTaDLlg55175yle6t73tbWE+8sbRZn+++7E2syDvEIAABCDQDALaN8n4JuN+zaiTOnKh7cCXrp1ZhkAwbb2zM/smLUzWChSNf6eddopm/MgWDzILKYAd/tll6LNnz47uy0yoNBf/OKDs3ytO9iXXeGXf3jQXDJZE/uwKFPnYqoY/44wz0oKH9x955JFwNlbR2ZY2j8Ihj5M07PZm8Q/e5okjyY9YHqW807JAJuWBexCAAAQgAAEhoH1S0uzmMoTsbGz5LkmSk77crj613yqT/lFXoMjsbpUPpB8f5+xqFdmHX1ww4SMKL6tCVG5Jike+kaZp6QoU8WfzeeeddyYFDe9J3DJbXP6ytuGykZRZgXLVVVdFeZU8y0qZSZ2VU+UcB4GmE9AZffIO4PpNwHc/1m+alB4CEIAABHwQsLK1j/iIo50EVL/0pWtnUeiEVOzz5clrQBFjiDUAaMXJ0RpQ7P66ixYtSq0PawCR5ebq7NZg8kHDNGeXqFsDiqSpeZNl3mnupptuivwV3U7r85//fBRW0jrnnHPSkonux5fu//KXv4yeTXKiQj4GlEkoEhYCEIAABHwQ0D7Jl1CXx4Ai+bYGD5UB9KgGFPFn5ZikLXTEj7jddtst6ue1LBKPxinHCy+88FnPsf+yxY71Zw0osgWPPgtWzsZCrr386le/Gvnbd9991z7IOCtjQInLJ5ZXRnKpj62cigElFRMPGkQAA0qDKqPmrPjux2ouDslDAAIQgEAHCFjZWnWTDhSLIhQgYGXVaelXGFBiFZTXgCLBTjrppEih1wEAOVoDihgT9JnM0JS9b+Mu2K5raKXJueeeG3mxe4zLQIcYOuLu7LPPjtKQtKwBRVataPpyvOKKK+LBw4/Ty4xS9TfOUDMSOLjx2GOPDc0ilXjko4hJs1FlIEL2Hda05HjMMcckRVvqngr5GFBK4SMQBCAAAQh4JKB9ki/BPq8BRYqwyy67DPW12u9ag4Dtj4NtsQZr1qwZKf2y/1k2FI98n02dGDM0XpnI8fDDD+uj6GjTEL/WgGK/oyarUWQ1btyJAUbkJ00nzVATDyfXRQwoIst8+tOfjtKR9ILt0JKiLXzPKnnTEvALZ5IAEDAErFJqbnPaQwK++7EeIqTIEIAABCBQAQHtn0RmR76uAHCDo7S6lS89O09xMaDEKBUxoMggRLCX7pCyLS+vNaCIEcH6kUGAb33zWwNZwXLPPfcMzjvvvMHGG28cxSHndnBDwtvVJWJEkQ//BXuaD8Q4snjx4iisDi5YA4oUTwwi+kyOYviR8LJ9R7CH+Uj8dnAkhif1cuXKlUNpSDqbbrrpYL/99hvI6ppTTz11sP/++w+VVfzI9mfykUZfTn9E5YiDAAQgAAEI1ElA+yRfgl0RA4pMzrArTFQOsDLGfffdN+RH5JXgm2qDPz7wx1BOOOWUU4aeizHEOpFjNF7t0y+44IJQxgn2Ix7Ix+ntczm3BpS4jCRbicnqGZFDfv3rX4cfqrfGE+H59FNP2yyMPY8bUGTFizC0f7LSV1bexvMpeUky6IxNMOWhFfJR8FIgcbtRBDCgNKo6as2M736s1sKQOAQgAAEIdIqAyu+M/3WqWjMLo7KJ1P803XRTq6hkVjGdNIkiBhRJ67rrrhtRuq0BRfwEH3Efmj2pL3n8KLMvxW/ciXHCDiDEw8m13SosbkCRAQRrhEkKr/d+8P0fxJPPfR18gHZoJY3GmXbce++9E2er5k4wwaO+SPyAJsDhFgQgAAEITJWA9kl1GFCkoHZ7UO2LrQFF/MikDH027igrVJIMCjJBYlw4eWZXuVoDiqQvclSWjCNxiJ9x35KTuOIubkDJyqc+l9U7f/rTn+LRlb62cioGlNIYCThFAhhQpgi74Un57scaXlyyBwEIQAACLSJgZWxf+laLit/LrFoZddp1jgEl1uTkY+aqQB9xxBGxp8mX8f2yk/YRl9UeduaopqFHmRUp21SkORk0SDOCyIxQ+bCqxpXUiGSVx5FHHhn5Ub96lI+/yzYdkzrZAuOoo45KTUfS0xmmk6aVFF6FfAwoSXS4BwEIQAAC0ySgfVJSv1wmHwsWLIj6V1lBmuVkhYfmQfv7uAFF4pAPpyetwtAwhx122NjVoiI/pBlBzjjjjIFMztC4LrroopFsi2Fmp512ivyoXznKKhr5npsYQ4o6kUlsXGnnkneRgw4++OBwlXDRdLL8W+UOA0oWLZ43gYBVTpuQH/JQHwHtQ3z1Y/WVhJQhAAEIQKCLBLSfUjmf/qqLtTwIt2mzdV1HPc8StEFDa7W7+OKL3Q477BCWocnFkbzdcfsdbtV1q9z111/v1l9/fRdsYeXe8pa3uJe97GWZdRAMhLjVq1e7YFsMFxhkXLDVhpv79rnuRS9+UWZY9fDAAw+4a665xq1atco98cQT7pWvfKV729veFuZD/fg4StzBh+Fd8M0Wd8stt7gXvvCF7s1vfnP499KXvtRHEolxzJ07183MzLjgxQo5JXriJgQgAAEIQGAKBLRPCgQ8t2TJkimkWD6JYGssd+NNN4bygfTbG264YSgbSN8t8kqWk34/WDEb9b1SdpFT1l133ayg0fM777zTBStx3Q033BCGe9WrXuXe8573uJe85CWRnzaeWDk1MKC4hQsXtrEY5LlHBILJYW7p0qVhiZusW/WoSmorapv6sdogkTAEIAABCNRKwMotkhHRvcQ1Xf8KM8m/VAKiQ4kLPl0RjvOqx7p0awwoWgMcO0FAhXwMKJ2oTgoBAQhAoNUEtE+qS8hrNbwOZR4DSocqsydFsQMRGFB6UukpxaQfSwHDbQhAAAIQaBQBK7vEMybjg7h2EZCJ8XEn9RjsTFDbZDQMKPEa4brVBFTIx4DS6mok8xCAAAQ6QUD7JAwonajO0oXAgFIaHQFrImAHITCg1FQJDUmWfqwhFUE2IAABCEAgFwErw+QKgKfGE5Dx3Xnz5tW+oggDSuObChksQkCFfAwoRajhFwIQgAAEqiCgfRIGlCrotidODCjtqSty+iwBO/iAAaXfrYJ+rN/1T+khAAEItJmAyODLli2rpQjLly+Ptp1SA4DPjNj4Rdfsmps/f35YpCZtfYwBpWutrOflUSEfA0rPGwLFhwAEINAAAtonYUBpQGXUmAUMKDXCJ+lSBDCglMLWyUD0Y52sVgoFAQhAAAIVE5g1a1aYQlVjk1a/YLJLxZX5v9FjQJkOZ1KZEgEV8qv6kZpSMUgGAhCAAAQ6QED7JAwoHajMCYpgFRw+Ij8BSIJOjQAGlKmhbnxC9GONryIyCAEIQAACDSNg5aiqZH/0i+lXOgaU6TMnxQoJqJCPAaVCyEQNAQhAAAK5CGifhAElF67OekLB6WzVdrZgVvFnVmNnqzlXwejHcmHCEwQgAAEIQCAkYGWoqnVAXeVSlZGGKh0mgAFlmAdXLSegQj4GlJZXJNmHAAQg0AEC2idVLTx3AFWni4ABpdPV28nC0WY7Wa2lCqWDM/RjpfARCAIQgAAEekZA+81pjEmqrjmNtHpWjYnFxYCSiIWbbSXAD0hba458QwACEOgeAe2TGHjqXt0WKRGD0UVo4bcpBHQAgFmNTamRevJBO6iHO6lCAAIQgED7CKjuJzmfhvyk6WFAmU5bwYAyHc6kMiUC/IBMCTTJQAACEIBAJgHtkzCgZKLqtAcMKJ2u3s4Wjt+vzlZt7oLZbUjYyi03NjxCAAIQgEAPCdg+c1q6n02Tfrr6RocBpXrGpDBFAqrsYYGdInSSggAEIACBRALaJ01LiE7MBDdrJ4ABpfYqIAMlCOjvFzJ1CXgdCcLATEcqkmJAAAIQgEClBGx/OU29z+oYGFAqreIwcgwo1TMmhSkSQNmbImySggAEIACBsQS0T5qmID02QzyshYBVbqaxnL+WQpJo5wjYdstvWOeqN7NA1H8mIjxAAAIQgAAEQgK63aVcTNOQYftqdIzqGyMGlOoZk8IUCehgFbPlpgidpCAAAQhAIJGA9kkMPibi6c1NlJveVHXnCqq/YVIwFPPOVe/YAtm6n+Zg0NhM8RACEIAABCDQMAJ1rT5RDGq8Qd9UItUdMaBUx5aYayCgwj4GlBrgkyQEIAABCAwR0D4JgXYIS+8uMKD0rso7U2DbdpGtO1OtmQWpezAoM4N4gAAEIAABCDSAQBP6S9U3kdOqbxAYUKpnTApTJMCPxxRhkxQEIAABCIwloH0SBpSxmDr/0A5CM4u/89XduQLawQFRzhctWuQWLlzYuXJSoGcJaL8lV/RdtAoIQAACEIBAOgFd/SE+6lqtqf02BpT0evL1pHMGFBRTX02jnfHojwcCfzvrj1xDAAIQ6BIB7ZMQaLtUq8XLYg0odSlXxXNNCAisJWCNKHIXOXstm66c2d8pKRP9VldqlnJAAAIQgEAVBKxsVOc4tM0HekYVNb02zk4YUKQ4avmrs+GuxcpZXQS0HaDY1VUDpAsBCEAAAkoAA4qS6PcRxabf9d+V0tt2rGWSQfZ58+aFl/Pnz9fbHFtCYNmyZW758uVhbmdmZqJco0dFKDiBAAQgAAEIjBCwMlHdfaadAMF4+EhVeb3RGQOKDlLU3Xi91g6RFSagBhR+OAqjIwAEIAABCHgmYAVaZgR5htui6FTJYkZ3iyqNrKYS0Pac6oEHrSUgv1Fs0dba6iPjEIAABCAwBQJWv2vC+LPND+Og1TaAzhlQUE6rbTBNjt0qdAxUNbmmyBsEIACBfhBAoO1HPWeVkkk+WYR43jYC8tsmqxfELV26tG3ZJ7+GgK4ikhVEfNvGgOEUAhCAAAQgkEBA5Xp51JRxR51I3gSDTgKyztzqjAHFDp5jdetM+yxUkCb+kBUqAJ4hAAEIQKBzBFSgZYJH56o2V4GsfIpSkwsZnlpKQIwquPIEFi9e7HQbLdFlp+EwmEyDMmlAAAIQgEBXCDRVrtexUPTNaltaZwwogolBimobS5Njb+oPWZOZkTcIQAACEKiegO2fmOBRPe+mpYBs2rQaIT8QaCYBu2KRAZBm1hG5ggAEIACB/hKwOl3TJkVhQJlOu+yUAcUKnk1r0NOpzv6mogMU1Ht/2wAlhwAEINBUAirUSv6astS7qay6lC+raGE861LNUhYIVEPA/mag01TDmFghAAEIQAACZQjomKOEbZo+Z8fCm5a3MqybGqZTBhSBbAcpEDyb2uz85Ut+KOySd34s/LElJghAAAIQ8EPACrXMLPbDtOmxMBDa9BoifxBoJgGry2J4bWYdkSsIQAACEOgXAds3N3Gc2eqayA7Vtc3OGVAElbUMNrFxV1ed/YrZDk5IyanrftU/pYUABCDQJgL0WW2qrfJ5jU/skJiY3FGeJyEh0DcCdhBEys7vR99aAOWFAAQgAIEmEbA6XJPHHHUcHANKda2nkwYUwWUbuVxLQ58/f77jY3lCo71OlApxdtWJXPMjIRRwEIAABCDQZAJJsonkF/mkybWWnbc02YTVRtns8AEBCIwSsEYUfkdG+XAHAhCAAAQgMA0CVndrsvFEWKgBpen5nEa9VZVGZw0oAsw29jhAEUZx7SIwMzMzkmGUihEk3IAABCAAgYYTSJNPkE0aXnEJ2UuSTcQbEzsSYHELAhDITcD2EwyG5MaGRwhAAAIQgIAXArYfbsO4o24z1oa8eqmgGiLptAFFedqGr/c4tpuA/CgsWrSIFUXtrkZyDwEIQKC3BEQ2Wb58uUsbgO8tmJYXHKWl5RVI9iHQIAJWh8WI0qCKISsQgAAEINB5ArqiQwrahu00MaBU3yR7YUCxGEUQxQ0TsAM4Ipw31ckWJ+LYhq2pNUS+IAABCECgDAHZrmXZsmVlgk4cxsoAMvg/b968iePsWwTIJ32rccoLgekR0AERSZGVbdPjTkoQgAAEINBfArbvbcsEBp10wWSu6tpt7wwo1aFsb8zss9veuiPnEIAABCAAgUkIWAWhDbOrJikrYSEAAQi0kYCdBYsRpY01SJ4hAAEIQKAtBNQQIflti/FE8mrzjU4nRPw7DCj+mbYyRvuyIZi3sgrJNAQgAAEIQKAQAdv3t0lBKFRIPEMAAhBoOQEmu7W8Ask+BCAAAQi0gkCbdSMrK2BAqaa5YUCphmsrY2UWaiurjUxDAAIQgAAEChOwQjbGk8L4CAABCEBgqgTsoA7bc0wVPYlBAAIQgEAPCLS9n7W6HZPiq2mwGFCq4drKWO0Lh2Deyiok0xCAAAQgAIFcBJg0kQsTniAAAQg0hoAd3MHw3ZhqISMQgAAEINByAnYsVIrSxhUctgwYUKppkBhQquHa2lgRzFtbdWQcAhCAAAQgkIsAfX0uTHiCAAQg0DgC1viNEaVx1UOGIAABCECghQS68q0xLQcGlGoaIQaUari2OlYrmPPitboqyTwEIAABCEBgiADGkyEcXEAAAhBoHQF0tdZVGRmGAAQgAIGGEuiSbqQGFCZYVNPYMKBUw7XVsdqlX2zl1eqqJPMQgAAEIACBIQIqWMvNNi5PHyoMFxCAAAR6SABdrYeVTpEhAAEIQMA7gS4ZTwSOTrDAgOK9qYQRYkCphmvrY+3aD0nrK4QCQAACEIAABCYkQN8+IUCCQwACEGgIAYwoDakIsgEBCEAAAq0k0EW9SA0oTISvpkliQKmGaydi1ZdPCsNWXp2oUgoBAQhAAAI9JdBFJaGnVUmxIQABCIQE+F2nIUAAAhCAAASKE+jqJAQdw8WAUrxN5AmBASUPpR770a0+eAF73AgoOgQgAAEItJpAV5WEVlcKmYcABCDggQBGFA8QiQICEIAABHpFQMc5pdBdmiyOAaXaZowBpVq+rY/dDrqwj17rq5MCQAACEIBADwmoMC1F57snPWwAFBkCEOg0Afsbj77W6aqmcBCAAAQgMCGBLveZdlIFOt+EDSUhOAaUBCjcGiZgX8IuWWeHS8kVBCAAAQhAoHsEbB/OwFr36pcSQQACELAT3oQG+hptAgIQgAAEIDBKoMvGEymt1fswoIzW/6R3MKBMSrAn4e0PDUJ5TyqdYkIAAhCAQKsJWCEa40mrq5LMQwACEBhLACPKWDw8hAAEIACBnhOwY5pd1YusLIABxX+Dx4Din2knY7QvIt9D6WQVUygIQAACEOgYAbu/L0J0xyqX4kAAAhCIEbD6mjxi0lsMEJcQgAAEINBLAn2ZVGblAGQA/00dA4p/pp2NsS8/Op2tQAoGAQhAAAK9IUCf3ZuqpqAQgAAEIgJ28ERuMoASoeEEAhCAAAR6SKBPOpGVAej//Td2DCj+mXY6RrvsjRey01VN4SAAAQhAoKUE+qQotLSKyDYEIACBygjYPkASYQViZaiJGAIQgAAEGkzA9odd3bYrjl93IGC8Nk5m8msMKJMz7FUM1qLJVl69qnoKCwEIQAACLSGggjP9dEsqjGxCAAIQ8EzADhrRF3iGS3QQgAAEINB4ArYf7IvxRCpF9cA+lXlajREDyrRIdygda0ThpexQxVIUCEAAAhBoPQFWira+CikABCAAAS8E7OARRhQvSIkEAhCAAARaQKDP/Z/qgozV+m+oGFD8M+1FjPYHiRezF1VOISEAAQhAoOEE6JsbXkFkDwIQgMCUCdh+ASPKlOGTHAQgAAEITJ1A3/s9NaDQ5/tvehhQ/DPtTYz6YkqB2V+vN9VOQSEAAQhAoIEErLLAxIYGVhBZggAEIFATAds/MKBSUyWQLAQgAAEIVE6A/s45Haelv/ff3DCg+GfamxjtVl5SaD5Q2Juqp6AQgAAEINAgArY/RlhuUMWQFQhAAAINIWAHlTCyN6RSyAYEIAABCHgjYPs5ibSv45PKAZ3QW9OKIsKAEqHgpAwBBm3KUCMMBCAAAQhAwB8B/VigxMiKUH9ciQkCEIBAlwjooIqUCSNKl2qWskAAAhDoNwE7Likk+qwPaV+PAcX/O4EBxT/T3sWoL6gUHGG8d9VPgSEAAQhAoEYCukxbskAfXGNFkDQEIACBFhCgz2hBJZFFCEAAAhDITQDjyTAqHZ/FgDLMxccVBhQfFInD6UsqKBjAoUFAAAIQgAAEqidA31s9Y1KAAAQg0DUCGFG6VqOUBwIQgEA/CWA8Ga131Q8xoIyymfQOBpRJCRI+ImCF8T4vmYuAcAIBCEAAAhCoiIAKxxI9Excqgky0EIAABDpKwOpt9CEdrWSKBQEIQKDDBOLGE/qyZytbdUQMKP4bPwYU/0x7HSP7sPe6+ik8BCAAAQhMgYAKxpIUwvEUgJMEBCAAgQ4SwIjSwUqlSBCAAAR6QADjSXolq56IjpjOqOwTDChlyREukYD9IeOFTUTETQhAAAIQgEBpAraflUgGg0HpuAgIAQhAAAL9JoARpd/1T+khAAEItI1AXBdi5clwDWJAGebh8woDik+axBUS0BdWLjCi0CggAAEIQAAC/gjYwS62y/THlZggAAEI9JWA7VcYiOprK6DcEIAABJpPAONJdh3peCxjsdmsivrAgFKUGP5zEdCXVjwjiOdChicIQAACEIDAWAL0rWPx8BACEIAABEoSwIhSEhzBIAABCEBgKgQwnuTDbPVFdirIxyyvLwwoeUnhrzABBPHCyAgAAQhAAAIQSCRghWEmJiQi4iYEIAABCExAAN1tAngEhQAEIACByghYPUgSYRV+OmrLCgNKOqcyTzCglKFGmNwErCDOj1xubHiEAAQgAAEIRASsIIzxJMLCCQQgAAEIeCZAf+MZKNFBAAIQgMBEBGy/JBExrjgep+WFAWU8q6JPMaAUJYb/QgTiy+x4gQvhwzMEIAABCPScgO1H2cu2542B4kMAAhCYAgE7+EK/MwXgJAEBCEAAAokEbH8kHjCeJGIaummZMf46hGbiCwwoEyMkgiwCDP5kEeI5BCAAAQhAIJnArFmzogcoDREKTiAAAQhAoEICdgAGI0qFoIkaAhCAAAQSCcT7oUWLFrmFCxcm+uXmWgKWGwaUtVx8nGFA8UGRODIJ2JeY7UcyceEBAhCAAAQg4Ow2mPSdNAgIQAACEPj/2zsXaDmKamEXCPhALoiKXlCBeEEJIAJBDRIIRyCJBGQBKvIQkUWiArIUr6hoDgG5SiKgKApREBAvL4ny8gLhj0qAcy4JCUggXCNIUF7hrQQhPObv3bg7e/r0zPTM9Lu/Wmumu6vr+VV19a7aXVVZErD9N5QoWZInLghAAAL1JsD7p/fyt+xQoPTOMconCpQoKtilQsA+yAwEpYKYQCEAAQhAoCIEeGdWpCDJBgQgAIESE7DvIskGMyFLXJgkHQIQgEAJCNj3Dsr77gvM8kOB0j2/dj5QoLSjw73ECfA1beJICRACEIAABCpGwAq+fHBQscIlOxCAAARKRsC+kyTpKFFKVoAkFwIQKAUBWfpezdy5c/3TefPmqZV/HDduXHA9MDDgn1dpWSv7vkF5EhR1VyeWIQqUrtB1dIwCpSMiHCRNACVK0kQJDwIQgAAEqkLACr0oT6pSquQDAhCAQLkJ2HeT5AQlSrnLk9RDAAL5ExCFiShKREkyPDzcd4Kk3yBmxowZfYeVRwCMEyZD3b6vUaAkw1RDQYGiJDhmSoDGMVPcRAYBCEAAAiUgYAVevroqQYGRRAhAAAI1ImDfUZJtlPw1KnyyCgEIJEJAlCbTp0+PpTCRvoAamXmis1HiKFvEr/iRWSplmKHC+KCWdP9H+65GgdI/TxsCChRLg/PMCMiLY9KkSUF8fMUUoOAEAhCAAARqSMAKuyhPalgByDIEIACBEhAI9+FQopSg0EgiBCCQOwEr54cTI3L/4OBgYN2NwkPaZDEyk2XmzJlBGPZElSlFnZmC8sSWVv/ntq6hQOmfpw0BBYqlwXmmBMICOEqUTPETGQQgAAEIFISAFXRRnhSkUEgGBCAAAQhEEgj34VCiRGLCEgIQgICzMr7iEFlfjChNulGWqP9OR4kzalmwoi3xJe8SOxuHd0mnko1339Y5FCjxmMV1hQIlLincpUIgLICjREkFM4FCAAIQgEBBCVghF+VJQQuJZEEAAhCAQBOBcB+Oga8mPFxAAAI1JxBuIwWHyPlpKU1a4bb9DHVThPY6zKcIaVI+ZT/aMkeBkmxpokBJlieh9UAg3HiiROkBIl4gAAEIQKB0BKyAK4lHyC1dEZJgCEAAArUmYJde4SOAWlcFMg8BCHgEZGzLzqoQKHkoTsKFEe5zyP28lBbhtOSVjjCjqlxbvvQtky1VFCjJ8iS0HgnYh1yCQInSI0i8QQACEIBAKQjw8UApiolEQgACEIBABwL04zoA4jYEIFALAuG2sAiKkzD4qDQODQ2FnaV2HY6fcb/kUVvGKFCS5YsCJVmehNYHAfug8wVTHyDxCgEIQAAChSaA8qTQxUPiIAABCECgSwK2Hyde+aK4S4A4hwAESk3AtoFFVJyE4dr0yr20FRnhmTmM94VLJLlrW7YoUJLjKiGhQEmWJ6H1ScA+7DSqfcLEOwQgAAEIFI4AypPCFQkJggAEIACBBAjYfpwEhxIlAagEAQEIFJ5AWZcyzKrNDvd9eDekW6VtuaJASZY1CpRkeRJaAgTsA48SJQGgBAEBCEAAAoUhsNpqqwVpoQMRoOAEAhCAAAQqQICBsgoUIlmAAARiEahCe5d2HuzYnkCl7xOravXlSJkzltoXxkjPKFAisWCZNwF96CUdPPh5lwbxQwACEIBAEgTsF2p0IJIgShgQgAAEIFBEAuG+3ODgoJs4cWIRk0qaIAABCHRNwLZx4rnscn0afZQwo7SXCeu6ECvqQcuScdTkCxgFSvJMCTEhArbBLfsLKSEkBAMBCEAAAiUloMKsJJ93WkkLkWRDAAIQgEBsArYvJ55498VGh0MIQKDABMKzNqqiGLBtdr/tte33yEA+SvTsKrSy77cMs0txeWJCgVKesqplSpNsxGsJkExDAAIQgEDuBFSQlYQgzOZeHCQAAhCAAAQyImD7chIl78CMwBMNBCCQGgG7HG9VlCcKy7bZvbTXolyaPn26Gx4e9oNkFoSSze6o/c5eyi+7VJYzJhQo5Sy3WqVaGwDJNI1ArYqezEIAAhAoPQHeYaUvQjIAAQhAAAJ9EAh/rU1/rg+YeIUABHIlUAe5vtc8WuWLFBJtfT5VVRV88E+ePwqU5JkSYgoEem3EU0gKQUIAAhCAAARiEeDdFQsTjiAAAQhAoAYE7DuRr5JrUOBkEQIVI2AVBFUfnLbtdZxZNpaNFHvV+RS5aqNASa90UKCkx5aQEyZgG2Ua5IThEhwEIAABCCRKwHY8eGclipbAIAABCECgpARsf06yEGdgrqRZJdkQgECFCNi2qw5yfXjmYKPRaFmats/DfictMWV2QxUovF+TR44CJXmmhJgiAfvi4sulFEETNAQgAAEI9EQg3OGoQyerJ1B4ggAEIACBWhKw/TkBwHuyltWATEOgNARsm1Wn9sr2aaLG3uQ++50UqxrbMkOBknzZoEBJnikhpkzAvsCiGvKUoyd4CEAAAhCAQCQBK7SKgzp1siKBYAkBCEAAAhCIIGD7c3K7zu9LkR3UzJ07V0+D48DAgH8+ceLEwI4TCEAgOwL6RX8dx55sW23baWsvJWHvZVcyxBQmYPuiKFDCdPq/RoHSP0NCyIGAbbDr+CLcE6YAAABAAElEQVTLATlRQgACEIBAGwJWYBVndCTawOIWBCAAAQjUnoC8N+3XywKk6u/OqDz3UhGEk5gZM2b04h0/EIBATAJ23Knq7VMrJHaJLlnKy16Ln7pyacUrT3vbH2237FqeaSxz3ChQylx6NU+7fZkJCjSsNa8QZB8CEIBATgSssCpJoCORU0EQLQQgAAEIlI5AuE9XpXeoyAdiwoqidoUkHwcODw+3c9J0T9yPGzfOyUwVZqk0oeECAn0T0NknVWqXuoUS7ueof2l7BgcHaXcUSAGO9n2KAiX5AkGBkjxTQsyQgG0gJFqUKBnCJyoIQAACEHC8h6gEEIAABCAAgf4IhN+lZR+Yk/zMmzcvUhEieROjSg8l10r5oUoYcadLfM2cOVO9jTjWeaB3BAwsINAHAdsu1X0wmlknfVSkDL1SZ9OFjQIlXb6EngEB20hIdChRMoBOFBCAAAQggPKEOgABCEAAAhBIkEC4X1c2ZYAoO6Jmm6hCSFC1UpT0glF4iYlSqJSNXS/5xw8E0iTA7JNVdO0sFGnPhoaGVt3krDAE7Du07kq/NAoFBUoaVAkzcwK2oZDIERgzLwIihAAEIFArAuH3Dsr7WhU/mYUABCAAgZQIhN+vZejXRSlOVGmSpMKkHXLhJiasTCkDv3b54h4E8iBg2yEGol8tAcuEfk8etbJznFpGKLk6s+rFBQqUXqjhp5AErFZcEoiwWMhiIlEQgEDJCUhbq0aXkpBlKqyRZSnUyJrcarIaRND40jqqcCrhZz1AklaeCBcCEIAABCBQJAL2XSvpKmLfrgiKk3CZCTcxVpEi7MSw6byPgT8ItCVgx5WK2O60TXzKN3VWDgP0KYPuMXhdao3y6RFgB28oUDoA4na5CNiXnaScF165yo/UQgACxSOgCpOoJSl6SW3ZO/F2QAfhtJcagB8IQAACEIBAPAL2nSs+itS3C6etaB9UhNNXNH7xagCuIJA9AfvsMPukmb8O0IstbJrZFOFKy6dI78oicEkqDShQkiJJOIUhgBKlMEVBQiAAgZISkHZUFCZihoeH2+ZCBgyiTCd/4kf86iaqZZidYjtUKE+iSh07CEAAAhCAQLIEwn07CT3vwSErD0h6irycTTitebMTXhgIFJkAg9CtS8e2x0Vu91rnoNp3qLvpli8KlHT5EnpOBHTwTwfwEBRzKgiihQAESkUg3Mm2idcvK9WuG4WHtMliZMkvWe5L22YNS49FbqstG5QnWmIcIQABCEAAAtkQsO9hiTEvmUEHqCQNZZIHyppu4YyBQJYEdJmqvNqYLPPaS1zKp0ztXy/5LKMfLRvqbjqlhwIlHa6EWhACVlCkESlIoZAMCECgcATCSmdNoCpNulGWqN9ORxkIEWPX6FY/RWuveZdoyXCEAAQgAAEI5EcgrETJcgAvLCsVTVaJUyphfnxBHocabupEwD4jeS1R9fe//9298sorbs011nRrv3HtwuHXflGW7W/hIBQ0QShQ0i0YFCjp8iX0AhDQBl6SQiNfgAIhCRCAQGEIhAcDJGFpKk1aZTxKmSIDE2Ly3PA0zKeMgyWtmGMPAQhAAAIQKCsBO8gpeUj7/SzywKRJkwJcaccXRJTCSdbsUsgCQUIgNQL6fOQ5bqSD4Ntuu61buHBhZF5Xrlzp35t/663uH88+6zbdZFO36ahN3Zjtx7g11lwj0k9SlrY9RAmbFNVkwtG6Q7kkwzMcCgqUMBGuK0lAX4SaORoUJcERAhCoI4GwYkAY5KE4CbMPt9VyP69BCts5yDMdYUZcQwACEIAABCDgXFhmEDlG9lVL+sOLcDxV6EdWMU88ExBIgoAOQOfV/5A8aBqiFCgvvPCCO/jgg92vfvWryOyOGjXKffOb33SHHXZY5P2kLDWNVWgPk2KSdzi270q5pFMaKFDS4UqoBSQQFhTzfCkWEA9JggAEakIg3BYWQXESRh9Oo9zPUhAMx8/7IlxCXEMAAhCAAATyJyADRrK/ml0ONMl3th2QktxmKYukTbfKeUubHeFXk4B9JvJ81lU5EVagPP/88+5je3/MXT/n+o4FIIpkaQvTMrrKS54zddLKW1nDtf3XvJafKyu7uOlGgRKXFO4qQcA2KpKhJAXsSgAiExCAQKUJlK0NzCO9Ns4iKpcqXUHJHAQgAAEIQKAHAvbdrd6T6OfpIKGEmeeAquYp6aMdMGYgNGm6hFc2ArYdyXMAupUC5bOf/az7+c9/HmA96qij3M477+ze+c53ujvuuMOffXffffcF9++66y43evTo4DrJk6KwSjJPZQ9Ly4S2PMWS9BoGDARqRcATfhveIxX8POG6VvknsxCAQD0JSFunbZ8nWDWkLSyDyarNlniEi2VUBj6kEQIQgAAEIACBVwlYWUfe53Ldq7xjw5LzqhqbT5GDMBCoKwH7LOTJQPsi3gyUIBlPPfVU0EeR+xdddFFwT0+efPLJhreEV+DuRz/8kd5K/FgUVolnrMQBaj+2yu+rvIuHGShe64OpJwHV0EruvcbGDQ4OuokTJ9YTBrmGAAQqTcB+QSnt3dDQUOnya/PgCYaJrnFuv8AUMEmHXzrYJBgCEIAABCBQUgLSx5s3b54bHh4OctDte932E7v1G0RaopO65bdERUNSMySgz0HafaWXX3rZLbp9kRu65Ra32Jslsv7667tdd93V7bTTTu4Nb3hD5B4oV191tdtr7718GltttZW78847I8nI0l3HHXecf2/KlCnu7LPPjnTXr6XtO3mD2v0Gh/8ECOjMpTq8sxLA1VsQeWtwiB8CeRLwGpdAQ+89Qf5XSnmmh7ghAAEIJEkgq9kbSaa5XVi2zZavbJIwNkzeA0kQJQwIQAACEIBA/gTC7/e473jrT87rYkSuEkZxOdWFC/msDwF9BpLqY0SRe+aZZxoDAwPBs6bPnB5nz54d3LMzUH7yk58E9lOnTo0K2rf73ve+F7jzNpJv6a7fG7aP2essv37TgP9mAlqH6vTeaiaQ/hUzULxahqk3Af3SQCl4DU6iXzZruBwhAAEIZE1Av0SReKvSttk22+vg9DWbxoYljLwOADMRBQQGAhCAAAQgUBEC4Xd9J3lIZad+ZYwy4rOzfZGJyliCpLkfAlr/O7URvcbx2GOPud13393fryROGHYT+YULFzqZ9SFmwoQJbvvtt48MYsIeE4JN5k855RQn7V8axs5Aoa1Ig3B3YVIe3fHq1TUKlF7J4a9SBGyDIxlL66VZKWhkBgIQKDQB7QRIIqvWptnBkF4HOCwfCYNlHAtdnUkcBCAAAQhAoGcCIjfEWdbLyhfet6w9x1dWj7ZP3Kt8lWfeJf2YchEo0hLqqjxNq990zDHHuDPOOCMooB+e8UN34IEHunXXXdfNXzDfySbxS5YsCe5bBUpg2eLkL3/5i5s+fbo7//zzfRcS5j333OPe/va3t/DRv7XyQoHSP8t+Q6j7u6tffrH9pz/JhRggUB4CnqAYTHmUcwwEIACBMhLwBP+gLZPzKppe8+gJ+WwWX8UKQZ4gAAEIQAACHQhY2cEbMPFlJZWTRD4I23UIrpK3LSNhUlQjaZO0Sp/d9uG1DDm+Wr/LwkHKUMozzzqnrLRNSLLue7NPgvZF4onK57P/eLax8cYbB+7sEl5RaZk1a1bD2w+l4SlLAj8S9gYbbNC45pprorwkapcmr0QTWoPAtN1mDDPdwnbpBk/oECgfAW189IUQ9XIrX65IMQQgUBcCtg1LowNQJI62wxwnr5aNtPFx/BQpv6QFAhCAAAQgAIH+CUTJA9au/xjKHYL2g4s6GGfLStPKsVwKk3bllZd8rmlKI35vc/dAyTF+/PiWDYTd66STAuWkk04KwtS0y3HDDTdsyF4qaRvth6XBK+20Vy18yiKbEmUJL6+FwUAgTMBOgZN73kuBfVHCkLiGAAQKR8C2XZ4g1df+IIXLXIsE2aW4PIV3yz1MLBsJqp3bFlFhDQEIQAACEIBARQiE5QLNFv0+5++bMHPmTB9JkeQlWaJLlikaHh7W4nIi744bN855G3MHdpyUh8DcuXODxGqdEwstV0/xENxP+0SXpEqjDZDluX7+85/7WfjZz37mDj/88MjsPPzww85TgPj3Oi3h9etf/9r99Kc/dU899ZR74IEH3EMPPdQU5gUXXOAOOeSQJrskL9LklWQ66xAWZZFNKaNAyYYzsZSQQFioTuNFWkIsJBkCECgoAbtutSTR+w6joClNNlnhfEd19K2SRTpk7HeSbBkQGgQgAAEIQKCsBMJ9vrrIT53KS2WnonyQEy6noqSrE0fud0cgXM5ZjsFonU8jzl122cXdeOONPow5c+a43XbbLRKMtD+rr766f6+TAsUGIP5EGfX5z3/eLV261L/lLeXl7r//fvf617/eOk3snEH7xFD2HRBl0TfCWAGgQImFCUd1JRD+yqXOA2/CQo39UkTt9KufIm0Ep2njCIE6ELAdjiglQpUZWCWK7VBbe8m/vVdlHuQNAhCAAAQgAIF4BKz8lMbAabxUFM+VlaGKIFfqAKGQKkJ6ildi1UmRfSazLG9VoKTRX3j3u9/t7rvvPr+Q5s+f78aMGdOywNZbbz33zDPPuG4UKBrYnz3lyWabb66XTp7jCRMmBNdJnRStfUgqX2UMh7LIrtRQoGTHmphKTCD8Eq+6cC2NsEyPFmOnSHdbhMJJTJZTb7tNI+4hUAUCto2qevvUqrwsA+lYi6LXLgVQVy6teGEPAQhAAAIQgEDzclXMPmmuEWkOKDfH1P7KyniUUXtWVbqrSrM0FBpRnNKs7xq2xNtuBsrKlSvda1/7Wj95VoHi7XfinnvuOd/+pBNPcmusuYZ/HvW3ww47uAULFvi3zjrrLDd16tQoZ33ZMWjfF75EPdM+JoqzbWAoUNri4SYEVhGwDZPYVmkwTl6AYsJryvqWbf5EmImrYBG3uj4ts1TaQOUWBHogoB0M8VrnjqXloBil7WHJLqXBEQIQgAAEIAABS0Blhyr17Wz++jm3g755yZe2D04Z9VOa5fNrB+mzKHut72kobD796U+7X/ziF34hnHnmme4LX/hCZIEsWbLEjR492r9nFSibbLKJW7ZsmW9/9913uy222CLSv1juvvvu7oYbbvDvn3POOU72X0na2LLJq21IOk9lDU/byDTqbVmZpJVuFChpkSXcyhLQF6tmMIuXucaV9FFefK2UJtIAi1Glh8bdTvmhihhd4mvevHktFSxl5qYsOEKgCARUaJK01P25siyEB4KkUMBAAAIQgAAEIBBFwMoNLAs1kpAdJM2LDwqukeVSJxs79pJ2HbTtQdJKAZlBMm3aNL/oZPkuWcYryhx77LHutNNO829ZBcqEPSa46+dc79v/5Cc/cZ/73OeivLvnn3/ebbzxxm758uX+/T/e8Ue39fu2jnTbj2WarPpJVx396jNS93GALMoeBUoWlImjcgTsC0MyV7bGqpXiRAYbVWHSTlHSbYEKLzF2OR0No2zsNN0cIVAUAnQsm0tChUiUJ81cuIIABCAAAQhAoJmA7dMlPWDaHFN5r1TOzEOusgocyqe8daiflNs6UGYFyr1/vtf9x2b/EaC48MIL3UEHHRRcy8k999zjf/wl+5+IsQqUE044IVhifdSoUe53v/ude9e73uW70z95RkSxMmvWLN9q3XXXdU88/oR7zRqvUSeJHWk7E0PZd0DaRjOu1jfKzgF4DxkGAhDogYD3Am94T1jTT+yKbCR9nvDblGa5zjLdXsPekF+YndhhIACB7gjYZ4ln6FV2tm3Osm3rruRwDQEIQAACEIBA3gS0P5KXDPXiyhcbTz31lP97+eWX88YRGb/2HeWYtbFybtZxE19xCGgdTPs5TbsP8aUvfalpDMSbkdLwZqI07r///sb555/f8BQeTfc9BUpQCJ5SpbHBBhsE9+X8jB/8oHHjjTc2br/99sYll1zS8PY+Ce5L23b22WcH/pM+0Wczj3Yh6byUPby832Nl59dN+mWtdAwEINAHAX15FLnhEmFABQ9Np1znPbgYZidpS1sw6qOo8QqBwhHQ55nnprlotL1DqG/mwhUEIAABCEAAAq8SsIOleclRp5xySjDgedWVV8UumqGhoYb3Bbj/+8tf/hLbXy8OLaes+47aV0Se66XkquMnS7k+zb6VKEu32Wab4JnXuOxxq622amy44Ya+G6tAkdK84IIL2vq14ey///6pVgCNK6+2M9XMlShw2z6XKNmlTSoKlNIWHQkvEgEV7vRFUiQhzzaqmr4ivegkLWF+RUpfkeoZaYGAJWCfm6w7tDYdRTy37R5silhCpAkCEIAABCCQLwErR+WVku985zvBgOhvfvObWMl48skngwFW6dvNmTMnlr9+HGkfMmuZSuOlb9hP6ZXfb5bPatrKmueee65xyCGHBM+91nE5ygwSeb69PVL8+3IMG1Geekt4RfqXMET54i0PFvaW6LUtj6zbhEQzUoHAbFlUIDuFzwJ7oHitDAYCSRGwa0FKmF6D5mbMmJFU8F2HU7T0tMtAOK2e8OI8AaGdF+5BoNYE7DPjSRu1ZhGVeV0P1hPsXZJ7OkXFhR0EIAABCEAAAuUioHJUnn2O7373u+7rX/+6D85ToLiPfexjHSHut99+bvbs2YE7T4Hidtttt+A6jZO89pdTWS7vPnUaTAkzPgG7D0rafR4bV5p9iGXLlrmbbrrJLVmyxG05eku344d39Dd/j0Nl5cqVvj/ZM2Xp0qXyUbyTfVHe8573OG8Gi3vd614XJ5ie3WjbKQGkXR49J7ImHrUs8nyP1QS1n00UKHUqbfKaCQFtxDSyvAQ+mw5pUAcHB0sxiGjTLQzTFFy0jDhCoIwE6FS2L7W8OvvtU8VdCEAAAhCAAASKQKAIckK3ChTZHHrq1KlN+FCgNOHgooIErFIj7QF7GxfjENGViT5oNJc8bCmLjKl7DRAGAhBImID3sh2x54hMr8vKeAqTYFqnnJfNCCuvKQx+WbIrGyvSW08C0sboM5LX8yFT0GUt36effrqQhWAZFTKBJAoCEIAABCAAgdwIaH8pLzlKMt7NEl533313IPupDCjHLJbw0r5Z1v1KzWeeZZRbBSXigEDWMr22DVnX9yDDBT6xZcFzmX9B0UZmWwbMQPFqHAYCaREIz6bwXjKpLuklX0xMnz7dDQ8P+1lKO760uEm4WbNLMy+EDYGkCdjnwxMbkg4+VniyLNZ1113nu332H8+6td+49gh/kjaZXn7rrbe6Bx54wL3jHe9wozYd5bbdblv3b//2byPcJ2nBF2RJ0iQsCEAAAhCAQLUIZPXl7qOPPupuvvlm97//+7/O++jEbb/99m78+PFu8803d3FnoLzwwgvugx/8oLvjjjv8QpBlehYvXuyfZzEDJS+5M6syqlbNrl5urEyfRb8nr/pehpKDTXFKibLIoSyy1dcQGwTqR0A0896j3fRLS1tv40krjixL0H7hIHmrQp6y5Edc1SWgX0bl+UzssfseQbv297//fQTsk046qbHuuusGbmz7JPbTpk1reIqXEf6StFBOfEGWJFXCggAEIAABCJSfgMolacpSl112WaQcJHEPDAw0jj/++OB+u03kjznmmMDd9773vcYBBxwQXGcxA8X2ybIs+SzKKMv8EFdvBLKufza+NNuH3mjk64tnMl/+Nnapm1Ie9HMtlXTPmYHi1TgMBLIgYDXEEp/X4CU6G0XX8ZWwvZd+KfY7kbTGMVXOW5z84wYCYQJF+CJvwh4T3PVzrveT5ilQ3DrrrBMk01OOOE+BEly3Otlzzz3dVVdd5TQ/rdz1am/bDk+c6jUY/EEAAhCAAAQgUDECKnuk1W/68Y9/7I488sjY1FptIi/p++hHP+qH4yld3A033OAOPPBAd/HFF/t2WcxAyXoGgELTMkq636zhcywHgTzqH32IkXXDjmfRrxrJJ2sb2sesiXvxpaufIXQIQMASUC2xPHr6E7t+jQ03ifD6TU8a/pWXHOWrEAwE6kpA6r8+D3k+C61moJx33nlB+iSdkydPbpxzzjmNoaGhhnyJudNOOzXdP/vss1MrSssqtUgIGAIQgAAEIACBUhGw8kEastQjjzzSJOvsuOOOjUWLFjVeevGlxmOPPdYYHBxsui/yUtQMFAlngw028N3K7N0H//agzznPGShp8GpVeVTerWr/tlW+sW8mYJ/X5jvpXdk4+cL/Vc48j+nVt25DtvWT9rFber27R4HSOzt8QqBnAlbh0e+LyIZV5cbTviQQYnquenisAAH7LOSZnVYKlB122CEYFPjCF77QeOWVV5qSKdf77rtv4Ga/ffdrup/khWUl5xgIQAACEIAABCBg5YM0aNj+mXw48uLKF0dEc/rppweyUJQCReQlK2vJRyhqUKAoCY51IJD289qKoYw56FhN3fsRtk1rxQv77AhQHtmxtjGhQLE0OIdAxgRswycvZ7nuxlj/3frtJp6iuLX5RYlSlFIhHVkTsM9B2nF7G8A3ZEaJtwRF4+ijj25ccskljeXLl/vR2k697oEie5poR0OOTzz+RGQSvU3lA3ebbbZZpJskLG2Hq+4dnyR4EgYEIAABCECgCgTSlA9E8WH3gPv9734ficzbGL6x8cYbB/JQeAbKqaeeGtw77LDDmsJAgdKEg4uKE7DPaxZZlfhkrMEqUOo89mD512HMKYs61m8cOh5Q53rZL8Ne/KNA6YUafiCQIAFt/OygY5wXk32R1anhtLzicEqwqAgKAoUgYJ+BtBIknX8bj22f5NxbA7fpq0hVoCxZsiTo7G+xxRYtk3fbbbcF7kaNGtXSXRI3NO3SZmIgAAEIQAACEICA7UclLR888MADgYyz4YYbtoV9xBFHBG6tAmXhwoWBvchJ8oGKNXkqUGw60j5XGY4+X9qkix2+fV7TSqnEIfXMKk20/ukx6bYirbwkHa7tEyYdNuH1RkDrJG1jb/x69YUCpVdy+INAwgTsiylOg6hu5Fg3Y1nVVZCpW5mT31UEtP6npTgV5YntmNu2ptW5KlBkXe+TTz7Z/11++eWrEh06+853vhMMDEyYMCF0N9lLTTMCZrJcCQ0CEIAABCBQZgIqHyTdl5AZJxq27H3Szpx44omBW1WgrFixoiGzczUM2UMubKyc5m0iH76d+LXKnpKmLI0yQIbLknrx4pJnVOtCkqmTcOXXSmki9jbutPpeSeYp6bDss89zmDTd3sKzdVLOMdkRyPYNmF2+iAkCpSVgX1IiKES9qKybqPulzXwXCVdBp46CTBeYcFpBAmnX/dmzZwedFGmDpkyZ0rj//vt9kvfee29jn332abovblSB0gm3LP8VXvP7qiuv6uStr/vKq65tZV/w8AwBCEAAAhCoKAEdkE1aPjj//PMDOanTRyJn/OAHgVtVoJx55pmBncxgkY9Owr+tttoqcHPooYcG92XT+TSM7XumEX6rMNMqo1bxYV9MAnbAOIkUSnjaP9A6pkexDw9K2/ov9+ti6prvopevLZeip7Vq6UOBUrUSJT+VIGAbRX2Zi52aKDu9V5ejFaTCQk5dGJDPehJQgd+2CUmSGDNmTNApl6W6wkZmqISVKO0UKHf+8c6GLOclgwDadulRZqukbZRXnTo8aTMlfAhAAAIQgEDZCah8kLQ8de211wbyTqcZKF/72tcCt6pAOe200wI7lZfiHufNm5dKsWjfNGtZSvOddBmlAolAUyNg+/29RiJh6DOv9UqPYt9pPEGfAfFTh/pomUueMekT6FQHNQVaj7NujzX+Oh95Eupc+uS98ATsi1peXNJIaoNZl5d3u0JSFrw82lHiXtUIaL1PQ3ifP39+0GmXDVCfeeaZSHx33XVX4E7aonYKlJtuuqnJrbjXn3xRKQqZNI3yop1IkzJhQwACEIAABMpFIC354L777gvknA022KCtnPPxj388cKsKlPBMXZWZ4hxF5krDaJ80a1lK85yGzJsGJ8JMh4AdzO8mBvGnz7nWJT2KvdyPO2gt8dqwql4nbV67YdRN+eC2mYDW12bbkVdah6teB0fmPH8bFCj5lwEpgEBbAtKQqtCqjaUcaTAbvsCjTODRthpxs0IEVKCVY9LGLjtx0EEHtQ3ers/dToEiy35Nnjy5MX78+IZshKrPrB5lA9U0jfKijUiTMmFDAAIQgAAEykVA5YOk5amXX365Sda5+uqrI8HIsqYqC8lRFSgvvPBCQ/aUa/eze6BceumlgVuJOw2TFqtOaVU+yHCdSFX7voyHaF3olFMdhNY6q/7kKHbyEze9GhtuP+H0Gn8W/uR5U248e1kQfzUOredSx1oZWzZVrX+t8l4EexQoRSgF0gCBGARsYykvNMyrBKwQAxMI1IGA1vl2wlWvHKZNmxYIzN/4xjfaBjMwMBC4badACQdy9913N/bcc8/Ar7RnMvMlLaO86ACkRZhwIQABCEAAAuUjoH2rNOSpww47LJBzZGnUqBm9ssecDlLKURUocUgefvjhgd8sNpHXdGYtS+UVb5wywE12BHRgWepDlJH7UjdV5td6o0exT2qw2aZFwk8q3Kh85WGn7aLkLevnPY/8Fi1OW2ej0mbLJ+o+dukSiG6B0o2T0CEAgR4JaIPKy2wVQCvEwGUVF86qS0AFp7Q7/KecckpbiPvuu2/Qee9GgSKB/vOf/2zYDVCPO+64tnH1c5N2sx96+IUABCAAAQhUk4DtQyQ9CPrQQw8FMpLIIdtss01j9uzZjWXLljWGhoYan/zkJ5vui5uiKlAsp6z7WnWQ4Z577rnGU0891Xj66aer+aAlkCtbByU4uZZfK4WJ1JsklSbhLNj0SFxZPxfh9CR1bXlWJU9JsckqHFsGch42ep/yCZPJ5hoFSjaciQUCfROQRlKFyL4Dq1gA+iKJeslULKtkBwK+kJ5WWyCKDA270wwUfe7EvSpQLrzwwoZsiCq/JUuWtC2tr3zlK0FcsgZ4Wkbzg6CZFmHChQAEIAABCJSTQJoywqxZswI5R+MJH/fYfY/ATVEVKHn2QZVXHBlO3cpR9p558sknO1ZKUWapP1lqNg8zYcKEIA3P/uPZzJIQVgIoh/Bxww03bEg9PfbYYxt/XvrnWOlbsWJFY968eY1TTz21cfzxxzfOO++8xq233toQ+16MTavtf4TTKvfEbRbGPheSjjh1NIt09RKHMLNc5RyTDwFbDlq/bZ1WuzLXt3zIJhMrCpRkOBIKBFInoI0pjeVI1Faosi+YkS6xgUD5Cdj6nnRuzjnnnKATt//++7cMXjZ+l86pCnGqQPn0pz8d2J155pkt/cuNk046KXCb5j4omkbahrbFwU0IQAACEIBA7Qho/yqtAcO5/29uk7ykMokczz333MZVV14VyELXXHNNbP5Tp04N/P3+d7+P7a8Xh8oojz6o8ooTt7rVYxzZUgb51f1OO+3UC56+/VglmsrTfQcaIwBb95RBp+O6667baLWnj0QpSiu7xG84PFHGdFPPNRu272PDlLopv7xk/HC64tRTzVNRjlXIQ1FYJpEOqUO2juu5lJO9l0RchNE9ARQo3TPDBwRyIaCNZxlfzFkAUz55CVBZ5JE4ICAErKCbNBHbkZRnSjYwjTLhTpd2+L7zne8EQl+nWSV2H5QfnvHDqGj6trOsaBv6xkkAEIAABCAAgUoRyEJOkGVLb7zxxoYsjSo/ORe7shjtY8lRBqulL5qVTKVxx+n/qlt7vOmmm9pitnJvnRUoohiRpXntb5999mnIrBxRelimci51OGykzyBL1YXdRl13WiY4HLZ9TvNUmITTpdeSJs2nnJfF2AF5SX+c56wseStrOm1d1zqlR1vPwvkTf/ITN+quTHUxnJ+iXqNAKWrJkC4IGAL25WasOTUEeFEYGJxWmoAVrOQ8SfPiyhcbm222WdAJkA1OZbaJNaIs2XbbbQM3ItSpAkW+glQhT47y5WWUkaW+rDuZ1p+GsazSCJ8wIQABCEAAAhAoLwErJyQtU5WXyqqU2z6oldv0XO7LLy12Np5VqYo+U7f2KPvtiWzbyqBAcb48vsMOO7RC5NtfeumlTXL75MmTR7gP9w1kWWD54Gr+/PmNs846a4QiJu5yYBKRfU5HRFwQi/CzItdFNcJTx070eUnrGS4qg6Kmy9Z1LZvwUcpOf+F7ei33MckTQIGSPFNChEDiBPSFnFdDKAOosrmd/J5//vnE85dEgPZlk0R4hAGBohKwdT0NYVfW4FbhS44yk0QUIX/9618b1157beTXZapAEWZ2KQLxL2sf//a3v23cdddd/vHAAw9sCv+QQw5JDbW2nZIODAQgAAEIQAACEAgTkP6VyAl59bPC6SnStcpRwkbO9Vp4Rf3UTVLyqcYh4XYy6jZ8PPnkk1t6RYEST4EiAL/97W8HZS6zUqy55ZZbgnvCXxQnYSMzVOzyv4cddljYSctr2/dp6agAN8LPhz4PBUhakIRwGuXZTup5DSLhpC8C4Tas22veZX3hb+uZEYW2eLgJgWIQ0EYzjvCYRorl63BNw5e//OXYUSxfvrzx1a9+1f/dcMMNsf314tAKVggBvRDET5kIiGAkz2RaAtKhhx4aPPP67NujTPWXr9XUzipQ7vzjnU0dJHUTdZTZLk8//XRq6JVTXm1nahkjYAhAAAIQgAAEEiGgsoLIKfQhmpGq7BaWo4ST2Fl26tYe5b64k18vbDWscPzNqXz1St3K8ZhjjglkVLm+7777orz4G52rv3ZLeIlsO3PmzIZ8BCTyr3wsJGmSj47imHvuucffSP3II49sHH300Y1LLrmkIf1kMfbDIytP23Blc3lRSkybNs3/sEn2HPzZz37WWPqnP1lnXZ3b5Xg7zUCRgK+//vompjYymW2iHGV/nlZG9kdUd7LcV1wjdUf9xfWTlzupF5pWPcapv2mnNypd8nxiikegU7uq9SrqSJmmW54oUNLlS+gQ6JuAfdn1Inj2nQAvgKGhoUAQ+NKXvhQ7SLvHwTe+8Y3Y/np1qC8bXhy9EsRfWQjYdiGtNJ922mnBc28FNPl67LbbbmuIMlXtpWNnzcMPP9zUIVR39iidwLTXANf4itBxsXw4hwAEIAABCECgOARUXqAPsapMupE1xa38tC+mPFsd1b0c2xn138mdhKFu5SibmY8aNSqwmzBhQmQ0nWagyCoMM2bMCMKxcei5KECWLVsWGb74l7Sr2/BRPjTspEBZsGBBU17CYcheJStWrIiMv51ltwqUs88+O8hHWPlxwAEHBPfaKZUsb8lHXFMmBYrmKarcxS7r8RyJL/xcynXW6VAuHDsTCJdX+Jlvd025dubbj4v4rVY/seAXAhDomYB9+fYcSJ8ee1GgnPGDHwSClDTyKFD6LAS8Q8AQEOFIhac0BaUnHn+icfXVV/tfvMn6xX+844+Nl19+2aSk/amsbywdNNkscnBwsDFr1qzGH/7wh4aEm7YpQtuZdh4JHwIQgAAEIACB/glYmSFNuar/lGYTguUh590aYSj+5Bd3MFDcqR8tA5V146RB3cpRPtCZM2dOICuL3UUXXTQiG3ZAP2oGSnjZWQlHlAcyE9vGJ9ePPvpoU/iiPLGKBeu+1Xl4BsrFF1/cFI/4s8tgaTiy/8hDDz3UFH+ni24UKI888khD9pPR+ETxY81uu+0W3Fu0aJG91XR+2WWXBe5EwRXXSH3QuOP6KYo7qbuadnvUup50OoWV/KKeO7HTZyvpeAkvOQKt6oytP1HnlG1yZdAqJBQorchgD4GCELANaF5J6laBIoOs4UY9CwVKEVjlVUbEWz8CKhjLETOSgLYH8BnJBhsIQAACEIAABJoJaN8FuaHRNGuimVLvVzK4J7KZ/FSGVeadjuKnk7Fh6Axn2WdP7UXxEF42tp0CRfb/U79yPPXUUxsvvPCCnwz5mEj8WmWGKEusmT17dpP/KVOmNO6//37fyb333tuQmSM2fDm3ChTZe9SGv/feezce/NuDvn/Jn+wvaBU5n/zkJ230Hc+tAkWUGbLctv1JeZ1++ukN2atE9jzRtIrbZ555ZkT4ojCSXysjzHbeeecgnH333beV0xH2khaNf8TNklhov0TzYY/6XPQyAC5+5CfPVKvnSux7CbskaCuXTCkrWz/inFO+2VQDFCjZcCYWCPRMQF+28uLLy3SjQHnuuecaW2yxxYhGPwsFin3Z5MWKeCGQFQEVkvNsG7LKay/xqLAZp9PdS/j4gQAEIAABCECgOgS0zyXyQ50HoyyHLGQoiUN+Kteq/GaPcdJh3asCJbxxeXh/jlYKFFEEjBkzJujPttqIXpbXsvHKZupqrP/wjA1xI3GElShWgSLLZmvYkydP1mCbjjLbQ93IUZQucY1VoNgw2p2LIkWWR+vWvPTiSw3Z/8WGfe2118YOpkp9fK3vlkWrc3kmon6t3Ft78Sfc6tyWxa5gBXNo67st01bnlHF2BYgCJTvWxASBngioMCnHNI3sYSBfnZx00kn+lyay5I5sHi8CTzcKFBFMtXG3giMKlDRLj7DrSMAKVwhOzTVAOifaDsGmmQ1XEIAABCAAAQhEE8iq3xUdezFsVX6SY15GZDcry/WqQJH0X3DBBYFMKHmSfq2aVgoU2TReOcgsj/Bef+pfjnb5KpmxIWb+/PlN/qNmbIi7u+66K3An8akCRZQrGr8cW+2xImEMDAwEbmWfkrimFwWKpEU+lLz99tvjRuPnUZ8rzdMRRxwR2784tH2erjwW3LHW8zAf5dTtUcKh31PwQo+ZvLhlT3nHBJqQs9UkHK9wMBCAQEEJjB071g0PDztPcHTeJnappHLJkiVu0qRJzhPORoS/8cYbu+nTp7vPfOYz/j3vaxjnbS49wp1Y/PrXv3bedFz/nveljNtrr72cp1Dxrz0FivO+3vHP0/rzvmTx8yHhey8TN3HixLSiIlwIFILAaqut5qfDE5id1yEsRJqKkAhtNyUtiDlFKBHSAAEIQAACECg+AduXSLPvVVQS3kwJN3PmTD95Rci/yrlx0qJuJfHeDBT3ute9LsC8++67O+9DQf/a28PELZi/wK2x5hrupptucuPGjfPtvT1QnKdQ8c9tn/aggw5yF154YRBW+OS4444L+uif+9zn3E9+8hPnKW3coYce6jvt5H/zzTd3S5cu9d16ChS3zjrruAceeMBJH1yMN+vDLV682D+P+pPxge9+97v+raOOOsr98Ic/jHI2wu7qq652e+29l28vcXkfT45w88QTTzgZJ7j77rvd3Llzg/ve0mLunnvucW9605sCu/CJ5OXEE0903tJnTbe8pczcmT860+ffdKPNhX0uqyzXSz7FWNZyrfVSzrW+eoozuQwM4x4Bikqc2L5sqwwx3tWKTIr2okDBQAACxSXgPf7+VyWe4JhKIuUrHLt+qsbX6ijTiaOMrMmq4ch6rcuXL2/IVzAaThYzUCRdGh/a+KhSwq5qBKRdoM43l6plkla72RwjVxCAAAQgAAEIVIWA/Rq8TnJEEeUnlXHjlIO6laMu4aV1UvYcsfdlpQUxrWageEqJwP0JJ5ygwUQe7UbvMhtEzLRp0wL/nfrAdgaJzkC5/vrrA/823Z3Ow/uwRCb4X5Z2BsoOO+zQzql/T9xrX1/ScfTRR7f0c+655zbt3yLuPSVN4/LLL2/pp90N6ddr3tu54x4EqkLAvoe07ttjnDaxKiyKlI/85mUWiQJpgUCBCWhDmVYj6X2FEwgksq7pNddc05B9TFasWNEQgdAKSpKWKAWKbAo3fvz4IBzZ1E4MCpQCVyySVhkC2kaIoIVZpUSFB7UBAhCAAAQgAIFeCNjBqzp8lGUHqEWuLIpRGTdOP1jdyjGsQJH8iNLEupEN3VspULyZHIHbs846qy2OOXPmBG5VgSIbr2tcqqxpFYhspq5uVYEya9aswE7vxTnut+9+raIZYd+tAkUCEGWQpkOW6g6bp59+urH//vsHbtTt17/+9bbLoIXDCV/b+hm+xzUEqkjAvoP0OdJjnPawikyKkKfivB2LQIM0QKCABLShTEN4F2WJhi+KkoceemgEgYULFwZuxG2UAkU21tNwROBUk6cChReLlgLHqhOwnYo02oky8ZPnXtsi2oAylRxphQAEIAABCBSHgJWtRK6oulHZSY5FkiU1XXFkOnUrxygFyosrX2zYDwf33HPPlgoUb/nqQJ6U/UHbmfPOOy9we/jhh/tOvWW9ArtOM1DsQKkqUKxyY9SoUQ1vaadYP2+prXZJbbpn44gzA0U8h8cObICPPfZYQ9Jqy0EUOt5yZNZZT+f2eewpADxBoGQEbJ23z1SctrBkWS1VcqsvDZSqOEgsBEYS0AYzDWFWBEcNf3BwcGTk/7L5+Mc/HrgLK1DsBvOyqZwVWFGgtETKDQj0TUDaBPnZjpec19loe4ZwWedaQN4hAAEIQAAC/ROwA1hVlq+sHFk0+akbuU7dytH2R21NuPXWW4M+rbg75phjgmtvD5TA6UUXXRTYe3uZBPZRJ7KUlcYtHxWKOeeccwI7mZHRyshm8bL0tfpXBcr//d//BXay9FU7I4ohmfkhPzmPa3pRoNhZPLJyhRrJx4QJE4I0y4eZspJFUsY+i0mFSTgQKDIBW+e1fSha+1xkfmmlDQVKWmQJFwIJEUizwbRficjasK2Mt3FeIBBZBYoIeTaMRYsWNQWRpwJFXjoYCFSRgNRt29nVNkKPda37IlQqAwTMKtZ88gQBCEAAAhDIlkDVZYui568buU7dyrGVAkVqzxe/+MVAXrR+rAJl/vz5gRtRBqhiI1z7ZBlrqwCRGRpi7NJgEofMzogyVokh7jQeUYTYtMmKEK2M/dDx/PPPb+VshL2NO84MFFGSiDtN1x677xGEed111wX2wis8JhA47PHEDib3GATeIFA6AvqsyZG+bTGKDwVKMcqBVECgJQEdKE260QwLZu2+WLFCoFWgHHLIIYGwJJvthU3WChQrXNV1EDlcBlxXg4DUZ20LrDAl52Ifvl+3+l/0AYBq1EJyAQEIQAACEKgfgarKGFauTLqfmVQtUZk3TvrUrRzbKVCe/cez/obm1r2cWwXKSy++1JCVFdTNscceG5mlE088MXAj7kXJIEb61Ztttllwb8qUKcE9DUiUJdtuu23gRuJSBYq4Oeigg4J7Mrsjqq/++9/9PnAj/p988kkNvuOxGwXKww8/3DTDROKyG8LbvVFk/5akjfRrtCySDpvwIFBUAlrn47R/Rc1D1dK1mmTIKxgMBCBQUAJjx451w8PDzhNynbdcVmKp/Otf/+re9a53BeG1awoW37nYbf2+rX23ngLFnXbaaW7JkiVu9OjRgX9vyrJbffXVg2s5ufnmm93VV1/t2+28885u0qRJ/vlHPvIR533B4p8n+eetDxvE4QlabuLEiUkGT1gQyJSA1GdvDWb/+Q9HLO2Bt+xeUx239T/p9iIcf5Gubb4lXe3asiKlm7RAAAIQgAAEIFAOAl/96lfdzJkz/cSWXcYKy5dFzs9qq63mM/cGEJ33sV7byqJuxZGnQHGve93rWrq/+qqr3V5779V031OgOO+jwcDut7/9rfOWuw6uvaW83NSpU92WW27pvCW2nKdAcN6SVsF9b9kvd8ABBwTXV1xxhdtnn32Ca2+miPv85z7vNtt8M3fXXXc5b58Ud8cddwT35cRToLh11lnHt3vkkUfce9/7XvfMM8/41+PHj3cnDJ7gRm852j36yKPuN1f8xn3rW9/y78lfHEaBY+8kzGC33Xazt/3zlStXuj//+c/O2ye16Z5w0T6+3Nhll13cjTfe6LsRju3Ya0Bve9vbnLfKhV62PVpZHzm/Lapa3ZR6IWbu3LmVzLe8c6R9HjduXCXzNzAw0DSWUYpMeg0QBgIQKDABr9H0v7iQY5JGvszxGqngF/VVi8Znp+XqDBSZmmv9d3MuX+ukYUQ7r+lII3zChEDaBMIzSbQ+y1HaALkvv1bGPgNJtxmt4szbXttIYdSOTd7pJH4IQAACEIAABMpLwMpYZZU5RE6ysqXkqchG0xonnepWju1moGh+ZW8S68fOQFE3sim8ddPq/Mgjj2zIcl5hI/untPIj9rLclV0Wy85AkbBkSa52/vWe96Fi5AyVcHrstZ2BouHEOU6bNq0pry+88EKsNIbDtnuo2HRFndt6G3Ufu/oQkLbA9v3C9YrrVeN7ZWEh5RmnjS9CLWcGilerMBAoMgH94slrWBKdgSJ53mSTTdyyZcv87N99993Om3ocieLHP/6x8wRD/57OQJEvZt7//vdHuu9kedJJJ7lvfvObnZx1fV9ZiUevge3aPx4gkAcB/RJQ4pbZZtbIcy8mPNvEugmf2+fAE0Y6frEX9l+m6zrltUzlQlohAAEIQAACVSRg5Q7JX5nkrDKmXWeVxOGsbqVcnn/+effa175WTlua8AwPWS3hD3/4wwj3nhLDeZvNBzNBwg7OO+88J7NTWpnTTz/dffnLXx5x29s7xXmKAffLX/7SX91BHHjLi7m137h2k9vbb7/dHXjggf7qD003vAtvg3nnfZjoDj744BErQYTdhq/trI7wPXstcciqE1tvvbXba6+9nMwwsUbS5y1FZq1inUu4999/fyy3Nq308WMhq5wj7S+H+8qSUe0vVy7TFc5Qq3LsZswjDzwoUPKgTpwQ6IKAFXaTFhhkKS2d8viVr3wlmJoeTp4st7VgwQLfWhUokpYnnngi7LTp+tJLLw0UL96GfcE0Y5ma3EmobQoo5kWarGImAWcQiEVAhEAx3SzRFSvgfzmyz0KcTmc3YRfFbR3yWBTWpAMCEIAABCAAgVcJWPlDbMogZ4XTLAP3ZVjqWJUieTNe8ewKt+j2Re72Rbe7vz34N/+jw2222cZXLKy11lodH40nn3jSDQ0PuVtvvdV5My/cjmN3dFtutWVspcfLL73s5GPHBbctcEuXLnVvfvOb3aabbuomT57s4sTfMYEFd4ACpeAFlHLywu2XKExkoF1MGdqxlPGUNnh5rnUsUpfIlMzk3d63BeoNgmIgAIECE7BTVuU8SWOnBcsUYm891hHBe2uTNk3L1SW8RjiMsPjFL34R+JXN5dI2XmPrx+e9VNOOivAh0DUBeX7lJ/XTezGP+Il9ks+4jUeejSoZfdaFY9XyVqVyIi8QgAAEIACBKhKIkueKKI9YeUlkpqRlzbTLVuXlIrJNO++Ev4qAPG9aF1bZclYHArYNK1v7VYfySSqPtpyL3L+XZW4wEIBAgQlYgSHJwVXJ8iuvvNIYM2ZMIJCIEuWcc85peBvEN7yvXBre1/HBPRVaiqxA0TQiZBe4QtcsadrBtsoMradyTFsQtHFV5bmwApbww0AAAhCAAAQgAIE8CFiZRGWuIshbKn9qmlTmzINRP3Fq+ovAtJ984Lc/AnY8pL+Q8F0mArZ9pQ0oU8n1nlZb5kmPffaeqlU+WcLLeytjIFB0AmPHjvX3RvAGCxPfB0WW5tpzzz3d8uXLW2KQ+9dcc41/X5fwaunY3PBmr7hDDjnEt/FmoLiTTz7Z3E321E7t9BpbpnMmi5fQYhLQ9VnFedTanmIvz3FW63vaKe8StyeUlHpPFG0LlePQ0JCcYiAAAQhAAAIQgEAuBKQPIsYuQSKy3rhx4zKXuVQOtTJolnJn0gVQlCW8ks4X4XVHwPZnvKHM7jzjurQEeP5LW3R9JVz7+2mMffaVMM8zCpR+CeIfAhkQsMqBNISGBx54wO23337BPic2S1OmTPGF//XWW8+37mYA9pJLLnEHHHCA72/atGn+fg827CTP02aUZFoJqzoERKAX02ovE7knL38xWSlN/MhCfyqIiHURhZFQckdchgcEypiHEZnCAgIQgAAEIACByhCwfRGbKek7iZkxY4a1TuxcZSQJsCqKE4XDAKqSqPcRBUr9yt+2p2mMf9WPaHlybJ/3bsYes8ghCpQsKBMHBPokYBuRtGZXeMt5uTvvvNOf4fLII4842Th+7IfGuvXfvH6fqc/GuwrYGlvanRWNh2O9CMizKKadwkTuywB/0Ta3s4KopDGttkTCTtLY9k/CLZoglWReCQsCEIAABCAAgXITCMtbNjdJ9E86yaIqg1Zhc2Xt3yH72VpUv3PbF2Awvfrlb8ubZ7/65R2VQ/seLdKYBQqUqNLCDgIFJKBfkPPl9cjCsS/ZkXdfHcyWafQDAwMs7RUFCLu2BKR+icJEjP2yz3qS57IMdcwKI5L+ogulZUuvrROcQwACEIAABCBQXwIiw4ixS3tF0RAZUozIkWEzb968wKqVDCoONIw8ZzsHCU3wBAVKgjBLHJTt66NAKXFBxky67f9R3jGhVdCZtv8oUCpYuGQJAmkTQIHSmrB9yeqXXe06K+oGhUprpnW9IwK6mLlz5zrptLbqrJa5o2qfFy3noilSbEdJ01gk4UnTxBECEIAABCAAAQh0IiByTSfZslMY4ftl+XgnnO5urnUArWhyajd5wG3/BGy/gAH1/nkWPQTtq0obx36XRS+t9NJXxPafGSjplTchQyBRAlZwYCCxGW2rxlU7K+K6nUJF7qNUEQr1MlI/xMTt0IoQV7RluXotMX027HOhHfG01uiOk1ZJV3h5NOVehaUo4jDADQQgAAEIQAAC1SagcpjmUmea2A93RP6xRmeoyAdgYuogF7Xq41kunFefgDwvkyZN8jOKAqX65a0fDqM4rX5Zt8uh1gN5FxZFkYYCpV2JcQ8CBSNQxEYkb0T6hYKko9NLVjsr7WYW2PzogLLYMVvFkinfuZS9mE5Lcdmc6cC92FW1k2qfH827KhOzVKRI+aA40RLgCAEIQAACEIAABCCAAoU6IARQoNSrHvDc16u8W+VWxylQoLQihD0EINCWgBUemIXyKqp+XrDCU2YfiEGp8irPKvxLuYrpVlmie5iI36oqTCRvUUYFlPC9NJUpUk5hpYnEr4qrupVBmD3XEIAABCAAAQhAoM4E+unn1Zlb1fJux0CYgVK10h2ZH33uGe8ayaZONnZ8oijPPTNQ6lQDyWslCOgsFMlMURqSvMCm1ahKuGJQquRVsvHiVUWJLsElvuzSB1GhyOC8GFWWMEjfTMk+U813XlVsKDe51w07LSvxF6U0EXsUJ0IBAwEIQAACEIAABCAgBHQgtdMqA9CqNgEUKNUu33Du9LlHgRImU69rOy5RlHFPFCj1qoPktgIErABRd2FSX65ZcBDuOlvF7hvRqUrZAXt1y3JgSqL10Q64WwWJ+OikJNFQlX1V9i3RfGVx1Poet64r63DaOpWV+pMy6kYhE46HawhAAAIQgAAEIACBahHIsq9XLXLVyo0d/yjKQGq1CBcrN/rco0ApVrlknRoUKFkTJz4IVJQAs1CcK0KDqoPMUs3izlaJqpIyiKwbQ8r9qm8OGVaOSJ6Fn5hOA+6+o4g/OxAvtxmMj4DUh5U8b/3UcRu1lBVKLUuEcwhAAAIQgAAEIACBMAEdSM3iY7lw3FwXhwAKlOKURRYp0eceBUoWtIsbRxHG+8J0mIESJsI1BEpAwAoRMhg5NDRUglQnl0TbmBZNoFblgM5WkVz3qxyQMFRBYBUtYh82qnwJ2yehUNC8hcOWa5tfe1/zLna9KkfEr+Zfzu0yUnKdRN4kHEw8AloPwmVuy1pC0rpq6yRlFY8xriAAAQhAAAIQgEDdCehAatH6e3Uvl6zzb/v+zEDJmn728elzjwIle/ZFirGIzz0KlCLVENICgS4I2AalTkKlVR4JrjIKUVED0El93d9FFQqcWuVEP0qOIMAuT2z8KEe6hIdzCEAAAhCAAAQgAAEIVJCArrogfYW6fTBYweLsOUs67kE96BlhqTyiQClVcaWWWH3uJYKijPmhQEmtuAkYAukTUKFSYqqLEkVfqJLnKn+V0ErJIvlWk4eyQ+Nud7QKEesO5YilwTkEIAABCEAAAhCAAAQg/dqUYgAAHE5JREFU0IqA9nUZOG9FqB72Wg/qMt5Rj1JtnUsd76nyWE/r3HNHCaBAURIcIQCBxAioQCEBVv0lY/OKANW+CqkCJuwqvOxS+H742i6/FL7HckxhIlxDAAIQgAAEIAABCEAAAkkQsCsPFOUL5CTyRRjdEdABdfr/3XErq2st76qPbZW1fLJKNwqUrEgTDwRqRMAKlpLtqgqXtgFFeKpRBSerEIAABCAAAQhAAAIQgEDtCNh+LoOptSt+P8N2DIA6UI86gAKlHuXcKZf22S/KGCdLeHUqNe5DoAQErHBZxSnOtvFEeVKCCkkSIQABCEAAAhCAAAQgAAEI9EnArkBQlEG0PrOE9y4I6GC6eKH8uwBXYqda5ijMSlyICSTdjgEW5dlHgZJAwRIEBIpAwDYwVVKiVDVfRagzpAECEIAABCAAAQhAAAIQgEBRCVT9Q8Gici9Cuuw4AB9RFqFEskkDCpRsOBc9Fvv8o0ApemmRPgiUkIBtZCT5Zdfa2y+OqqQUKmHVIskQgAAEIAABCEAAAhCAAAQyJ2D7uAykZ44/lwgp81ywFyJSFCiFKIbcE2HbABQouRcHCYBANQnYhkZyWEYhU740mj59uhseHvYLCeVJNesquYIABCAAAQhAAAIQgAAEINCJgP2wroz920754/4qArasxbYog6erUshZmgRQoKRJtzxh23HNorQBLOFVnvpDSiEQm4BtbMRTmYRMO027bGmPXUA4hAAEIAABCEAAAhCAAAQgAIFYBMIf2ImnMvVxY2Wy5o7C4wDyEeXg4KCbOHFizcnUK/soUOpV3q1ya8c0UaC0ooQ9BCCQCIGwkFkGAdM2kgKhDGlOpLAIBAIQgAAEIAABCEAAAhCAAATaEgj3F9Wx9Bsx5SMwb948P9G68oTmgHEAJVG/IwqU+pV5VI5tW48CJYoQdhCAQOIEbMMjgRdRGAkreySdZd+/RfKAgQAEIAABCEAAAhCAAAQgAIHkCEjfce7cuW7mzJnJBUpIhSDArJNCFEOuiUCBkiv+wkRuxzFRoBSmWEgIBKpPwDY+mtsiKFKiFCcITVpCHCEAAQhAAAIQgAAEIAABCECgFQHp54qRmQzhWQyt/GBfHALS9x83bpwbGBjwE8VyXcUpm7xSggLl1X1/nnnmGb8IXv/617vXvva1eRVHbvHaMUwUKLkVAxFDoL4EbCOkFPJQpKA4UfocIQABCEAAAhCAAAQgAAEIQAACrQkUpR/fOoXcgUAyBJJUoHz0ox/1VzbRlImidaeddtLLlkdNgzh4+eWX3eqrr97SbRo35s+f7z7wgQ/4QX/5y192p556ahrRRIY5duzYWMrobbbZxr3vfe/zFaBHHHFEZFj9WNo2DwVKPyTxCwEI9Eyg1ZRnUaSImTFjRs9ht/OoShNxY78OYsZJO2rcgwAEIAABCEAAAhCAAAQgAAEIOGcHFZVHHh9EatwcIZA0AVVeJLGk++677+5uuOGGIIlbbbWVW7RwkVtjzTUCu6gTTYPcy0OBIuNlosgQ86Uvfcmddtpp/nkWfzvssINbsGBBV1Hts88+7oILLnDrrLNOV/7aObZtHQqUdqS4BwEIpE5AGqRWU511Km2/yhRVmliFic0Ywp6lwTkEIAABCEAAAhCAAAQgAAEIQKA9ATu4qC7pWysJjmUmoMqLNBQowuXb3/62O/7449si0jSIozorUESZ8s53vrOJ1YoVK9wTTzwxQsmy2267uTlz5jS57efCtnEoUPohiV8IQCAxAq1mpIQjEKWKGFmjNGxEEWNNK4WJuGHGiSXFOQQgAAEIQAACEIAABCAAAQhAoDsCMsAoZubMmU0eUaQ04eCiZARUeZGWAkVw3HvvvW7UqFEtyWgaxEGdFSi//e1v3aRJkyI5PfXUU+4Tn/hE0wyf2267zW233XaR7ru1RIHSLTHcQwACmROQhqrVzJReEqOKl8HBQcemcL0QxA8EIAABCEAAAhCAAAQgAAEIQGAkgaj+uyhRxPS7osTI2LCBQLoEVHmRpgJlj933cNddf13LjGgaxAEKlGgFirB56cWX3Fve+hanG97PmjXLJbUfCgoUIYyBAARKQ0Bnp2iCdaZJeIaJKknEnc5QGRgY8L2hNFF6HCEAAQhAAAIQgAAEIAABCEAAAskTsAOOGjqKFCXBsSwEVHmRtALli1/8ojvjjDMCDP/9y/92nzrwU8G1PdE0iF0rBcrKlSvd5b+63C1ctNAtXLjQPf/88+7d7363v7H6AQcc4N7xjnfYIEecr3h2hRv+32E3NDTk7rvvPvfe977X7brrrm67bbdz8xfMj7UHyuI7F7tbhm5xMvNj+fLlTvZ42WWXXdyOO+7o3vCGN4yIM46F3QOl3QwUDevDH/6wu+WWW/zLU045xd+nSe/1c7TtGUt49UMSvxCAAAQgAAEIQAACEIAABCAAAQhAAAIQgEBAwA48qiXLeikJjkkQkA9txaTxsawqL5JWoIgyQDY6v/jii/20b7DBBu5Pf/qTW3fddf1r+6dpELsoBYooPPbff3+3aNEi6y04lzBl9pfMxrBhqYMlS5b4S2MtW7ZMrYLjxhtv7KZPn+4+85nP+HZRm8jLzI+vff1r7tRTTw382ROJX/LZS/l0q0DZaKON3EMPPeRHf/nll7t9993XJqXnc9uOoUDpGSMeIQABCEAAAhCAAAQgAAEIQAACEIAABCAAgSgCdgBS7zMjRUlw7IdAVN3SVUl0RRINv9uVSVThkIYCZcyYMW6zzTYLlpyaMmWKO/vsszWpwVHTIBZhBYrM9vjIRz4ShCFuROmx1lpruaVLl8plYL7xjW+4k08+ObiWE1nNRRQbuuxV082Ii7AC5Z///KcTpuFVYUQhJLNQrPnRD3/kjjzqSGvV8bwbBcqZPzrTHXX0UX6YorQRhZSkIwlj6xgKlCSIEgYEIAABCEAAAhCAAAQgAAEIQAACEIAABCAwgoAdiLQ3mZViaXDeLYFW9apTOKpoEXdW2aKKFt20PA0FioR97rnnusMPPzxIpiw/NXbs2OBaTtopUGSJrBtvvNF3L0tmXXnllW7TTTf1rx9//HH3rW99y5111ln+tfzd+cc73VZbbxVcv//973d33HGHf73hhhu6n/70p/7SXaIkuOqqq9zUqVOblCthBcqJJ57oZH9hMaK0EAXQfvvu59ZYcw0nM1rk3vnnn+/flz+Z7SLLg8U1VoEiM2FkiS5rHnvsMT/9C29b6K6fc31w64wf/MAd7S2TlpSx9QsFSlJUCQcCEIAABCAAAQhAAAIQgAAEIAABCEAAAhCIJGAHJK0DFCmWBufdEGhVp7oJo5XbtBQoEp/sNfL73//ej1qUIIsWLvIVEL6F99dKgXLFFVe4ffbZx3cmyg9RhLzlLW9Rb/5RBvs/9alPuUsuucS/thvWyzJie+65p28vyg9Rbvz7v/97k39ZFmy77bYL7KwC5eGHH3ZbbLFFoGCZP3++k1k11oTjlzKSvUniGqtAiesnyc3jNU5bt1CgKBWOEIAABCAAAQhAAAIQgAAEIAABCEAAAhCAQKoEZGBSzMyZM5viYXmvJhxcxCRgB7pjemnpTOqg1ss0FSiy1NR73vOeIB3hzc9bKVD2329/d/nsy31/J5xwQjATJAjoXyc333yz22mnnfwrUZQ8/fTT/vnkyZPdNddc45/LTBEJI8p84hOfcJdddpl/yypQJJ1f+9rXfPvDDjvMn00T5f+mm24KZveIoufBBx+MchZp14sCRfI4bdo0d8wXj3GvWeM1keF2a2nrFQqUbunhHgIQgAAEIAABCEAAAhCAAAQgAAEIQAACEOibgB2ktIExK8XS4LwTAdlUXpfe6uS21X1Z2mtoaCiY/ZGmAkXSIHuTfPOb3wyS85e//MVtsskm/nUrBYpdfuvee+91o0aNCvzbkxXPrnBvXOeNgZXsTfLWt77Vvfvd73ayAb2Ydv5/+ctfuoMPPth3ZxUon/3sZ93Pf/5z3/773/+++/SnP+2fh/9eeumlpr1InnzySfemN70p7Czy2ipQvvKVr4yY4bJy5Uo/D/fcc4+/lJluIC+BCVPZ9yUJY9smFChJECUMCEAAAhCAAAQgAAEIQAACEIAABCAAAQhAoCcCdrDSBoAixdLgvB2BfpQoqjyR8FV5kbYC5aUXX3LbbretW7x4sZ8tUQDJEls2DXJuN5Ffb731guWzrL3vKfQ3evRof4kusZ43b5770Ac/5NZca83A1YsrX2xaNiy44Z3YGSRWgSL7kcieLd2apd6Mm//YbLNY3qwCRXi0U4z9/e9/d4ceeqj7zW9+E4Qty4y9/e1vD657PbFtEgqUXiniDwIQgAAEIAABCEAAAhCAAAQgAAEIQAACEEiMgAxaitFllDRglvdSEhw7EZAN2YeHhzs5a7pvB8izUqBIAmTGy4477hik5dJLL3Uf//jHAyWO3FBFyVNPPeXWX3993+0GG2zgHn300cBf1IlVdsim8zK75V3velfg1OY5sPzXyeI7F7ut37e1f2UVKBtttJGzMz7C/lpdhzeyb+VO7LtRoIj75557zq299tpy6purr7462OdF7Xo5okDphRp+IAABCEAAAhCAAAQgAAEIQAACEIAABCAAgdQJyGyCuXPnjlCkSMSiTBkYGHATJ05MPR1EUB4CUmemT5/etfIkPNMkSwWK0D3qqKPcmWee6YOW/UJkY3fZ00ONKlBefunlphkjr7zySpOiRd3r0S7X9eDfHnTrv3l99/rXv15vu3YzUK6//no3YcIE361VoFjlhuyfIjN34phdd93VrbXWWnGcdq1AkUBtur73ve+5Y489NlZc7RyhQGlHh3sQgAAEIAABCEAAAhCAAAQgAAEIQAACEIBAIQjYgcxwglCmhInU67pXpYlSCitPxD5rBco//vEP9973vjeY2XHkkUcGChVJjypQ5HzzzTd3S5culVO3bNmyphklvuW//h5//HF/zxO1U2WLzEIRf2Luvvtut8UWW6iTpuOPf/xjJ+kQYxUon/rUp9zFF1/s25977rlONpJvZSRfEu8ar1nDrf3GVTNEWrlXe6sM6bSEl/iRpdDe8ta3BEubzZo1yx1xxBEaXM9H2+60m63TcwQ9eFzNS0ijB394gQAEIAABCEAAAhCAAAQgAAEIQAACEIAABCpOQAY0xYSX99Jso0xREtU+tlOa2BkRnZbxilKeCLmsFSgS5+zZs91+++0npyOMVaBMnjzZXXPNNb6bwcFBJ7NAooxVgIwZM8bNnz/fd/aRj3zEn9klF7JBe6tnySoxrAJF4pNZPmL23ntvd8UVV/jn4T9Rzmy55Za+tWx0LxvWxzU27jgKFCnHj370o0HwskeLLOPWrymiAsWJAgUDAQhAAAIQgAAEIAABCEAAAhCAAAQgAAEIQKAdAU9Z0pCfN0ga+ZN73sBquyC4VyICUpaeciSyrMVefra829UNqTNyv5XROmXDa+W2k/1uu+0WpNlTBrR1vs8++wRuNQ1y9BQogb+LLroocOPtg9LwFBPBPT3xlutqbLzxxoE7b8aI3mqcf/75gb23TFjjrrvuCu7pyYUXXhi4kfg9BYreaniKkaZ73mbzwT098ZYGa+yx+x6BO09Ro7diHT2FT+C3HTNv5knjv3/53w3Jh/LaZpttGt6sl1jxdHJk61Ant1ndZwaKV9IYCEAAAhCAAAQgAAEIQAACEIAABCAAAQhAID4BZqbEZ1Uml3FmmsgsjKi9cNptJO8NjLsZM2a0RJHHDBRJzEMPPuRGbzk6WIpKE2hnoHgD9e6DH/xgMKNENpP//unfdx/e6cNuzTXXdDfffLObNm2av4+K+JcluhYvXuxWX311Pzjx/4EPfMAtWLDAv5a9Vk477TR/I3u5d9lllzlhao2dgSL2wk/2GVHz/e9/398v5U1vepO744473PHHH98U/p133une+c53qvOORzsDZauttnJvf/vbR/h57LHH/LjCN/7whz+4nXfeOWzd03URZ6CgQOmpKPEEAQhAAAIQgAAEIAABCEAAAhCAAAQgAAEICAGUKeWtB6IwEdNqI3hdnquV0sTmvJUCpZPyRMLIS4Eicdult+RajFWgyPVtt93mL1m1fPlyuWxpZEP6K6+80m2//fZNbkR5sueee7p2/uW+LhUWVqCseHaFG7/r+EBJ0hR46OKqK69yk/eaHLJtf2kVKO1drroriqJf/epXbvTo0ass+zxDgdInQLxDAAIQgAAEIAABCEAAAhCAAAQgAAEIQAACxSXQSZkiA/Ljxo1zAwMDkbMYipuzaqSsk8JEctmN0sRSUSWItYujPBH36tdbwqvveiGzY6677jo/GXLcY489bJJGnMsskB133NHZ/VvCChTx9Oijj7qDDz7Y3XDDDSPCEIvx48e7Sy+9tGkjeevwgQce8Pdc0Zko9t6UKVP8GTrrrbeebx3FTTZuHzxh0P3Xf/2X9RqcyyyQEwZPcLsO7BrYxT2RGTK6Z0s7P7K3i+yz4i3b5aZOnere8IY3tHPe9T0UKF0jwwMEIAABCEAAAhCAAAQgAAEIQAACEIAABCBQRgKdlCmSJ1WoyHm7JZ7kPqZ7AqIwmTt3rps3b16TgiAcUq9KExuOKkHULkoJoPfCR/WbhAIlHHaS16Jsue/e+9yi2xf5y1mts846vjLh/e9/v3vb297WMSpvrxAny2sNDQ25Rx55xMnMj7EfGuvWf/P6Hf2qg8cff9yfEbNo0SL3/PPPu4022shfIkyUGmU3KFDKXoKkHwIQgAAEIAABCEAAAhCAAAQgAAEIQAACEOiaQDcD+TJDRQwKla4xu244S+hxluaKkwqJd9KkSYHTbpQn4qksCpQgg5ykQgAFSipYCRQCEIAABCAAAQhAAAIQgAAEIAABCEAAAhAoEwEd6Jc0z5w5s23SZTBeDMt+NWMShmLizjBJc+k0q0CR2Swyw6IbgwKlG1rVdYsCpbplS84gAAEIQAACEIAABCAAAQhAAAIQgAAEIACBHgl0o1CRKOzSX6JYESN7X1TNhJUkkj+7V0er/CqfrJROqkDpRXkieUCB0qok62WPAqVe5U1uIQABCEAAAhCAAAQgAAEIQAACEIAABCAAgR4JyGCqmE77d4SDV+WB2melRND4uj1GKUkkjDiKEo1L8izLcYnJQ5GkA9+yR0gvBgVKL9Sq50frkeSs17qUNJXVvIT0VquTTgnhQQACEIAABCAAAQhAAAIQgAAEIAABCEAAAhBoQcDOUhGliphulAziXhQNanSvFb3Wo85o0Ws9tlJMqAJE3clRltWyRtNr7eS8m/Rr2nUpLvHfKk1yL0sjA9/9KKpQoGRZWsWNCwVKccuGlEEAAhCAAAQgAAEIQAACEIAABCAAAQhAAAIlJWCVK5KFbmetFCXbRVaSpMkIBUqadMsTNgqU8pQVKYUABCAAAQhAAAIQgAAEIAABCEAAAhCAAAQqQCBKuWKz1c0sEOsv7rkqRax7O/tFZ7wUZTaJTWdW5yhQsiJd7HhQoBS7fEgdBCAAAQhAAAIQgAAEIAABCEAAAhCAAAQgAAGfQNTSXHJDl+dSxYfFVWcliOXQ7TkKlG6JVdM9CpRqliu5ggAEIAABCEAAAhCAAAQgAAEIQAACEIAABCAAgR4JoEDpEVzFvKFAqViBkh0IQAACEIAABCAAAQhAAAIQgAAEIAABCEAAAhDojwAKlP74VcU3CpSqlCT5gAAEIAABCEAAAhCAAAQgAAEIQAACEIAABCAAgUQIoEBJBGPpA0GBUvoiJAMQgAAEIAABCEAAAhCAAAQgAAEIQAACEIAABCCQJAEUKEnSLG9YKFDKW3akHAIQgAAEIAABCEAAAhCAAAQgAAEIQAACEIAABFIggAIlBaglDBIFSgkLjSRDAAIQgAAEIAABCEAAAhCAAAQgAAEIQAACEIBAegRQoKTHtkwho0ApU2mRVghAAAIQgAAEIAABCEAAAhCAAAQgAAEIQAACEEidwNixY93w8LD70Ic+5IaGhlKPjwiKSUDrwX/+53+6GTNmFCKRqzU8U4iUkAgIQAACEIAABCAAAQhAAAIQgAAEIAABCEAAAhCoHQEdOEeBUruib8qwzkRCgdKEhQsIQAACEIAABCAAAQhAAAIQgAAEIAABCEAAAhCoK4Frr73WTZo0yc8+3/vXtRY4pwqU//mf/3ETJ04sBAhmoBSiGEgEBCAAAQhAAAIQgAAEIAABCEAAAhCAAAQgAIF6ErAKlCLNPqhnaeST6yLufyIkUKDkUx+IFQIQgAAEIAABCEAAAhCAAAQgAAEIQAACEIAABP5FQJfxkssizUCggNInYJUnRVOgoUBJv/yJAQIQgAAEIAABCEAAAhCAAAQgAAEIQAACEIAABDoQ0CWc2AulA6iK3dZyl2wVbQk3FCgVq2xkBwIQgAAEIAABCEAAAhCAAAQgAAEIQAACEIBAGQmwlFcZS633NEt5T58+3Q0PD/uBFG32iSQKBUrv5YtPCEAAAhCAAAQgAAEIQAACEIAABCAAAQhAAAIQSJCAXcpLgi3ioHqC2a1tUHbZriKXMwqU2lZRMg4BCEAAAhCAAAQgAAEIQAACEIAABCAAAQhAoHgEogbXJZUDAwNu4sSJxUswKYpFQGaciLGzTuS6yEoyFChSQhgIQAACEIAABCAAAQhAAAIQgAAEIAABCEAAAhAoDIHw8k42YbJHCqZcBHSZLptqKcfBwcFCK8VQoNgS4xwCEIAABCAAAQhAAAIQgAAEIAABCEAAAhCAAAQKQ0Bmo8ybNy/YJ6MwCSMhPRMQxcm4cePcjBkzeg4jK48oULIiTTwQgAAEIAABCEAAAhCAAAQgAAEIQAACEIAABCDQMwGZlTJ37tye/eMxPwKy/JqYsi3BhgIlvzpDzBCAAAQgAAEIQAACEIAABCAAAQhAAAIQgAAEIAABCBSUAAqUghYMyYIABCAAAQhAAAIQgAAEIAABCEAAAhCAAAQgAAEIQCA/AihQ8mNPzBCAAAQgAAEIQAACEIAABCAAAQhAAAIQgAAEIAABCBSUAAqUghYMyYIABCAAAQhAAAIQgAAEIAABCEAAAhCAAAQgAAEIQCA/AihQ8mNPzBCAAAQgAAEIQAACEIAABCAAAQhAAAIQgAAEIAABCBSUAAqUghYMyYIABCAAAQhAAAIQgAAEIAABCEAAAhCAAAQgAAEIQCA/AihQ8mNPzBCAAAQgAAEIQAACEIAABCAAAQhAAAIQgAAEIAABCBSUAAqUghYMyYIABCAAAQhAAAIQgAAEIAABCEAAAhCAAAQgAAEIQCA/AihQ8mNPzBCAAAQgAAEIQAACEIAABCAAAQhAAAIQgAAEIAABCBSUAAqUghYMyYIABCAAAQhAAAIQgAAEIAABCEAAAhCAAAQgAAEIQCA/AihQ8mNPzBCAAAQgAAEIQAACEIAABCAAAQhAAAIQgAAEIAABCBSUAAqUghYMyYIABCAAAQhAAAIQgAAEIAABCEAAAhCAAAQgAAEIQCA/AihQ8mNPzBCAAAQgAAEIQAACEIAABCAAAQhAAAIQgAAEIAABCBSUAAqUghYMyYIABCAAAQhAAAIQgAAEIAABCEAAAhCAAAQgAAEIQCA/AihQ8mNPzBCAAAQgAAEIQAACEIAABCAAAQhAAAIQgAAEIAABCBSUwP8HZ/SJGEOe30sAAAAASUVORK5CYII=;" parent="1" vertex="1">
          <mxGeometry x="-152" y="-71" width="677.07" height="362" as="geometry" />
        </mxCell>
        <mxCell id="T4AdlfE-p1V91D3AjtGN-3" value="Node C" style="rounded=1;whiteSpace=wrap;html=1;" vertex="1" parent="1">
          <mxGeometry x="-131" y="169" width="56" height="32" as="geometry" />
        </mxCell>
        <mxCell id="T4AdlfE-p1V91D3AjtGN-5" value="Node B" style="rounded=1;whiteSpace=wrap;html=1;" vertex="1" parent="1">
          <mxGeometry x="99" y="169" width="56" height="32" as="geometry" />
        </mxCell>
        <mxCell id="T4AdlfE-p1V91D3AjtGN-6" value="Node A" style="rounded=1;whiteSpace=wrap;html=1;" vertex="1" parent="1">
          <mxGeometry x="-18" y="-10" width="56" height="32" as="geometry" />
        </mxCell>
        <mxCell id="T4AdlfE-p1V91D3AjtGN-7" value="d1" style="ellipse;whiteSpace=wrap;html=1;aspect=fixed;" vertex="1" parent="1">
          <mxGeometry x="78" y="19" width="33" height="33" as="geometry" />
        </mxCell>
        <mxCell id="T4AdlfE-p1V91D3AjtGN-8" value="d2" style="ellipse;whiteSpace=wrap;html=1;aspect=fixed;" vertex="1" parent="1">
          <mxGeometry x="119" y="84" width="33" height="33" as="geometry" />
        </mxCell>
        <mxCell id="T4AdlfE-p1V91D3AjtGN-9" value="d3" style="ellipse;whiteSpace=wrap;html=1;aspect=fixed;" vertex="1" parent="1">
          <mxGeometry x="55" y="226" width="33" height="33" as="geometry" />
        </mxCell>
        <mxCell id="T4AdlfE-p1V91D3AjtGN-10" value="d4" style="ellipse;whiteSpace=wrap;html=1;aspect=fixed;" vertex="1" parent="1">
          <mxGeometry x="-55" y="234" width="33" height="33" as="geometry" />
        </mxCell>
        <mxCell id="T4AdlfE-p1V91D3AjtGN-11" value="d5" style="ellipse;whiteSpace=wrap;html=1;aspect=fixed;" vertex="1" parent="1">
          <mxGeometry x="-135" y="97" width="33" height="33" as="geometry" />
        </mxCell>
        <mxCell id="T4AdlfE-p1V91D3AjtGN-12" value="d6" style="ellipse;whiteSpace=wrap;html=1;aspect=fixed;" vertex="1" parent="1">
          <mxGeometry x="-91" y="19" width="33" height="33" as="geometry" />
        </mxCell>
        <mxCell id="T4AdlfE-p1V91D3AjtGN-13" value="" style="curved=1;endArrow=classic;html=1;exitX=1;exitY=0.5;exitDx=0;exitDy=0;entryX=1;entryY=0.5;entryDx=0;entryDy=0;" edge="1" parent="1" source="T4AdlfE-p1V91D3AjtGN-7" target="T4AdlfE-p1V91D3AjtGN-5">
          <mxGeometry width="50" height="50" relative="1" as="geometry">
            <mxPoint x="-67" y="-6" as="sourcePoint" />
            <mxPoint x="-17" y="-56" as="targetPoint" />
            <Array as="points">
              <mxPoint x="147" y="36" />
              <mxPoint x="187" y="136" />
            </Array>
          </mxGeometry>
        </mxCell>
        <mxCell id="T4AdlfE-p1V91D3AjtGN-14" value="" style="curved=1;endArrow=classic;html=1;exitX=1;exitY=1;exitDx=0;exitDy=0;entryX=1;entryY=0.5;entryDx=0;entryDy=0;" edge="1" parent="1" source="T4AdlfE-p1V91D3AjtGN-8" target="T4AdlfE-p1V91D3AjtGN-5">
          <mxGeometry width="50" height="50" relative="1" as="geometry">
            <mxPoint x="-99" y="-8" as="sourcePoint" />
            <mxPoint x="-49" y="-58" as="targetPoint" />
            <Array as="points">
              <mxPoint x="174" y="128" />
            </Array>
          </mxGeometry>
        </mxCell>
        <mxCell id="T4AdlfE-p1V91D3AjtGN-15" value="" style="curved=1;endArrow=classic;html=1;exitX=0;exitY=1;exitDx=0;exitDy=0;entryX=0.25;entryY=1;entryDx=0;entryDy=0;" edge="1" parent="1" source="T4AdlfE-p1V91D3AjtGN-9" target="T4AdlfE-p1V91D3AjtGN-3">
          <mxGeometry width="50" height="50" relative="1" as="geometry">
            <mxPoint x="106" y="306" as="sourcePoint" />
            <mxPoint x="-103" y="202" as="targetPoint" />
            <Array as="points">
              <mxPoint x="34" y="276" />
              <mxPoint x="-7" y="281" />
              <mxPoint x="-53" y="276" />
              <mxPoint x="-117" y="249" />
            </Array>
          </mxGeometry>
        </mxCell>
        <mxCell id="T4AdlfE-p1V91D3AjtGN-16" value="" style="curved=1;endArrow=classic;html=1;exitX=0;exitY=0.5;exitDx=0;exitDy=0;entryX=0.25;entryY=1;entryDx=0;entryDy=0;" edge="1" parent="1" source="T4AdlfE-p1V91D3AjtGN-10" target="T4AdlfE-p1V91D3AjtGN-3">
          <mxGeometry width="50" height="50" relative="1" as="geometry">
            <mxPoint x="-170" y="316" as="sourcePoint" />
            <mxPoint x="-120" y="266" as="targetPoint" />
            <Array as="points">
              <mxPoint x="-73" y="251" />
              <mxPoint x="-103" y="232" />
            </Array>
          </mxGeometry>
        </mxCell>
        <mxCell id="T4AdlfE-p1V91D3AjtGN-17" value="" style="curved=1;endArrow=classic;html=1;exitX=0;exitY=0.5;exitDx=0;exitDy=0;entryX=0.5;entryY=0;entryDx=0;entryDy=0;" edge="1" parent="1" source="T4AdlfE-p1V91D3AjtGN-11" target="T4AdlfE-p1V91D3AjtGN-6">
          <mxGeometry width="50" height="50" relative="1" as="geometry">
            <mxPoint x="-219" y="78" as="sourcePoint" />
            <mxPoint x="-169" y="28" as="targetPoint" />
            <Array as="points">
              <mxPoint x="-135" y="41" />
              <mxPoint x="-44" y="-40" />
            </Array>
          </mxGeometry>
        </mxCell>
        <mxCell id="T4AdlfE-p1V91D3AjtGN-18" value="" style="curved=1;endArrow=classic;html=1;exitX=0.5;exitY=0;exitDx=0;exitDy=0;entryX=0.5;entryY=0;entryDx=0;entryDy=0;" edge="1" parent="1" source="T4AdlfE-p1V91D3AjtGN-12" target="T4AdlfE-p1V91D3AjtGN-6">
          <mxGeometry width="50" height="50" relative="1" as="geometry">
            <mxPoint x="-193" y="-7" as="sourcePoint" />
            <mxPoint x="-143" y="-57" as="targetPoint" />
            <Array as="points">
              <mxPoint x="-58" y="-20" />
            </Array>
          </mxGeometry>
        </mxCell>
        <mxCell id="T4AdlfE-p1V91D3AjtGN-19" value="② 将datapoint的partition key进行哈希计算，以此确定此数据在环上的位置，从此位置顺时针第一个节点就是数据该存放的节点" style="text;html=1;strokeColor=none;fillColor=none;align=left;verticalAlign=middle;whiteSpace=wrap;rounded=0;" vertex="1" parent="1">
          <mxGeometry x="-152" y="259" width="291" height="89" as="geometry" />
        </mxCell>
        <mxCell id="T4AdlfE-p1V91D3AjtGN-20" value="&lt;span style=&quot;color: rgb(0 , 0 , 0) ; font-family: &amp;#34;helvetica&amp;#34; ; font-size: 12px ; font-style: normal ; font-weight: 400 ; letter-spacing: normal ; text-align: left ; text-indent: 0px ; text-transform: none ; word-spacing: 0px ; background-color: rgb(255 , 255 , 255) ; display: inline ; float: none&quot;&gt;① 虚拟一个环的概念，在环上构造哈希值空间，整个空间按顺时针方向组织。&lt;/span&gt;" style="text;whiteSpace=wrap;html=1;" vertex="1" parent="1">
          <mxGeometry x="-142" y="-71" width="296" height="40" as="geometry" />
        </mxCell>
        <mxCell id="T4AdlfE-p1V91D3AjtGN-21" value="③ 为了避免数据倾斜，通过一致性哈希算法引入了虚拟节点机制，将令牌区间分解为多个小区间，为每个物理节点分配多个令牌" style="text;html=1;strokeColor=none;fillColor=none;align=left;verticalAlign=middle;whiteSpace=wrap;rounded=0;" vertex="1" parent="1">
          <mxGeometry x="229" y="267" width="291" height="89" as="geometry" />
        </mxCell>
        <mxCell id="T4AdlfE-p1V91D3AjtGN-22" value="Ring with NVodes" style="text;html=1;strokeColor=none;fillColor=none;align=center;verticalAlign=middle;whiteSpace=wrap;rounded=0;" vertex="1" parent="1">
          <mxGeometry x="322.5" y="92.25" width="104" height="42.5" as="geometry" />
        </mxCell>
        <mxCell id="T4AdlfE-p1V91D3AjtGN-23" value="Ring without NVodes" style="text;html=1;strokeColor=none;fillColor=none;align=center;verticalAlign=middle;whiteSpace=wrap;rounded=0;" vertex="1" parent="1">
          <mxGeometry x="-62" y="97" width="136" height="40" as="geometry" />
        </mxCell>
      </root>
    </mxGraphModel>
  </diagram>
</mxfile>
